  <svg
      id="Layer_1"
      data-name="Layer 1"
      xmlns="http://www.w3.org/2000/svg"
      viewBox="0 0 1024 1024"
    >
      <defs>
        <style>
          .cls-1 {
            fill: #fff;
          }
          .cls-2 {
            fill: #353535;
          }
          .cls-3 {
            fill: #111;
          }
          .cls-4 {
            fill: #d9ae8e;
          }
          .cls-5 {
            fill: #cda688;
          }
          .cls-6 {
            fill: #282727;
            opacity: 0.43;
          }
          .cls-7 {
            fill: #916d54;
          }
          .cls-8 {
            fill: #515151;
          }
          .cls-11,
          .cls-9 {
            fill: none;
            stroke: #fba61d;
            stroke-miterlimit: 10;
          }
          .cls-9 {
            stroke-width: 6.32px;
          }
          .cls-10 {
            fill: #191919;
          }
          .cls-11 {
            stroke-width: 6.82px;
          }
        </style>
      </defs>
      <rect class="cls-1" width="1024" height="1024" />
      <rect y="984.95" width="1024" height="39.05" />
      <path
        class="cls-1"
        d="M318.17,992.84h4.31a13.64,13.64,0,0,1,8.38,2.46,8.13,8.13,0,0,1,3.31,7,8.41,8.41,0,0,1-3.29,7.17,13.66,13.66,0,0,1-8.48,2.49h-4.23Zm2.6,16.93h.91a18.69,18.69,0,0,0,3.82-.37,9,9,0,0,0,3.13-1.24,6.5,6.5,0,0,0,2.14-2.28,6.89,6.89,0,0,0,.8-3.48,7.31,7.31,0,0,0-.78-3.51,5.75,5.75,0,0,0-2.2-2.28,10.72,10.72,0,0,0-3.11-1.21,17,17,0,0,0-3.8-.38h-.91Z"
      />
      <path
        class="cls-1"
        d="M338,1006.4a4.19,4.19,0,0,0,1.1,2.76,3.62,3.62,0,0,0,2.79,1.17,4,4,0,0,0,2.23-.57,5.89,5.89,0,0,0,1.64-1.74l2.11,1.09a6.53,6.53,0,0,1-2.51,2.38,7.13,7.13,0,0,1-3.49.86,6,6,0,0,1-6.36-6.23,6.6,6.6,0,0,1,1.63-4.61,6,6,0,0,1,4.67-1.78,5.64,5.64,0,0,1,4.51,1.78,6.64,6.64,0,0,1,1.55,4.53v.36Zm7.38-1.73a3.47,3.47,0,0,0-1.15-2.16,3.6,3.6,0,0,0-2.42-.8,3.88,3.88,0,0,0-1.34.22,3.56,3.56,0,0,0-1.11.62,3.49,3.49,0,0,0-.8,1,3.66,3.66,0,0,0-.43,1.17Z"
      />
      <path
        class="cls-1"
        d="M355.18,1002.8a1.78,1.78,0,0,0-1.66-1,1.49,1.49,0,0,0-.94.34,1,1,0,0,0-.41.83,1,1,0,0,0,.31.77,3.46,3.46,0,0,0,.87.6l.56.24.63.26a2.52,2.52,0,0,0,.39.15,1.22,1.22,0,0,1,.25.11,7,7,0,0,1,2.18,1.34,2.64,2.64,0,0,1,.8,2,3.58,3.58,0,0,1-1.32,2.81,4.67,4.67,0,0,1-3.13,1.11,5.44,5.44,0,0,1-2.72-.72,4.53,4.53,0,0,1-1.05-.83,3.71,3.71,0,0,1-.7-1.11l2.12-.88a2.7,2.7,0,0,0,2.35,1.52,2,2,0,0,0,1.08-.3,1.77,1.77,0,0,0,.73-.73,1.27,1.27,0,0,0,.1-1,1.81,1.81,0,0,0-.86-1l-2.43-1.19a9.86,9.86,0,0,1-1.1-.61,3.71,3.71,0,0,1-.78-.64,2.63,2.63,0,0,1-.46-.77,3.28,3.28,0,0,1,1-3.4,3.85,3.85,0,0,1,2.71-1,3.73,3.73,0,0,1,3.54,2.08Z"
      />
      <path
        class="cls-1"
        d="M364.1,994.66a1.41,1.41,0,0,1-.49,1.09,1.73,1.73,0,0,1-1.22.46,1.69,1.69,0,0,1-1.21-.46,1.42,1.42,0,0,1-.5-1.09,1.5,1.5,0,0,1,.5-1.12,1.66,1.66,0,0,1,1.21-.47,1.7,1.7,0,0,1,1.22.47A1.49,1.49,0,0,1,364.1,994.66Zm-.47,17.29h-2.48v-11.86h2.48Z"
      />
      <path
        class="cls-1"
        d="M379.72,1011.72a8.57,8.57,0,0,1-1.38,5.2q-1.38,1.82-4.92,1.82a6.81,6.81,0,0,1-4.48-1.44,5.07,5.07,0,0,1-1.77-3.93h2.49a3,3,0,0,0,1.06,2.47,4.33,4.33,0,0,0,2.81.87,3.32,3.32,0,0,0,2.92-1.14,5.58,5.58,0,0,0,.78-3.22v-2.25h-.05a5.56,5.56,0,0,1-1.92,1.66,5.26,5.26,0,0,1-2.47.59,5.77,5.77,0,0,1-4.54-1.85,6.55,6.55,0,0,1-1.66-4.56,6.15,6.15,0,0,1,1.69-4.36,5.67,5.67,0,0,1,4.39-1.85,5.23,5.23,0,0,1,4.51,2.39h.05v-2h2.49Zm-6.55-1.39a3.9,3.9,0,0,0,3.07-1.25,4.4,4.4,0,0,0,1.14-3.06,4.32,4.32,0,0,0-1.14-3,3.89,3.89,0,0,0-3.07-1.24,3.79,3.79,0,0,0-3,1.27,4.33,4.33,0,0,0-1.11,3,4.4,4.4,0,0,0,1.11,3A3.82,3.82,0,0,0,373.17,1010.33Z"
      />
      <path
        class="cls-1"
        d="M385.44,1001.68h.06a3.68,3.68,0,0,1,1.6-1.44,5.2,5.2,0,0,1,2.3-.51,5.72,5.72,0,0,1,2.15.36,3.47,3.47,0,0,1,1.42,1,4.1,4.1,0,0,1,.78,1.61,9.44,9.44,0,0,1,.23,2.17V1012H391.5v-6.79a4.6,4.6,0,0,0-.56-2.56,2.56,2.56,0,0,0-2.29-.84,4.13,4.13,0,0,0-1.08.12,2.55,2.55,0,0,0-.77.32,2.27,2.27,0,0,0-.56.5,5.88,5.88,0,0,0-.41.61,1.82,1.82,0,0,0-.15.45c-.05.19-.09.38-.13.57s-.06.39-.08.59,0,.35,0,.46V1012H383v-11.86h2.48Z"
      />
      <path
        class="cls-1"
        d="M405.2,990h2.49v12.11h.06a5.33,5.33,0,0,1,4.5-2.33,5.68,5.68,0,0,1,4.4,1.85,6.19,6.19,0,0,1,1.68,4.36,6.59,6.59,0,0,1-1.65,4.56,5.77,5.77,0,0,1-4.54,1.85,5.26,5.26,0,0,1-2.47-.59,5.38,5.38,0,0,1-1.92-1.66h-.06V1012H405.2Zm6.44,20.38a3.89,3.89,0,0,0,3.07-1.25,4.4,4.4,0,0,0,1.14-3.06,4.32,4.32,0,0,0-1.14-3,3.88,3.88,0,0,0-3.07-1.24,3.8,3.8,0,0,0-3,1.27,4.33,4.33,0,0,0-1.11,3,4.4,4.4,0,0,0,1.11,3A3.83,3.83,0,0,0,411.64,1010.33Z"
      />
      <path
        class="cls-1"
        d="M418.69,1000.09h2.91l4.36,7.52,4.06-7.52h2.8l-10.48,18.65h-2.82l5.09-8.82Z"
      />
      <path
        class="cls-1"
        d="M445.36,1007.16,443,1012H440.2L450.15,992l10,19.92h-2.79l-2.38-4.79Zm4.79-9.91-3.71,7.73h7.41Z"
      />
      <path class="cls-1" d="M464.16,1012h-2.49V990h2.49Z" />
      <path class="cls-1" d="M470.29,1012h-2.48V990h2.48Z" />
      <path class="cls-1" d="M479.75,1002.87v1.91H473.7v-1.91Z" />
      <path
        class="cls-1"
        d="M489.42,992.26a4.9,4.9,0,0,0-1.66-.48,1.37,1.37,0,0,0-1.16.46,2.79,2.79,0,0,0-.5,1.16c-.05.33-.08.6-.09.8s0,.46,0,.8v5.09h3.43v2.12H486V1012h-2.48v-9.74h-1.14v-2.12h1.14v-5.78q0-4.66,4.17-4.67a5.06,5.06,0,0,1,1.74.31Z"
      />
      <path
        class="cls-1"
        d="M493.26,1002h.08a3.87,3.87,0,0,1,1.39-1.67,3.8,3.8,0,0,1,2.15-.61,4.1,4.1,0,0,1,2.05.58l-1.13,2.09a2.41,2.41,0,0,0-1.52-.49,2.51,2.51,0,0,0-2.55,1.42,5.37,5.37,0,0,0-.37,1.31,9.31,9.31,0,0,0-.1,1.48V1012h-2.48v-11.86h2.48Z"
      />
      <path
        class="cls-1"
        d="M501.8,1006.4a4.25,4.25,0,0,0,1.11,2.76,3.62,3.62,0,0,0,2.79,1.17,4,4,0,0,0,2.23-.57,6,6,0,0,0,1.64-1.74l2.1,1.09a6.43,6.43,0,0,1-2.5,2.38,7.17,7.17,0,0,1-3.5.86,6,6,0,0,1-6.35-6.23,6.6,6.6,0,0,1,1.63-4.61,6,6,0,0,1,4.67-1.78,5.6,5.6,0,0,1,4.5,1.78,6.64,6.64,0,0,1,1.55,4.53v.36Zm7.39-1.73a3.36,3.36,0,0,0-3.57-3,3.88,3.88,0,0,0-1.34.22,3.45,3.45,0,0,0-1.11.62,3.49,3.49,0,0,0-.8,1,3.43,3.43,0,0,0-.43,1.17Z"
      />
      <path
        class="cls-1"
        d="M515.29,1006.4a4.25,4.25,0,0,0,1.11,2.76,3.59,3.59,0,0,0,2.78,1.17,4,4,0,0,0,2.23-.57,5.89,5.89,0,0,0,1.64-1.74l2.11,1.09a6.57,6.57,0,0,1-2.5,2.38,7.2,7.2,0,0,1-3.5.86,6,6,0,0,1-6.36-6.23,6.64,6.64,0,0,1,1.63-4.61,6,6,0,0,1,4.67-1.78,5.64,5.64,0,0,1,4.51,1.78,6.64,6.64,0,0,1,1.55,4.53v.36Zm7.38-1.73a3.47,3.47,0,0,0-1.15-2.16,3.58,3.58,0,0,0-2.42-.8,3.92,3.92,0,0,0-1.34.22,3.4,3.4,0,0,0-1.1.62,3.32,3.32,0,0,0-.8,1,3.24,3.24,0,0,0-.43,1.17Z"
      />
      <path class="cls-1" d="M533.2,1002.87v1.91h-6.05v-1.91Z" />
      <path
        class="cls-1"
        d="M546.11,1010.1h-.06a5.56,5.56,0,0,1-1.92,1.66,5.23,5.23,0,0,1-2.47.59,5.77,5.77,0,0,1-4.54-1.85,6.59,6.59,0,0,1-1.65-4.56,6.19,6.19,0,0,1,1.68-4.36,5.67,5.67,0,0,1,4.39-1.85,5.34,5.34,0,0,1,4.51,2.33h.06V990h2.49v22h-2.49Zm-4.07.23a3.89,3.89,0,0,0,3.07-1.25,4.39,4.39,0,0,0,1.13-3.06,4.31,4.31,0,0,0-1.13-3,3.88,3.88,0,0,0-3.07-1.24,3.79,3.79,0,0,0-3,1.27,4.32,4.32,0,0,0-1.1,3,4.39,4.39,0,0,0,1.1,3A3.82,3.82,0,0,0,542,1010.33Z"
      />
      <path
        class="cls-1"
        d="M552.66,1001.56a7,7,0,0,1,4.92-1.83,7,7,0,0,1,4.89,1.83,6,6,0,0,1,0,9,7,7,0,0,1-4.89,1.82,7,7,0,0,1-4.92-1.82,6,6,0,0,1,0-9Zm.49,4.48a4,4,0,0,0,1.3,2.92,4.36,4.36,0,0,0,3.13,1.21,4.42,4.42,0,0,0,3.12-1.21A4,4,0,0,0,562,1006a3.88,3.88,0,0,0-1.29-2.91,4.42,4.42,0,0,0-3.12-1.22,4.36,4.36,0,0,0-3.13,1.22A3.9,3.9,0,0,0,553.15,1006Z"
      />
      <path
        class="cls-1"
        d="M571.17,1007.64l3.82-8.21,3.79,8.21,3.75-7.55h2.82l-6.57,12.26-3.79-7.93-3.82,7.93-6.57-12.26h2.81Z"
      />
      <path
        class="cls-1"
        d="M589.08,1001.68h.06a3.68,3.68,0,0,1,1.6-1.44,5.24,5.24,0,0,1,2.3-.51,5.78,5.78,0,0,1,2.16.36,3.43,3.43,0,0,1,1.41,1,4,4,0,0,1,.78,1.61,8.92,8.92,0,0,1,.23,2.17V1012h-2.49v-6.79a4.61,4.61,0,0,0-.55-2.56,2.56,2.56,0,0,0-2.29-.84,4.18,4.18,0,0,0-1.08.12,2.55,2.55,0,0,0-.77.32,2.47,2.47,0,0,0-.56.5,5.88,5.88,0,0,0-.41.61,3.36,3.36,0,0,0-.15.45,5.78,5.78,0,0,0-.12.57c0,.2-.07.39-.09.59s0,.35,0,.46V1012H586.6v-11.86h2.48Z"
      />
      <path class="cls-1" d="M603.65,1012h-2.49V990h2.49Z" />
      <path
        class="cls-1"
        d="M608,1001.56a7,7,0,0,1,4.92-1.83,7,7,0,0,1,4.89,1.83,6,6,0,0,1,0,9,7,7,0,0,1-4.89,1.82,7,7,0,0,1-4.92-1.82,6,6,0,0,1,0-9Zm.5,4.48a4,4,0,0,0,1.29,2.92,4.64,4.64,0,0,0,6.25,0,4,4,0,0,0,1.3-2.92,3.93,3.93,0,0,0-1.3-2.91,4.61,4.61,0,0,0-6.25,0A3.92,3.92,0,0,0,608.52,1006Z"
      />
      <path
        class="cls-1"
        d="M634.25,1012h-2.49v-1.85h0a5.22,5.22,0,0,1-4.4,2.25,5.83,5.83,0,0,1-4.54-1.85,6.59,6.59,0,0,1-1.65-4.56,6.19,6.19,0,0,1,1.68-4.36,5.73,5.73,0,0,1,4.43-1.85,5.34,5.34,0,0,1,4.48,2.33h0v-2h2.49Zm-6.55-1.62a3.88,3.88,0,0,0,3.06-1.25,4.4,4.4,0,0,0,1.14-3.06,4.32,4.32,0,0,0-1.14-3,3.87,3.87,0,0,0-3.06-1.24,3.79,3.79,0,0,0-3,1.27,4.33,4.33,0,0,0-1.11,3,4.4,4.4,0,0,0,1.11,3A3.82,3.82,0,0,0,627.7,1010.33Z"
      />
      <path
        class="cls-1"
        d="M647.12,1010.1h0a5.47,5.47,0,0,1-1.92,1.66,5.23,5.23,0,0,1-2.47.59,5.74,5.74,0,0,1-4.53-1.85,6.56,6.56,0,0,1-1.67-4.56,6.15,6.15,0,0,1,1.69-4.36,5.69,5.69,0,0,1,4.39-1.85,5.34,5.34,0,0,1,4.51,2.33h0V990h2.49v22h-2.49Zm-4.06.23a3.9,3.9,0,0,0,3.07-1.25,4.39,4.39,0,0,0,1.13-3.06,4.31,4.31,0,0,0-1.13-3,3.89,3.89,0,0,0-3.07-1.24,3.79,3.79,0,0,0-3,1.27,4.33,4.33,0,0,0-1.11,3,4.4,4.4,0,0,0,1.11,3A3.82,3.82,0,0,0,643.06,1010.33Z"
      />
      <path
        class="cls-1"
        d="M656.75,1010.88a1.36,1.36,0,0,1-.47,1,1.64,1.64,0,0,1-1.14.43,1.6,1.6,0,0,1-1.13-.43,1.36,1.36,0,0,1,0-2.06,1.56,1.56,0,0,1,1.13-.44,1.6,1.6,0,0,1,1.14.44A1.36,1.36,0,0,1,656.75,1010.88Z"
      />
      <path
        class="cls-1"
        d="M670.35,1003.46a5,5,0,0,0-3.71-1.6,4.27,4.27,0,0,0-3.07,1.24,4.05,4.05,0,0,0-1.24,2.92,3.92,3.92,0,0,0,1.24,3,4.6,4.6,0,0,0,3.23,1.2,4.85,4.85,0,0,0,3.55-1.58v2.92a8.09,8.09,0,0,1-3.57.78,7.13,7.13,0,0,1-4.92-1.8,5.64,5.64,0,0,1-2-4.43,5.87,5.87,0,0,1,2-4.56,7.24,7.24,0,0,1,5.06-1.83,7.12,7.12,0,0,1,3.43.79Z"
      />
      <path
        class="cls-1"
        d="M673.86,1001.56a7,7,0,0,1,4.91-1.83,6.93,6.93,0,0,1,4.89,1.83,6,6,0,0,1,0,9,6.93,6.93,0,0,1-4.89,1.82,7,7,0,0,1-4.91-1.82,6,6,0,0,1,0-9Zm.49,4.48a4,4,0,0,0,1.3,2.92,4.35,4.35,0,0,0,3.12,1.21,4.42,4.42,0,0,0,3.13-1.21,4,4,0,0,0,1.3-2.92,3.93,3.93,0,0,0-1.3-2.91,4.43,4.43,0,0,0-3.13-1.22,4.36,4.36,0,0,0-3.12,1.22A3.9,3.9,0,0,0,674.35,1006Z"
      />
      <path
        class="cls-1"
        d="M690.35,1001.58h.06a4.33,4.33,0,0,1,1.48-1.33,4,4,0,0,1,1.94-.52,4.19,4.19,0,0,1,3.74,2.11,4.36,4.36,0,0,1,1.67-1.54,4.82,4.82,0,0,1,2.31-.57c2.86,0,4.28,1.71,4.28,5.12v7.1h-2.49v-6.72c0-.3,0-.6,0-.9a5,5,0,0,0-.15-.86,2.53,2.53,0,0,0-.33-.77,2.3,2.3,0,0,0-.61-.64,2.44,2.44,0,0,0-1.27-.3,2.75,2.75,0,0,0-1.33.3,2.34,2.34,0,0,0-.81.7,3.65,3.65,0,0,0-.46,1,8.79,8.79,0,0,0-.21,1.14c0,.34,0,.73,0,1.17V1012h-2.48v-6.29c0-.4,0-.74,0-1a8.87,8.87,0,0,0-.16-1,2.68,2.68,0,0,0-.37-1,2,2,0,0,0-.69-.63,2.13,2.13,0,0,0-1.13-.28,2.33,2.33,0,0,0-2.46,1.52,6.22,6.22,0,0,0-.33,1.34,11,11,0,0,0-.09,1.5V1012h-2.48v-11.86h2.48Z"
      />
      <rect class="cls-1" x="260.19" y="1003.41" width="35.21" height="1.58" />
      <rect class="cls-1" x="728.61" y="1003.41" width="35.2" height="1.58" />
      <path
        d="M360.25,135.6s4.61-24.86,76.43-41.43,142.44,6.08,154.09,15.93l-3.64,25.5S512,94.72,443,111.94s-74.46,41.16-68.94,50.37-3.84,0-3.84,0Z"
      />
      <path
        d="M608.87,433.94C602.74,460,595.74,629,593.56,684.9c-.41,11.25-.66,17.92-.66,17.92a23.84,23.84,0,0,1-12,2.42c0-.43,0-7.89,0-20.07a86.92,86.92,0,0,1-12.6-1.37c-.14-42-.76-142.29-3.64-185.39-3.61-54.09-12-54.67-12.39-54.67v0a.07.07,0,0,1,0-.06l41.84-98.11s33.15-33.16,35-11.06S616.25,402.64,608.87,433.94Z"
      />
      <path
        class="cls-2"
        d="M638.33,334.49c-3.67,11.06-29.46,55.25-64.18,81s-61,138.12-64.73,149.16c-1.31,3.9-5.78,26.25-11.14,54.07-.75,3.94-1.54,8-2.32,12.14-1.68,8.76-3.4,17.88-5.1,27v0s0,.06,0,.1c-.33,1.81-.69,3.61-1,5.41-4.14,22.06-8.1,43.54-11,59.29-2.36,12.9-4,21.95-4.39,24.32-1.84,11-5.53,27.61-96.28,45.53-55.72,11-120.56,10-165.3,7.7-28.15-1.47-48.35-3.52-53.34-3.52-6.76,0-10-2.53-11.48-4.93a8.63,8.63,0,0,1-1.41-4.27s-6.77-16.94-12.51-34.26a226.34,226.34,0,0,1-6.92-24.5v0c-.08-.49-.18-1-.27-1.42v-.05a28,28,0,0,1-.56-7.89c1-6.79,8.56-22.22,20.66-38.57a191.4,191.4,0,0,1,15-18A143.6,143.6,0,0,1,189,640.2c29.94-18.91,46.41-43.23,62.09-54.46a38.45,38.45,0,0,1,7.89-4.47c18.41-7.36,119.19,13.81,119.19,13.81,10.19-8.08,20.28-31.63,29-58.33.54-1.64,1.06-3.27,1.57-4.93,7.44-23.7,13.72-49.26,17.86-68.4,9.22-42.36,35.92-86.94,35.92-86.94-34.08-72.17,17.5-147,26.7-158,7.29-8.74,29.6-48.68,37.31-80.93,2-8.48,3.06-16.41,2.53-23.12-2.53-32.23,4.37-28.55,9.9-28.55s12.88,5.54,23.92,7.38,11.06,16.57,11.06,16.57c-3.68,25.79,11,58.93,40.52,103.14S642,323.45,638.33,334.49Z"
      />
      <path
        class="cls-3"
        d="M638.33,334.49c-3.67,11.06-29.46,55.25-64.18,81s-61,138.12-64.73,149.16c-1.31,3.9-5.78,26.25-11.14,54.07-.75,3.94-1.54,8-2.32,12.14L461.55,584l-54.44-47.29c.54-1.64,1.06-3.27,1.57-4.93,7.44-23.7,13.72-49.26,17.86-68.4,9.22-42.36,35.92-86.94,35.92-86.94-34.08-72.17,17.5-147,26.7-158,7.29-8.74,29.6-48.68,37.31-80.93,2-8.48,3.06-16.41,2.53-23.12-2.53-32.23,4.37-28.55,9.9-28.55s12.88,5.54,23.92,7.38,11.06,16.57,11.06,16.57c-3.68,25.79,11,58.93,40.52,103.14S642,323.45,638.33,334.49Z"
      />
      <path
        class="cls-3"
        d="M489.82,663.42c-4.14,22.06-8.1,43.54-11,59.29-2.36,12.9-4,21.95-4.39,24.32-1.84,11-5.53,27.61-96.28,45.53-55.72,11-120.56,10-165.3,7.7L148,791.81a8.63,8.63,0,0,1-1.41-4.27s-6.77-16.94-12.51-34.26a226.34,226.34,0,0,1-6.92-24.5v0c-.08-.49-.18-1-.27-1.42v-.05a28,28,0,0,1-.56-7.89c1-6.79,8.56-22.22,20.66-38.57,11,8.56,31.42,21.4,52.26,20.07C229.75,698.93,444,679.29,489.82,663.42Z"
      />
      <path
        d="M575.72,294l-29.46,49.73L526,380.54S426.55,557.33,410,579.43s-31.83,15.66-31.83,15.66c19.73-15.66,39.19-89.32,48.4-131.68s35.91-86.92,35.91-86.92c-34.07-72.18,17.5-147,26.71-158,7.29-8.75,29.59-48.7,37.29-80.94a86.62,86.62,0,0,0,8.75-13c5.52,11,35,5.53,35,5.53s5.52,33.15,11,55.25S575.72,294,575.72,294Z"
      />
      <path
        d="M498.28,618.75c-2.37,12.34-4.92,25.75-7.42,39.12v0a.3.3,0,0,1,0,.11c-4.49,23.92-8.87,47.66-12,64.69L408.13,736l44.17-40.5c-.91.34-15.53,5.64-41.48,9.78C384,709.53,200,719.4,163.2,719.4s-28.93,16-28.93,16l8.67,13.44-8.82,4.42a224.44,224.44,0,0,1-6.93-24.51v0c-.09-.49-.18-1-.27-1.43v0a27.47,27.47,0,0,1-.55-7.88c1.32-9.28,15-34.77,35.67-56.56a39.73,39.73,0,0,1,1.16,8.67c0,9.21,119.7-51.56,123.39-57.09s-9.21-3.68-28.2-18.45c-4.73-3.68-6.83-7.13-7.33-10.22a37.41,37.41,0,0,1,7.9-4.47c18.42-7.37,119.19,13.81,119.19,13.81,10.81-8.58,21.53-34.57,30.54-63.26l7.9,3L480.47,584Z"
      />
      <path
        d="M490.82,658c-7.9,42.08-15.49,83.57-16.39,89-1.84,11.05-5.52,27.63-96.28,45.53s-205.74,4.2-218.64,4.2-12.89-9.21-12.89-9.21S131.19,749,127.19,728.77c1,3,5.68,9.49,26.8,10.88,27.62,1.85,250.46-12.89,283.61-25.78S485.13,681.16,490.82,658Z"
      />
      <path
        class="cls-4"
        d="M574.42,362.23c.25,6.46.67,12.64,1.31,18.1,0,0-57.09,59.14-70,129.12S480,643.89,480,643.89s-101.29-3.69-132.59-18.42c0,0,49.71-18.41,71.82-99.45,8-29.31,16-58.13,24.85-84.62,15.64-46.79,34-86.4,59.85-108.75,40.52-35,55.27-38.68,71.84-38.68C575.73,294,573.2,331.45,574.42,362.23Z"
      />
      <path
        class="cls-5"
        d="M574.42,362.23c-2-.64-4.06-1.28-6.11-2C519.47,344.08,470.43,402.42,444,441.4c15.64-46.79,34-86.4,59.85-108.75,40.52-35,55.27-38.68,71.84-38.68C575.73,294,573.2,331.45,574.42,362.23Z"
      />
      <path
        class="cls-4"
        d="M590.77,443.74c-2.86,7.67-4.89,30.78-6.34,60.28-2.88,58.83-3.42,143.06-3.52,181.15a86.92,86.92,0,0,1-12.6-1.37c-.12-34.42-.56-108.06-2.3-157.22-.39-10.79-.83-20.4-1.34-28.17-3.61-54.09-12-54.67-12.39-54.67v0a.07.07,0,0,1,0-.06c.85-1.49,14.71-25.46,38.47-28.13C590.77,415.53,601.23,415.8,590.77,443.74Z"
      />
      <path
        d="M347.36,625.47s-76.43-23-87.48-34.07,42.36-7.36,60.78-3.68l60.41,12.1S359.33,622.71,347.36,625.47Z"
      />
      <path
        class="cls-6"
        d="M177,687.17s89.84-38,120.43-29.15,41.63,8,49.92,3.85-15.65-20.74-15.65-26.27S307.77,615.35,298.56,619,149.39,678,177,687.17Z"
      />
      <path
        class="cls-6"
        d="M445.41,658s-16.1,8.89-17.94,18.1-27.62,20.26-27.62,20.26,25.14,0,49.4-9.21,31.22-34.36,31.22-34.36S459.66,645.44,445.41,658Z"
      />
      <path
        class="cls-7"
        d="M580.89,705.24a41.23,41.23,0,0,1-12.54-2.42s0-7.19,0-19a86.92,86.92,0,0,0,12.6,1.37C580.86,697.35,580.89,704.81,580.89,705.24Z"
      />
      <path
        d="M593.56,684.9c-.41,11.25-.66,17.92-.66,17.92a23.84,23.84,0,0,1-12,2.42c0-.43,0-7.89,0-20.07A109.77,109.77,0,0,0,593.56,684.9Z"
      />
      <path
        class="cls-5"
        d="M590.77,443.74c-2.86,7.67-4.89,30.78-6.34,60.28A167.44,167.44,0,0,0,566,526.58c-.39-10.79-.83-20.4-1.34-28.17-3.61-54.09-12-54.67-12.39-54.67v0a.07.07,0,0,1,0-.06c.85-1.49,14.71-25.46,38.47-28.13C590.77,415.53,601.23,415.8,590.77,443.74Z"
      />
      <path
        class="cls-8"
        d="M159.64,689.54S140.91,705.12,143,711.33s9,2.32,10.71-6.09S155.59,692.6,159.64,689.54Z"
      />
      <rect
        class="cls-9"
        x="479.29"
        y="81.87"
        width="12.43"
        height="33.14"
        rx="6.21"
        transform="translate(-9.41 76.94) rotate(-8.97)"
      />
      <path
        d="M485.51,107.82A153,153,0,0,0,443,111.94c-68.94,17.22-74.46,41.16-68.94,50.37s-13.15-17.73-13.15-17.73l-.66-9s4.61-24.86,76.43-41.43a236,236,0,0,1,48.83-5.85"
      />
      <path
        class="cls-10"
        d="M360.25,135.6s1.84,29.47,57.09,29.47,173.75-47.32,173.43-55c0,0,5.93,14.73,4.65,27.48,0,0-84.16,38.54-170.71,51.43,0,0-42.36,1.84-58.93-18.42C365.78,170.59,358.41,154,360.25,135.6Z"
      />
      <path
        d="M530.56,171.55s5-26.83,82.48-44.72,153.73,6.57,166.3,17.2l-3.92,27.52S694.27,127.43,619.87,146s-80.36,44.41-74.4,54.35-4.15,0-4.15,0Z"
      />
      <path
        d="M798.88,493.53c-6.62,28.12-14.18,210.52-16.52,270.83-.45,12.14-.72,19.34-.72,19.34a25.86,25.86,0,0,1-13,2.62c0-.47,0-8.52,0-21.67a94.1,94.1,0,0,1-13.6-1.47c-.15-45.32-.82-153.56-3.93-200.08-3.89-58.37-13-59-13.37-59v0a.1.1,0,0,1,0-.07L783,398.14s35.77-35.8,37.76-11.94S806.83,459.75,798.88,493.53Z"
      />
      <path
        class="cls-2"
        d="M830.67,386.2c-4,11.94-31.79,59.62-69.26,87.45s-65.88,149.07-69.86,161c-1.41,4.21-6.24,28.33-12,58.35-.8,4.25-1.65,8.63-2.5,13.1-1.81,9.46-3.67,19.3-5.5,29.11v0s0,.07,0,.12c-.36,1.94-.74,3.89-1.07,5.83-4.47,23.81-8.74,47-11.87,64-2.55,13.93-4.32,23.7-4.74,26.25-2,11.91-6,29.8-103.91,49.14-60.14,11.84-130.11,10.84-178.4,8.31-30.38-1.59-52.17-3.8-57.56-3.8-7.29,0-10.76-2.73-12.39-5.32a9.32,9.32,0,0,1-1.52-4.6s-7.31-18.29-13.5-37A244.58,244.58,0,0,1,279,811.71v0c-.09-.54-.2-1.05-.29-1.54v0a29.61,29.61,0,0,1-.6-8.51c1.05-7.34,9.23-24,22.29-41.63a206.58,206.58,0,0,1,16.2-19.4,154.76,154.76,0,0,1,29.09-24.44c32.3-20.41,50.08-46.66,67-58.77a41.08,41.08,0,0,1,8.52-4.83c19.87-7.94,128.63,14.91,128.63,14.91,11-8.72,21.89-34.14,31.25-62.95.58-1.77,1.14-3.53,1.7-5.32,8-25.58,14.8-53.16,19.27-73.82,9.95-45.72,38.77-93.83,38.77-93.83C604.09,353.63,659.76,272.92,669.68,261c7.87-9.43,32-52.53,40.27-87.34,2.19-9.14,3.3-17.7,2.72-24.95-2.72-34.78,4.72-30.8,10.69-30.8s13.9,6,25.82,8,11.94,17.88,11.94,17.88c-4,27.83,11.91,63.6,43.73,111.31S834.64,374.28,830.67,386.2Z"
      />
      <path
        class="cls-3"
        d="M830.67,386.2c-4,11.94-31.79,59.62-69.26,87.45s-65.88,149.07-69.86,161c-1.41,4.21-6.24,28.33-12,58.35-.8,4.25-1.65,8.63-2.5,13.1l-37.14-50.57-58.75-51c.58-1.77,1.14-3.53,1.7-5.32,8-25.58,14.8-53.16,19.27-73.82,9.95-45.72,38.77-93.83,38.77-93.83C604.09,353.63,659.76,272.92,669.68,261c7.87-9.43,32-52.53,40.27-87.34,2.19-9.14,3.3-17.7,2.72-24.95-2.72-34.78,4.72-30.8,10.69-30.8s13.9,6,25.82,8,11.94,17.88,11.94,17.88c-4,27.83,11.91,63.6,43.73,111.31S834.64,374.28,830.67,386.2Z"
      />
      <path
        class="cls-3"
        d="M670.4,741.18c-4.47,23.81-8.74,47-11.87,64-2.55,13.93-4.32,23.7-4.74,26.25-2,11.91-6,29.8-103.91,49.14-60.14,11.84-130.11,10.84-178.4,8.31l-70-9.12a9.32,9.32,0,0,1-1.52-4.6s-7.31-18.29-13.5-37A244.58,244.58,0,0,1,279,811.71v0c-.09-.54-.2-1.05-.29-1.54v0a29.61,29.61,0,0,1-.6-8.51c1.05-7.34,9.23-24,22.29-41.63,11.89,9.23,33.91,23.09,56.4,21.66C389.73,779.5,620.9,758.31,670.4,741.18Z"
      />
      <path
        d="M763.1,342.48l-31.8,53.66-21.86,39.75S602.11,626.69,584.23,650.54s-34.35,16.9-34.35,16.9c21.29-16.9,42.3-96.4,52.23-142.11s38.76-93.81,38.76-93.81C604.1,353.63,659.75,272.92,669.69,261c7.87-9.44,31.94-52.55,40.25-87.35a93.91,93.91,0,0,0,9.44-14c6,11.92,37.76,6,37.76,6s6,35.78,11.92,59.63S763.1,342.48,763.1,342.48Z"
      />
      <path
        d="M679.53,693c-2.57,13.32-5.31,27.79-8,42.22v0a.28.28,0,0,1,0,.12c-4.85,25.82-9.58,51.43-13,69.82l-76.28,14.31,47.66-43.71c-1,.36-16.76,6.09-44.76,10.56-28.92,4.61-227.49,15.26-267.24,15.26s-31.22,17.29-31.22,17.29L296,833.39l-9.52,4.77A243.19,243.19,0,0,1,279,811.71v0c-.09-.54-.19-1.06-.29-1.55v0a29.63,29.63,0,0,1-.6-8.51c1.43-10,16.24-37.52,38.5-61a43,43,0,0,1,1.25,9.36c0,9.93,129.19-55.65,133.16-61.62s-9.93-4-30.43-19.91c-5.1-4-7.37-7.69-7.91-11a40.75,40.75,0,0,1,8.53-4.83c19.88-7.95,128.63,14.91,128.63,14.91,11.67-9.27,23.24-37.31,33-68.28l8.53,3.3,68.95,53Z"
      />
      <path
        d="M671.48,735.35c-8.53,45.41-16.72,90.19-17.69,96-2,11.93-6,29.82-103.91,49.14s-222,4.53-235.95,4.53S300,875.13,300,875.13s-16.65-41.62-21-63.42c1.12,3.22,6.13,10.23,28.92,11.74,29.82,2,270.3-13.91,306.08-27.82S665.34,760.33,671.48,735.35Z"
      />
      <path
        class="cls-4"
        d="M761.7,416.13c.27,7,.71,13.64,1.41,19.54,0,0-61.61,63.83-75.54,139.34S659.76,720.1,659.76,720.1s-109.32-4-143.1-19.87c0,0,53.65-19.88,77.51-107.33,8.63-31.64,17.25-62.73,26.82-91.33,16.88-50.5,36.69-93.24,64.59-117.36,43.73-37.76,59.64-41.74,77.53-41.74C763.11,342.47,760.38,382.91,761.7,416.13Z"
      />
      <path
        class="cls-5"
        d="M761.7,416.13c-2.19-.69-4.38-1.38-6.6-2.12C702.39,396.55,649.47,459.5,621,501.57c16.88-50.5,36.69-93.24,64.59-117.36,43.73-37.76,59.64-41.74,77.53-41.74C763.11,342.47,760.38,382.91,761.7,416.13Z"
      />
      <path
        class="cls-4"
        d="M779.34,504.1c-3.09,8.27-5.28,33.22-6.84,65.06-3.11,63.49-3.69,154.38-3.8,195.49a94.1,94.1,0,0,1-13.6-1.47c-.13-37.16-.6-116.63-2.48-169.68-.42-11.65-.89-22-1.45-30.4-3.89-58.37-13-59-13.37-59v0a.1.1,0,0,1,0-.07c.92-1.61,15.88-27.47,41.52-30.36C779.34,473.65,790.63,473.94,779.34,504.1Z"
      />
      <path
        d="M516.65,700.23s-82.48-24.84-94.41-36.77,45.72-8,65.59-4l65.2,13S529.57,697.25,516.65,700.23Z"
      />
      <path
        class="cls-6"
        d="M332.81,766.81s96.95-41.06,130-31.46,44.94,8.65,53.88,4.15-16.89-22.38-16.89-28.34S473.92,689.3,464,693.27,303,756.87,332.81,766.81Z"
      />
      <path
        class="cls-6"
        d="M622.46,735.35s-17.37,9.6-19.35,19.54-29.82,21.86-29.82,21.86,27.14,0,53.32-9.94,33.7-37.08,33.7-37.08S637.85,721.77,622.46,735.35Z"
      />
      <path
        class="cls-7"
        d="M768.67,786.32a44.51,44.51,0,0,1-13.52-2.62s0-7.76,0-20.52a94.1,94.1,0,0,0,13.6,1.47C768.65,777.8,768.67,785.85,768.67,786.32Z"
      />
      <path
        d="M782.36,764.36c-.45,12.14-.72,19.34-.72,19.34a25.86,25.86,0,0,1-13,2.62c0-.47,0-8.52,0-21.67A118.53,118.53,0,0,0,782.36,764.36Z"
      />
      <path
        class="cls-5"
        d="M779.34,504.1c-3.09,8.27-5.28,33.22-6.84,65.06a179.58,179.58,0,0,0-19.88,24.34c-.42-11.65-.89-22-1.45-30.4-3.89-58.37-13-59-13.37-59v0a.1.1,0,0,1,0-.07c.92-1.61,15.88-27.47,41.52-30.36C779.34,473.65,790.63,473.94,779.34,504.1Z"
      />
      <path
        class="cls-8"
        d="M314.06,769.37s-20.22,16.81-18,23.52,9.72,2.5,11.56-6.57S309.69,772.67,314.06,769.37Z"
      />
      <rect
        class="cls-11"
        x="770.02"
        y="140.11"
        width="13.41"
        height="35.77"
        rx="6.71"
        transform="translate(-15.14 123.09) rotate(-8.97)"
      />
      <path
        class="cls-10"
        d="M530.56,171.55s2,31.8,61.62,31.8S779.69,152.28,779.34,144c0,0,6.4,15.9,5,29.66,0,0-90.82,41.59-184.23,55.5,0,0-45.72,2-63.6-19.87C536.53,209.32,528.58,191.43,530.56,171.55Z"
      />
    </svg>