<svg id="Layer_1" data-name="Layer 1" xmlns="http://www.w3.org/2000/svg" viewBox="0 0 1024 1024"><defs><style>.cls-1{fill:#fff;}.cls-2{fill:#171516;}.cls-3{fill:#353a2b;}.cls-4{fill:#485c3f;}.cls-5{fill:#3c4f32;}.cls-6{fill:#1d200d;}.cls-7{fill:#5f7147;}.cls-8{fill:#2f3f27;}.cls-9{fill:#627756;}.cls-10{fill:#5c7051;}</style></defs><rect class="cls-1" width="1024" height="1024"/><rect y="984.95" width="1024" height="39.05"/><path class="cls-1" d="M318.64,992.6H323a13.64,13.64,0,0,1,8.38,2.46,8.15,8.15,0,0,1,3.31,7,8.42,8.42,0,0,1-3.29,7.17,13.72,13.72,0,0,1-8.48,2.48h-4.23Zm2.6,16.93h.91a19.43,19.43,0,0,0,3.82-.36,9.12,9.12,0,0,0,3.13-1.24,6.62,6.62,0,0,0,2.14-2.29,6.87,6.87,0,0,0,.8-3.48,7.34,7.34,0,0,0-.78-3.51,5.72,5.72,0,0,0-2.2-2.27,10.73,10.73,0,0,0-3.11-1.22,17.65,17.65,0,0,0-3.8-.38h-.91Z" transform="translate(-0.47 0.24)"/><path class="cls-1" d="M338.46,1006.16a4.19,4.19,0,0,0,1.1,2.77,3.65,3.65,0,0,0,2.79,1.16,4,4,0,0,0,2.23-.57,5.84,5.84,0,0,0,1.64-1.73l2.11,1.08a6.48,6.48,0,0,1-2.51,2.39,7.25,7.25,0,0,1-3.49.86,6,6,0,0,1-6.36-6.24,6.6,6.6,0,0,1,1.63-4.61,6,6,0,0,1,4.67-1.77,5.63,5.63,0,0,1,4.51,1.77,6.67,6.67,0,0,1,1.55,4.54v.35Zm7.38-1.72a3.5,3.5,0,0,0-1.15-2.17,3.58,3.58,0,0,0-2.42-.79,4.14,4.14,0,0,0-1.34.21,3.56,3.56,0,0,0-1.11.62,3.85,3.85,0,0,0-.8,1,3.8,3.8,0,0,0-.43,1.18Z" transform="translate(-0.47 0.24)"/><path class="cls-1" d="M355.65,1002.56a1.78,1.78,0,0,0-1.66-1,1.44,1.44,0,0,0-.94.35,1,1,0,0,0-.41.82,1.07,1.07,0,0,0,.31.78,3.46,3.46,0,0,0,.87.59l.56.24.63.27c.15.06.28.12.39.15a1.28,1.28,0,0,1,.25.1,7.33,7.33,0,0,1,2.18,1.34,2.66,2.66,0,0,1,.8,2,3.56,3.56,0,0,1-1.32,2.81,4.62,4.62,0,0,1-3.13,1.12,5.37,5.37,0,0,1-1.44-.19,5.79,5.79,0,0,1-1.28-.54,4.23,4.23,0,0,1-1-.83,3.67,3.67,0,0,1-.7-1.1l2.12-.89a2.71,2.71,0,0,0,2.35,1.52,2.13,2.13,0,0,0,1.08-.29,1.89,1.89,0,0,0,.73-.73,1.3,1.3,0,0,0,.1-1,1.79,1.79,0,0,0-.86-1l-2.43-1.19a9.82,9.82,0,0,1-1.1-.62,3.38,3.38,0,0,1-.78-.64,2.35,2.35,0,0,1-.45-.76,2.88,2.88,0,0,1-.15-1,3.12,3.12,0,0,1,1.1-2.43,3.85,3.85,0,0,1,2.71-1,3.73,3.73,0,0,1,3.54,2.08Z" transform="translate(-0.47 0.24)"/><path class="cls-1" d="M364.57,994.43a1.44,1.44,0,0,1-.49,1.09,1.77,1.77,0,0,1-1.22.45,1.73,1.73,0,0,1-1.21-.45,1.45,1.45,0,0,1-.5-1.09,1.5,1.5,0,0,1,.5-1.13,1.7,1.7,0,0,1,1.21-.47,1.74,1.74,0,0,1,1.22.47A1.49,1.49,0,0,1,364.57,994.43Zm-.47,17.28h-2.48V999.85h2.48Z" transform="translate(-0.47 0.24)"/><path class="cls-1" d="M380.19,1011.48a8.53,8.53,0,0,1-1.38,5.2q-1.38,1.83-4.92,1.83a6.81,6.81,0,0,1-4.48-1.45,5,5,0,0,1-1.76-3.93h2.48a3,3,0,0,0,1.06,2.47,4.28,4.28,0,0,0,2.81.88,3.32,3.32,0,0,0,2.92-1.14,5.6,5.6,0,0,0,.78-3.22v-2.26h-.05a5.37,5.37,0,0,1-1.92,1.66,5.27,5.27,0,0,1-2.47.6,5.81,5.81,0,0,1-4.54-1.85,6.62,6.62,0,0,1-1.66-4.56,6.16,6.16,0,0,1,1.69-4.36,5.64,5.64,0,0,1,4.39-1.85,5.22,5.22,0,0,1,4.51,2.38h.05v-2h2.49Zm-6.55-1.39a3.89,3.89,0,0,0,3.07-1.24,4.44,4.44,0,0,0,1.14-3.07,4.28,4.28,0,0,0-1.14-3,3.9,3.9,0,0,0-3.07-1.25,3.82,3.82,0,0,0-3,1.27,4.65,4.65,0,0,0,0,6A3.79,3.79,0,0,0,373.64,1010.09Z" transform="translate(-0.47 0.24)"/><path class="cls-1" d="M385.91,1001.45H386a3.7,3.7,0,0,1,1.6-1.45,5.34,5.34,0,0,1,2.3-.5,5.94,5.94,0,0,1,2.15.35,3.42,3.42,0,0,1,1.42,1,4.06,4.06,0,0,1,.78,1.6,9.51,9.51,0,0,1,.23,2.17v7.07H392v-6.79a4.54,4.54,0,0,0-.56-2.55,2.54,2.54,0,0,0-2.29-.85,4.13,4.13,0,0,0-1.08.12,2.84,2.84,0,0,0-.77.33,2.24,2.24,0,0,0-.56.49,7.19,7.19,0,0,0-.41.61,1.91,1.91,0,0,0-.15.46c0,.18-.09.37-.13.57s-.06.39-.08.58,0,.35,0,.47v6.56h-2.48V999.85h2.48Z" transform="translate(-0.47 0.24)"/><path class="cls-1" d="M405.67,989.72h2.49v12.11h.06a5.33,5.33,0,0,1,4.5-2.33,5.65,5.65,0,0,1,4.4,1.85,6.15,6.15,0,0,1,1.68,4.36,6.61,6.61,0,0,1-1.65,4.56,5.81,5.81,0,0,1-4.54,1.85,5.27,5.27,0,0,1-2.47-.6,5.37,5.37,0,0,1-1.92-1.66h-.06v1.85h-2.49Zm6.45,20.37a3.86,3.86,0,0,0,3.06-1.24,4.44,4.44,0,0,0,1.14-3.07,4.28,4.28,0,0,0-1.14-3,4.26,4.26,0,0,0-6.05,0,4.65,4.65,0,0,0,0,6A3.81,3.81,0,0,0,412.12,1010.09Z" transform="translate(-0.47 0.24)"/><path class="cls-1" d="M419.16,999.85h2.91l4.36,7.53,4.06-7.53h2.8l-10.48,18.66H420l5.09-8.82Z" transform="translate(-0.47 0.24)"/><path class="cls-1" d="M445.84,1006.92l-2.38,4.79h-2.79l9.95-19.92,9.95,19.92h-2.79l-2.38-4.79Zm4.78-9.91-3.71,7.73h7.41Z" transform="translate(-0.47 0.24)"/><path class="cls-1" d="M464.63,1011.71h-2.49v-22h2.49Z" transform="translate(-0.47 0.24)"/><path class="cls-1" d="M470.76,1011.71h-2.48v-22h2.48Z" transform="translate(-0.47 0.24)"/><path class="cls-1" d="M480.22,1002.64v1.9h-6.05v-1.9Z" transform="translate(-0.47 0.24)"/><path class="cls-1" d="M489.89,992a5.08,5.08,0,0,0-1.66-.48,1.37,1.37,0,0,0-1.16.47,2.81,2.81,0,0,0-.5,1.15c-.05.34-.08.61-.09.8s0,.46,0,.8v5.09h3.43V1002h-3.43v9.73H484V1002h-1.13v-2.13H484v-5.78c0-3.1,1.39-4.66,4.17-4.66a5.06,5.06,0,0,1,1.74.31Z" transform="translate(-0.47 0.24)"/><path class="cls-1" d="M493.73,1001.78h.08a3.81,3.81,0,0,1,1.39-1.67,3.74,3.74,0,0,1,2.15-.61,4.1,4.1,0,0,1,2,.58l-1.13,2.08a2.4,2.4,0,0,0-1.52-.48,2.51,2.51,0,0,0-2.55,1.42,5.77,5.77,0,0,0-.37,1.3,9.31,9.31,0,0,0-.1,1.48v5.83h-2.48V999.85h2.48Z" transform="translate(-0.47 0.24)"/><path class="cls-1" d="M502.27,1006.16a4.25,4.25,0,0,0,1.11,2.77,3.65,3.65,0,0,0,2.79,1.16,4,4,0,0,0,2.23-.57,6,6,0,0,0,1.64-1.73l2.1,1.08a6.46,6.46,0,0,1-2.5,2.39,7.28,7.28,0,0,1-3.5.86,6,6,0,0,1-6.35-6.24,6.6,6.6,0,0,1,1.63-4.61,6,6,0,0,1,4.67-1.77,5.6,5.6,0,0,1,4.5,1.77,6.67,6.67,0,0,1,1.55,4.54v.35Zm7.39-1.72a3.34,3.34,0,0,0-3.57-3,4.14,4.14,0,0,0-1.34.21,3.45,3.45,0,0,0-1.11.62,3.64,3.64,0,0,0-.8,1,3.56,3.56,0,0,0-.43,1.18Z" transform="translate(-0.47 0.24)"/><path class="cls-1" d="M515.76,1006.16a4.25,4.25,0,0,0,1.11,2.77,3.63,3.63,0,0,0,2.78,1.16,4,4,0,0,0,2.23-.57,5.84,5.84,0,0,0,1.64-1.73l2.11,1.08a6.6,6.6,0,0,1-2.5,2.39,7.31,7.31,0,0,1-3.5.86,6,6,0,0,1-6.36-6.24,6.6,6.6,0,0,1,1.64-4.61,6,6,0,0,1,4.66-1.77,5.63,5.63,0,0,1,4.51,1.77,6.67,6.67,0,0,1,1.55,4.54v.35Zm7.38-1.72a3.5,3.5,0,0,0-1.15-2.17,3.58,3.58,0,0,0-2.42-.79,4.18,4.18,0,0,0-1.34.21,3.4,3.4,0,0,0-1.1.62,3.46,3.46,0,0,0-.8,1,3.36,3.36,0,0,0-.43,1.18Z" transform="translate(-0.47 0.24)"/><path class="cls-1" d="M533.67,1002.64v1.9h-6v-1.9Z" transform="translate(-0.47 0.24)"/><path class="cls-1" d="M546.58,1009.86h-.06a5.37,5.37,0,0,1-1.92,1.66,5.24,5.24,0,0,1-2.47.6,5.81,5.81,0,0,1-4.54-1.85,6.61,6.61,0,0,1-1.65-4.56,6.15,6.15,0,0,1,1.68-4.36,5.65,5.65,0,0,1,4.4-1.85,5.33,5.33,0,0,1,4.5,2.33h.06V989.72h2.49v22h-2.49Zm-4.07.23a3.88,3.88,0,0,0,3.07-1.24,4.43,4.43,0,0,0,1.13-3.07,4.27,4.27,0,0,0-1.13-3,3.89,3.89,0,0,0-3.07-1.25,3.82,3.82,0,0,0-3,1.27,4.68,4.68,0,0,0,0,6A3.79,3.79,0,0,0,542.51,1010.09Z" transform="translate(-0.47 0.24)"/><path class="cls-1" d="M553.13,1001.32a7.08,7.08,0,0,1,4.92-1.82,7,7,0,0,1,4.89,1.82,6,6,0,0,1,0,9,7,7,0,0,1-4.89,1.83,7,7,0,0,1-4.92-1.83,6,6,0,0,1,0-9Zm.49,4.49a4,4,0,0,0,1.3,2.91,4.36,4.36,0,0,0,3.13,1.22,4.42,4.42,0,0,0,3.12-1.22,3.94,3.94,0,0,0,0-5.83,4.46,4.46,0,0,0-3.12-1.21,4.4,4.4,0,0,0-3.13,1.21A3.94,3.94,0,0,0,553.62,1005.81Z" transform="translate(-0.47 0.24)"/><path class="cls-1" d="M571.64,1007.41l3.82-8.21,3.79,8.21,3.75-7.56h2.82l-6.57,12.27-3.79-7.93-3.82,7.93-6.57-12.27h2.81Z" transform="translate(-0.47 0.24)"/><path class="cls-1" d="M589.55,1001.45h.06a3.67,3.67,0,0,1,1.61-1.45,5.29,5.29,0,0,1,2.29-.5,6,6,0,0,1,2.16.35,3.39,3.39,0,0,1,1.41,1,3.93,3.93,0,0,1,.78,1.6,9,9,0,0,1,.23,2.17v7.07H595.6v-6.79a4.55,4.55,0,0,0-.55-2.55,2.54,2.54,0,0,0-2.29-.85,4.18,4.18,0,0,0-1.08.12,2.84,2.84,0,0,0-.77.33,2.43,2.43,0,0,0-.56.49,7.19,7.19,0,0,0-.41.61,3.56,3.56,0,0,0-.15.46,4.78,4.78,0,0,0-.12.57,5.81,5.81,0,0,0-.09.58c0,.19,0,.35,0,.47v6.56h-2.48V999.85h2.48Z" transform="translate(-0.47 0.24)"/><path class="cls-1" d="M604.12,1011.71h-2.49v-22h2.49Z" transform="translate(-0.47 0.24)"/><path class="cls-1" d="M608.49,1001.32a7.08,7.08,0,0,1,4.92-1.82,7,7,0,0,1,4.89,1.82,6,6,0,0,1,0,9,7,7,0,0,1-4.89,1.83,7,7,0,0,1-4.92-1.83,6,6,0,0,1,0-9Zm.5,4.49a4,4,0,0,0,1.29,2.91,4.61,4.61,0,0,0,6.25,0,3.92,3.92,0,0,0,0-5.83,4.64,4.64,0,0,0-6.25,0A3.93,3.93,0,0,0,609,1005.81Z" transform="translate(-0.47 0.24)"/><path class="cls-1" d="M634.72,1011.71h-2.49v-1.85h-.05a5.2,5.2,0,0,1-4.4,2.26,5.86,5.86,0,0,1-4.54-1.85,6.61,6.61,0,0,1-1.65-4.56,6.15,6.15,0,0,1,1.68-4.36,5.69,5.69,0,0,1,4.43-1.85,5.34,5.34,0,0,1,4.48,2.33h.05v-2h2.49Zm-6.55-1.62a3.87,3.87,0,0,0,3.06-1.24,4.44,4.44,0,0,0,1.14-3.07,4.28,4.28,0,0,0-1.14-3,3.88,3.88,0,0,0-3.06-1.25,3.82,3.82,0,0,0-3,1.27,4.68,4.68,0,0,0,0,6A3.79,3.79,0,0,0,628.17,1010.09Z" transform="translate(-0.47 0.24)"/><path class="cls-1" d="M647.59,1009.86h-.05a5.37,5.37,0,0,1-1.92,1.66,5.24,5.24,0,0,1-2.47.6,5.77,5.77,0,0,1-4.53-1.85,6.57,6.57,0,0,1-1.66-4.56,6.08,6.08,0,0,1,1.69-4.36A5.62,5.62,0,0,1,643,999.5a5.34,5.34,0,0,1,4.51,2.33h.05V989.72h2.5v22h-2.5Zm-4.05.23a3.89,3.89,0,0,0,3.06-1.24,4.44,4.44,0,0,0,1.14-3.07,4.28,4.28,0,0,0-1.14-3,3.89,3.89,0,0,0-3.06-1.25,3.82,3.82,0,0,0-3,1.27,4.68,4.68,0,0,0,0,6A3.79,3.79,0,0,0,643.54,1010.09Z" transform="translate(-0.47 0.24)"/><path class="cls-1" d="M657.22,1010.65a1.37,1.37,0,0,1-.47,1,1.64,1.64,0,0,1-1.14.43,1.6,1.6,0,0,1-1.13-.43,1.37,1.37,0,0,1-.47-1,1.4,1.4,0,0,1,.47-1,1.6,1.6,0,0,1,1.13-.44,1.65,1.65,0,0,1,1.14.44A1.4,1.4,0,0,1,657.22,1010.65Z" transform="translate(-0.47 0.24)"/><path class="cls-1" d="M670.82,1003.22a5,5,0,0,0-3.71-1.59,4.19,4.19,0,0,0-3.06,1.24,4,4,0,0,0-1.25,2.91,3.92,3.92,0,0,0,1.25,3,4.6,4.6,0,0,0,3.23,1.19,4.84,4.84,0,0,0,3.54-1.57v2.91a8,8,0,0,1-3.57.79,7.18,7.18,0,0,1-4.92-1.8,5.65,5.65,0,0,1-2-4.44,5.89,5.89,0,0,1,2-4.56,7.27,7.27,0,0,1,5.06-1.82,7.12,7.12,0,0,1,3.43.78Z" transform="translate(-0.47 0.24)"/><path class="cls-1" d="M674.33,1001.32a7.07,7.07,0,0,1,4.91-1.82,7,7,0,0,1,4.89,1.82,6,6,0,0,1,0,9,6.93,6.93,0,0,1-4.89,1.83,7,7,0,0,1-4.91-1.83,6,6,0,0,1,0-9Zm.49,4.49a3.93,3.93,0,0,0,1.3,2.91,4.36,4.36,0,0,0,3.12,1.22,4.43,4.43,0,0,0,3.13-1.22,3.92,3.92,0,0,0,0-5.83,4.47,4.47,0,0,0-3.13-1.21,4.39,4.39,0,0,0-3.12,1.21A3.9,3.9,0,0,0,674.82,1005.81Z" transform="translate(-0.47 0.24)"/><path class="cls-1" d="M690.82,1001.35h.06a4.36,4.36,0,0,1,1.48-1.34,4,4,0,0,1,1.94-.51,4.18,4.18,0,0,1,3.74,2.1,4.34,4.34,0,0,1,1.67-1.53,4.82,4.82,0,0,1,2.31-.57c2.86,0,4.28,1.71,4.28,5.12v7.09h-2.49V1005a8.77,8.77,0,0,0,0-.9,4.68,4.68,0,0,0-.15-.86,2.7,2.7,0,0,0-.33-.78,2.27,2.27,0,0,0-.61-.63,2.44,2.44,0,0,0-1.27-.31,2.75,2.75,0,0,0-1.33.31,2.22,2.22,0,0,0-.81.69,3.72,3.72,0,0,0-.46,1.06,8.22,8.22,0,0,0-.21,1.14c0,.33,0,.73,0,1.16v5.83h-2.49v-6.28c0-.41,0-.74,0-1a9,9,0,0,0-.16-1,2.62,2.62,0,0,0-.37-1,2,2,0,0,0-.69-.64,2.23,2.23,0,0,0-1.13-.28,2.34,2.34,0,0,0-2.46,1.52,6.3,6.3,0,0,0-.33,1.35,10.73,10.73,0,0,0-.09,1.49v5.83h-2.48V999.85h2.48Z" transform="translate(-0.47 0.24)"/><rect class="cls-1" x="260.19" y="1003.41" width="35.21" height="1.58"/><rect class="cls-1" x="728.61" y="1003.41" width="35.2" height="1.58"/><path class="cls-2" d="M92,758.39s-2,12,6,18,148-16,238-42,120.88-79.14,101.44-100.57S92,758.39,92,758.39Z" transform="translate(-0.47 0.24)"/><path class="cls-3" d="M572,414.37c-6,14-4.4,150-4.4,150a24.55,24.55,0,0,1-12.46,1.54L560,387.27,582,366.37S578,400.37,572,414.37Z" transform="translate(-0.47 0.24)"/><path class="cls-2" d="M560,387.27l-4.92,178.65a16.36,16.36,0,0,1-5.14-1.54s-4-102-4-124-6-34-6-34Z" transform="translate(-0.47 0.24)"/><path class="cls-2" d="M816.82,166.35s-12.56,21.44-5.69,31.72,40.7,69,37.78,80.63-7.77,16.85-7.77,16.85S860,284.36,860,268.36s-28-62-32-70S813.65,172.35,816.82,166.35Z" transform="translate(-0.47 0.24)"/><path class="cls-4" d="M638.05,306.92C632.11,337.5,580,388.37,526,430.37s-76,162-76,162,4,76-58,110-244,60-282,66c-26.48,4.18-22.86-13-18.22-23.8v0A65,65,0,0,1,96,736.39s104-146,146-172c28.11-17.4,72.75-34.54,99.21-44,13.08-4.68,21.72-7.46,21.72-7.46C417.79,373.51,478,314.36,478,314.36c6-42,46-110,62.56-131.08a55.83,55.83,0,0,0,11-44.41l16.08,9.18C595.16,171.75,644,276.36,638.05,306.92Z" transform="translate(-0.47 0.24)"/><path class="cls-2" d="M434,586.38s11-137.95,148-239.49l4-13.33-38,10.33-55.7,43.38L440.7,424.5l-12.59,52.09S427,573.38,434,586.38Z" transform="translate(-0.47 0.24)"/><path class="cls-5" d="M402.41,614.74a166.19,166.19,0,0,1-54.14,22.12C287.57,650.34,155,719.39,127,737.39s-35.22,7.2-35.22,7.2v0A65,65,0,0,1,96,736.39s104-146,146-172c22.69-14,56.17-27.92,82.13-37.71l15.44,8.19S265,553.38,230,578.38c0,0,24.79,11,32.91,23s54.66,34,102.38,22C381.79,619.22,393.79,616.5,402.41,614.74Z" transform="translate(-0.47 0.24)"/><path class="cls-6" d="M487.09,316.87s20.63-73.73,51.26-105.62S560,148.35,560,148.35s66.7,74.05,46.82,115.53-108.84,83-108.84,83Z" transform="translate(-0.47 0.24)"/><path class="cls-2" d="M230,578.38s24,6,38,18,93.08-37.57,95.54-39.79,1.59-39.52,1.59-39.52S276.51,540.56,230,578.38Z" transform="translate(-0.47 0.24)"/><path class="cls-7" d="M268,596.38s40-6,60-26,57-86.85,72.48-116.43,90.66-173.39,158.1-196.49c0,0,33.19-8.06,48.31,6.42,0,0-17,50.88-20.92,69.68,0,0-150,100.81-152,252.82C434,586.38,346,646.38,268,596.38Z" transform="translate(-0.47 0.24)"/><path class="cls-8" d="M518,146.35s-14.35,9.86-25.17,36.93-30.27,71.94-30.27,71.94L444,252.36s13-81,65.52-113.49c0,0,10.65-3.49,13.57,0S518,146.35,518,146.35Z" transform="translate(-0.47 0.24)"/><path class="cls-6" d="M530,128.35l18,2s7.1,2.49,6.55,10.25-5.59,11.75-10.07,11.75-18.31-1-21.39-13.48S530,128.35,530,128.35Z" transform="translate(-0.47 0.24)"/><path class="cls-2" d="M476,148.35l11.11,9.47L456,218.36v18l-4.92,4.26L442,238.36s-6-8,8-30S476,156.35,476,148.35Z" transform="translate(-0.47 0.24)"/><path class="cls-6" d="M444,252.36s4.85,53.59,23.43,73.8S498,337.45,498,337.45l-9.61-5.39s-25.3-42-25.87-76.84S444,240.36,444,252.36Z" transform="translate(-0.47 0.24)"/><path class="cls-4" d="M838,618.38c4,28,28,110-52,166,0,0-66.33,44.2-104,70.52l-.44.3c-11.5,8-20.28,14.36-23.56,17.18-7.76,6.64-17.34,12.07-24.36,15.59a11.61,11.61,0,0,1-15.22-4.58c-5.72-9.81-15.3-27.83-26.43-55-18-44-33.14-102-18.56-143,0,0,6.56-27,8.56-45,.14-1.18.3-2.36.5-3.52,2.86-16.54,12.68-30.88,29.51-36.48,18-6,72-26,72-26s8-97.67,0-150.83c-5.82-38.72-5.28-42.88-4.56-42.3-3.66-7.68-23.86-54-7.44-106.89,18-58,28-82,34-92,5.46-9.11,6-14.89,12-15.85a10.53,10.53,0,0,1,2-.16h58.49s17.48,4,19.5,10l0,0c2,6,54,82,54,98s6.18,79.54-10.92,100.77S825.3,493.51,824.66,513,828,590.38,828,590.38,834,590.38,838,618.38Z" transform="translate(-0.47 0.24)"/><path class="cls-6" d="M687.43,366.37s-17.55-37,0-110,28.7-77.18,46.13-83.09,51.2,3.94,61.32,10,50.4,69.78,46.26,119.93-80.61,78.61-80.61,78.61S733.88,473.37,687.43,366.37Z" transform="translate(-0.47 0.24)"/><path class="cls-7" d="M626,660.38s78.68-57.2,84.34-132.61-15.3-177-14.82-194.21,6.83-77,69.66-76.1S850,306.36,838,352.36s-31.39,69.58-29,125,17,141,17,141-26,74-80,62S626,660.38,626,660.38Z" transform="translate(-0.47 0.24)"/><path class="cls-2" d="M682,586.38s-62,16-76,28-16,32-4,38a95.49,95.49,0,0,0,24,8S678,616.38,682,586.38Z" transform="translate(-0.47 0.24)"/><path class="cls-2" d="M716.21,188.8S670,200.36,646,216.36c0,0,70-24,108-18,20,3.16,46.16,25.27,66.42,45.5,18.22,18.18,31.68,34.84,31.68,34.84s-7.48-30.5-29.79-51.42S772.44,169.24,716.21,188.8Z" transform="translate(-0.47 0.24)"/><path class="cls-4" d="M607.07,278.7S614,338.36,652,362.37s99.83,20.28,124.92-4.87S853,285.09,841,252c0,0,11.18,15,11.09,26.7S800,386.37,722,392.37,594.16,337,607.07,278.7Z" transform="translate(-0.47 0.24)"/><path class="cls-2" d="M687.4,204.72c1.45-.13-43.41,21.83-61.41,52.74s0,80,0,80-24.27-35.64-18.13-66.36S638.81,209.09,687.4,204.72Z" transform="translate(-0.47 0.24)"/><path class="cls-4" d="M798,176.33c-.34-.3-4.74-3.82-22,0-13.27,3-15.84,20-16.27,28.8a6.31,6.31,0,0,1-6.05,6c-8.49.36-23.27-.2-30.87-.54a6.31,6.31,0,0,1-6-5.4c-1.91-13.33,1.15-34.44,1.15-34.44v-4.24a10.53,10.53,0,0,1,2-.16h58.49S796,170.35,798,176.33Z" transform="translate(-0.47 0.24)"/><path class="cls-4" d="M548,332.36c-12,12-38,20-62,10s-28-30-28-30c14,18,34,30,66,8s52-104,47.6-131.56C569,172.23,558.08,158.41,549.8,150a89.87,89.87,0,0,0-9.82-8.76l-2.84-.8-5.72-1.6s1.56-9.52,7.56-9.52c1,0,3.3.7,6.3,2.18,14.2,7,45.5,31.12,49.26,79.71C599.13,270.14,560,320.36,548,332.36Z" transform="translate(-0.47 0.24)"/><path class="cls-8" d="M545.28,131.53c-6.08,3.12-7.72,7.18-8.14,8.94l-5.72-1.6s1.56-9.52,7.56-9.52C540,129.35,542.28,130.05,545.28,131.53Z" transform="translate(-0.47 0.24)"/><path class="cls-4" d="M542,152.35s-13.88-6.07-7.94-15,13.94-7,13.94-7l-28-6s-8.52,2-11.26,10,7.41,13.47,7.41,13.47S538,152.35,542,152.35Z" transform="translate(-0.47 0.24)"/><path class="cls-5" d="M681.55,855.21c-11.5,8-20.28,14.36-23.56,17.18-7.76,6.64-17.34,12.07-24.36,15.59a11.61,11.61,0,0,1-15.22-4.58c-5.72-9.81-15.3-27.83-26.43-55-18-44-33.14-102-18.56-143,0,0,6.56-27,8.56-45,.14-1.18.3-2.36.5-3.52,1.88,10.34,7.54,21.32,22.57,28.44,33.9,16.06,67.6,10.74,92.7,16.38-3-.4-73.58-5.76-90.76,3.7-17.59,9.68-12.25,81-.12,126.53S617,862,626,866.69,642.93,880.37,681.55,855.21Z" transform="translate(-0.47 0.24)"/><path class="cls-9" d="M615.17,845.1s7.82,15.77,30.82,8,87.57-55.3,87.57-55.3S665,855.57,646,861.48,619.34,862.8,615.17,845.1Z" transform="translate(-0.47 0.24)"/><path class="cls-9" d="M97,747.8s17.83-10.67,32.88-5.54,105-22.87,105-22.87S123.13,768.22,97,747.8Z" transform="translate(-0.47 0.24)"/><path class="cls-10" d="M726,203.36h20.36a3.29,3.29,0,0,0,3.27-2.8,53.59,53.59,0,0,1,2.81-11.12,3.31,3.31,0,0,0-2.88-4.57l-24.71-1.31a3.31,3.31,0,0,0-3.47,3.64l1.33,13.18A3.31,3.31,0,0,0,726,203.36Z" transform="translate(-0.47 0.24)"/></svg>