<svg xmlns="http://www.w3.org/2000/svg" viewBox="0 0 1024 1024"><defs><style>.cls-1{isolation:isolate;}.cls-2{fill:#fff;}.cls-3{fill:#361d16;}.cls-4{fill:#5b271d;}.cls-11,.cls-5{opacity:0.57;mix-blend-mode:multiply;}.cls-11,.cls-6{fill:#6d3b25;}.cls-7{fill:#835644;}.cls-8{fill:#936352;}.cls-9{fill:#2d1411;}.cls-10{fill:#603120;}</style></defs><g class="cls-1"><g id="Layer_1" data-name="Layer 1"><rect class="cls-2" width="1024" height="1024"/><rect y="984.95" width="1024" height="39.05"/><path class="cls-2" d="M318.17,992.84h4.31a13.64,13.64,0,0,1,8.38,2.46,8.13,8.13,0,0,1,3.31,7,8.41,8.41,0,0,1-3.29,7.17,13.66,13.66,0,0,1-8.48,2.49h-4.23Zm2.6,16.93h.91a18.69,18.69,0,0,0,3.82-.37,9,9,0,0,0,3.13-1.24,6.5,6.5,0,0,0,2.14-2.28,6.89,6.89,0,0,0,.8-3.48,7.31,7.31,0,0,0-.78-3.51,5.75,5.75,0,0,0-2.2-2.28,10.72,10.72,0,0,0-3.11-1.21,17,17,0,0,0-3.8-.38h-.91Z"/><path class="cls-2" d="M338,1006.4a4.19,4.19,0,0,0,1.1,2.76,3.62,3.62,0,0,0,2.79,1.17,4,4,0,0,0,2.23-.57,5.89,5.89,0,0,0,1.64-1.74l2.11,1.09a6.53,6.53,0,0,1-2.51,2.38,7.13,7.13,0,0,1-3.49.86,6,6,0,0,1-6.36-6.23,6.6,6.6,0,0,1,1.63-4.61,6,6,0,0,1,4.67-1.78,5.64,5.64,0,0,1,4.51,1.78,6.64,6.64,0,0,1,1.55,4.53v.36Zm7.38-1.73a3.47,3.47,0,0,0-1.15-2.16,3.6,3.6,0,0,0-2.42-.8,3.88,3.88,0,0,0-1.34.22,3.56,3.56,0,0,0-1.11.62,3.49,3.49,0,0,0-.8,1,3.66,3.66,0,0,0-.43,1.17Z"/><path class="cls-2" d="M355.18,1002.8a1.78,1.78,0,0,0-1.66-1,1.49,1.49,0,0,0-.94.34,1,1,0,0,0-.41.83,1,1,0,0,0,.31.77,3.46,3.46,0,0,0,.87.6l.56.24.63.26a2.52,2.52,0,0,0,.39.15,1.22,1.22,0,0,1,.25.11,7,7,0,0,1,2.18,1.34,2.64,2.64,0,0,1,.8,2,3.58,3.58,0,0,1-1.32,2.81,4.67,4.67,0,0,1-3.13,1.11,5.44,5.44,0,0,1-2.72-.72,4.53,4.53,0,0,1-1.05-.83,3.71,3.71,0,0,1-.7-1.11l2.12-.88a2.7,2.7,0,0,0,2.35,1.52,2,2,0,0,0,1.08-.3,1.77,1.77,0,0,0,.73-.73,1.27,1.27,0,0,0,.1-1,1.81,1.81,0,0,0-.86-1l-2.43-1.19a9.86,9.86,0,0,1-1.1-.61,3.71,3.71,0,0,1-.78-.64,2.63,2.63,0,0,1-.46-.77,3.28,3.28,0,0,1,1-3.4,3.85,3.85,0,0,1,2.71-1,3.73,3.73,0,0,1,3.54,2.08Z"/><path class="cls-2" d="M364.1,994.66a1.41,1.41,0,0,1-.49,1.09,1.73,1.73,0,0,1-1.22.46,1.69,1.69,0,0,1-1.21-.46,1.42,1.42,0,0,1-.5-1.09,1.5,1.5,0,0,1,.5-1.12,1.66,1.66,0,0,1,1.21-.47,1.7,1.7,0,0,1,1.22.47A1.49,1.49,0,0,1,364.1,994.66Zm-.47,17.29h-2.48v-11.86h2.48Z"/><path class="cls-2" d="M379.72,1011.72a8.57,8.57,0,0,1-1.38,5.2q-1.38,1.82-4.92,1.82a6.81,6.81,0,0,1-4.48-1.44,5.07,5.07,0,0,1-1.77-3.93h2.49a3,3,0,0,0,1.06,2.47,4.33,4.33,0,0,0,2.81.87,3.32,3.32,0,0,0,2.92-1.14,5.58,5.58,0,0,0,.78-3.22v-2.25h-.05a5.56,5.56,0,0,1-1.92,1.66,5.26,5.26,0,0,1-2.47.59,5.77,5.77,0,0,1-4.54-1.85,6.55,6.55,0,0,1-1.66-4.56,6.15,6.15,0,0,1,1.69-4.36,5.67,5.67,0,0,1,4.39-1.85,5.23,5.23,0,0,1,4.51,2.39h.05v-2h2.49Zm-6.55-1.39a3.9,3.9,0,0,0,3.07-1.25,4.4,4.4,0,0,0,1.14-3.06,4.32,4.32,0,0,0-1.14-3,3.89,3.89,0,0,0-3.07-1.24,3.79,3.79,0,0,0-3,1.27,4.33,4.33,0,0,0-1.11,3,4.4,4.4,0,0,0,1.11,3A3.82,3.82,0,0,0,373.17,1010.33Z"/><path class="cls-2" d="M385.44,1001.68h.06a3.68,3.68,0,0,1,1.6-1.44,5.2,5.2,0,0,1,2.3-.51,5.72,5.72,0,0,1,2.15.36,3.47,3.47,0,0,1,1.42,1,4.1,4.1,0,0,1,.78,1.61,9.44,9.44,0,0,1,.23,2.17V1012H391.5v-6.79a4.6,4.6,0,0,0-.56-2.56,2.56,2.56,0,0,0-2.29-.84,4.13,4.13,0,0,0-1.08.12,2.55,2.55,0,0,0-.77.32,2.27,2.27,0,0,0-.56.5,5.88,5.88,0,0,0-.41.61,1.82,1.82,0,0,0-.15.45c-.05.19-.09.38-.13.57s-.06.39-.08.59,0,.35,0,.46V1012H383v-11.86h2.48Z"/><path class="cls-2" d="M405.2,990h2.49v12.11h.06a5.33,5.33,0,0,1,4.5-2.33,5.68,5.68,0,0,1,4.4,1.85,6.19,6.19,0,0,1,1.68,4.36,6.59,6.59,0,0,1-1.65,4.56,5.77,5.77,0,0,1-4.54,1.85,5.26,5.26,0,0,1-2.47-.59,5.38,5.38,0,0,1-1.92-1.66h-.06V1012H405.2Zm6.44,20.38a3.89,3.89,0,0,0,3.07-1.25,4.4,4.4,0,0,0,1.14-3.06,4.32,4.32,0,0,0-1.14-3,3.88,3.88,0,0,0-3.07-1.24,3.8,3.8,0,0,0-3,1.27,4.33,4.33,0,0,0-1.11,3,4.4,4.4,0,0,0,1.11,3A3.83,3.83,0,0,0,411.64,1010.33Z"/><path class="cls-2" d="M418.69,1000.09h2.91l4.36,7.52,4.06-7.52h2.8l-10.48,18.65h-2.82l5.09-8.82Z"/><path class="cls-2" d="M445.36,1007.16,443,1012H440.2L450.15,992l10,19.92h-2.79l-2.38-4.79Zm4.79-9.91-3.71,7.73h7.41Z"/><path class="cls-2" d="M464.16,1012h-2.49V990h2.49Z"/><path class="cls-2" d="M470.29,1012h-2.48V990h2.48Z"/><path class="cls-2" d="M479.75,1002.87v1.91H473.7v-1.91Z"/><path class="cls-2" d="M489.42,992.26a4.9,4.9,0,0,0-1.66-.48,1.37,1.37,0,0,0-1.16.46,2.79,2.79,0,0,0-.5,1.16c-.05.33-.08.6-.09.8s0,.46,0,.8v5.09h3.43v2.12H486V1012h-2.48v-9.74h-1.14v-2.12h1.14v-5.78q0-4.66,4.17-4.67a5.06,5.06,0,0,1,1.74.31Z"/><path class="cls-2" d="M493.26,1002h.08a3.87,3.87,0,0,1,1.39-1.67,3.8,3.8,0,0,1,2.15-.61,4.1,4.1,0,0,1,2.05.58l-1.13,2.09a2.41,2.41,0,0,0-1.52-.49,2.51,2.51,0,0,0-2.55,1.42,5.37,5.37,0,0,0-.37,1.31,9.31,9.31,0,0,0-.1,1.48V1012h-2.48v-11.86h2.48Z"/><path class="cls-2" d="M501.8,1006.4a4.25,4.25,0,0,0,1.11,2.76,3.62,3.62,0,0,0,2.79,1.17,4,4,0,0,0,2.23-.57,6,6,0,0,0,1.64-1.74l2.1,1.09a6.43,6.43,0,0,1-2.5,2.38,7.17,7.17,0,0,1-3.5.86,6,6,0,0,1-6.35-6.23,6.6,6.6,0,0,1,1.63-4.61,6,6,0,0,1,4.67-1.78,5.6,5.6,0,0,1,4.5,1.78,6.64,6.64,0,0,1,1.55,4.53v.36Zm7.39-1.73a3.36,3.36,0,0,0-3.57-3,3.88,3.88,0,0,0-1.34.22,3.45,3.45,0,0,0-1.11.62,3.49,3.49,0,0,0-.8,1,3.43,3.43,0,0,0-.43,1.17Z"/><path class="cls-2" d="M515.29,1006.4a4.25,4.25,0,0,0,1.11,2.76,3.59,3.59,0,0,0,2.78,1.17,4,4,0,0,0,2.23-.57,5.89,5.89,0,0,0,1.64-1.74l2.11,1.09a6.57,6.57,0,0,1-2.5,2.38,7.2,7.2,0,0,1-3.5.86,6,6,0,0,1-6.36-6.23,6.64,6.64,0,0,1,1.63-4.61,6,6,0,0,1,4.67-1.78,5.64,5.64,0,0,1,4.51,1.78,6.64,6.64,0,0,1,1.55,4.53v.36Zm7.38-1.73a3.47,3.47,0,0,0-1.15-2.16,3.58,3.58,0,0,0-2.42-.8,3.92,3.92,0,0,0-1.34.22,3.4,3.4,0,0,0-1.1.62,3.32,3.32,0,0,0-.8,1,3.24,3.24,0,0,0-.43,1.17Z"/><path class="cls-2" d="M533.2,1002.87v1.91h-6.05v-1.91Z"/><path class="cls-2" d="M546.11,1010.1h-.06a5.56,5.56,0,0,1-1.92,1.66,5.23,5.23,0,0,1-2.47.59,5.77,5.77,0,0,1-4.54-1.85,6.59,6.59,0,0,1-1.65-4.56,6.19,6.19,0,0,1,1.68-4.36,5.67,5.67,0,0,1,4.39-1.85,5.34,5.34,0,0,1,4.51,2.33h.06V990h2.49v22h-2.49Zm-4.07.23a3.89,3.89,0,0,0,3.07-1.25,4.39,4.39,0,0,0,1.13-3.06,4.31,4.31,0,0,0-1.13-3,3.88,3.88,0,0,0-3.07-1.24,3.79,3.79,0,0,0-3,1.27,4.32,4.32,0,0,0-1.1,3,4.39,4.39,0,0,0,1.1,3A3.82,3.82,0,0,0,542,1010.33Z"/><path class="cls-2" d="M552.66,1001.56a7,7,0,0,1,4.92-1.83,7,7,0,0,1,4.89,1.83,6,6,0,0,1,0,9,7,7,0,0,1-4.89,1.82,7,7,0,0,1-4.92-1.82,6,6,0,0,1,0-9Zm.49,4.48a4,4,0,0,0,1.3,2.92,4.36,4.36,0,0,0,3.13,1.21,4.42,4.42,0,0,0,3.12-1.21A4,4,0,0,0,562,1006a3.88,3.88,0,0,0-1.29-2.91,4.42,4.42,0,0,0-3.12-1.22,4.36,4.36,0,0,0-3.13,1.22A3.9,3.9,0,0,0,553.15,1006Z"/><path class="cls-2" d="M571.17,1007.64l3.82-8.21,3.79,8.21,3.75-7.55h2.82l-6.57,12.26-3.79-7.93-3.82,7.93-6.57-12.26h2.81Z"/><path class="cls-2" d="M589.08,1001.68h.06a3.68,3.68,0,0,1,1.6-1.44,5.24,5.24,0,0,1,2.3-.51,5.78,5.78,0,0,1,2.16.36,3.43,3.43,0,0,1,1.41,1,4,4,0,0,1,.78,1.61,8.92,8.92,0,0,1,.23,2.17V1012h-2.49v-6.79a4.61,4.61,0,0,0-.55-2.56,2.56,2.56,0,0,0-2.29-.84,4.18,4.18,0,0,0-1.08.12,2.55,2.55,0,0,0-.77.32,2.47,2.47,0,0,0-.56.5,5.88,5.88,0,0,0-.41.61,3.36,3.36,0,0,0-.15.45,5.78,5.78,0,0,0-.12.57c0,.2-.07.39-.09.59s0,.35,0,.46V1012H586.6v-11.86h2.48Z"/><path class="cls-2" d="M603.65,1012h-2.49V990h2.49Z"/><path class="cls-2" d="M608,1001.56a7,7,0,0,1,4.92-1.83,7,7,0,0,1,4.89,1.83,6,6,0,0,1,0,9,7,7,0,0,1-4.89,1.82,7,7,0,0,1-4.92-1.82,6,6,0,0,1,0-9Zm.5,4.48a4,4,0,0,0,1.29,2.92,4.64,4.64,0,0,0,6.25,0,4,4,0,0,0,1.3-2.92,3.93,3.93,0,0,0-1.3-2.91,4.61,4.61,0,0,0-6.25,0A3.92,3.92,0,0,0,608.52,1006Z"/><path class="cls-2" d="M634.25,1012h-2.49v-1.85h0a5.22,5.22,0,0,1-4.4,2.25,5.83,5.83,0,0,1-4.54-1.85,6.59,6.59,0,0,1-1.65-4.56,6.19,6.19,0,0,1,1.68-4.36,5.73,5.73,0,0,1,4.43-1.85,5.34,5.34,0,0,1,4.48,2.33h0v-2h2.49Zm-6.55-1.62a3.88,3.88,0,0,0,3.06-1.25,4.4,4.4,0,0,0,1.14-3.06,4.32,4.32,0,0,0-1.14-3,3.87,3.87,0,0,0-3.06-1.24,3.79,3.79,0,0,0-3,1.27,4.33,4.33,0,0,0-1.11,3,4.4,4.4,0,0,0,1.11,3A3.82,3.82,0,0,0,627.7,1010.33Z"/><path class="cls-2" d="M647.12,1010.1h0a5.47,5.47,0,0,1-1.92,1.66,5.23,5.23,0,0,1-2.47.59,5.74,5.74,0,0,1-4.53-1.85,6.56,6.56,0,0,1-1.67-4.56,6.15,6.15,0,0,1,1.69-4.36,5.69,5.69,0,0,1,4.39-1.85,5.34,5.34,0,0,1,4.51,2.33h0V990h2.49v22h-2.49Zm-4.06.23a3.9,3.9,0,0,0,3.07-1.25,4.39,4.39,0,0,0,1.13-3.06,4.31,4.31,0,0,0-1.13-3,3.89,3.89,0,0,0-3.07-1.24,3.79,3.79,0,0,0-3,1.27,4.33,4.33,0,0,0-1.11,3,4.4,4.4,0,0,0,1.11,3A3.82,3.82,0,0,0,643.06,1010.33Z"/><path class="cls-2" d="M656.75,1010.88a1.36,1.36,0,0,1-.47,1,1.64,1.64,0,0,1-1.14.43,1.6,1.6,0,0,1-1.13-.43,1.36,1.36,0,0,1,0-2.06,1.56,1.56,0,0,1,1.13-.44,1.6,1.6,0,0,1,1.14.44A1.36,1.36,0,0,1,656.75,1010.88Z"/><path class="cls-2" d="M670.35,1003.46a5,5,0,0,0-3.71-1.6,4.27,4.27,0,0,0-3.07,1.24,4.05,4.05,0,0,0-1.24,2.92,3.92,3.92,0,0,0,1.24,3,4.6,4.6,0,0,0,3.23,1.2,4.85,4.85,0,0,0,3.55-1.58v2.92a8.09,8.09,0,0,1-3.57.78,7.13,7.13,0,0,1-4.92-1.8,5.64,5.64,0,0,1-2-4.43,5.87,5.87,0,0,1,2-4.56,7.24,7.24,0,0,1,5.06-1.83,7.12,7.12,0,0,1,3.43.79Z"/><path class="cls-2" d="M673.86,1001.56a7,7,0,0,1,4.91-1.83,6.93,6.93,0,0,1,4.89,1.83,6,6,0,0,1,0,9,6.93,6.93,0,0,1-4.89,1.82,7,7,0,0,1-4.91-1.82,6,6,0,0,1,0-9Zm.49,4.48a4,4,0,0,0,1.3,2.92,4.35,4.35,0,0,0,3.12,1.21,4.42,4.42,0,0,0,3.13-1.21,4,4,0,0,0,1.3-2.92,3.93,3.93,0,0,0-1.3-2.91,4.43,4.43,0,0,0-3.13-1.22,4.36,4.36,0,0,0-3.12,1.22A3.9,3.9,0,0,0,674.35,1006Z"/><path class="cls-2" d="M690.35,1001.58h.06a4.33,4.33,0,0,1,1.48-1.33,4,4,0,0,1,1.94-.52,4.19,4.19,0,0,1,3.74,2.11,4.36,4.36,0,0,1,1.67-1.54,4.82,4.82,0,0,1,2.31-.57c2.86,0,4.28,1.71,4.28,5.12v7.1h-2.49v-6.72c0-.3,0-.6,0-.9a5,5,0,0,0-.15-.86,2.53,2.53,0,0,0-.33-.77,2.3,2.3,0,0,0-.61-.64,2.44,2.44,0,0,0-1.27-.3,2.75,2.75,0,0,0-1.33.3,2.34,2.34,0,0,0-.81.7,3.65,3.65,0,0,0-.46,1,8.79,8.79,0,0,0-.21,1.14c0,.34,0,.73,0,1.17V1012h-2.48v-6.29c0-.4,0-.74,0-1a8.87,8.87,0,0,0-.16-1,2.68,2.68,0,0,0-.37-1,2,2,0,0,0-.69-.63,2.13,2.13,0,0,0-1.13-.28,2.33,2.33,0,0,0-2.46,1.52,6.22,6.22,0,0,0-.33,1.34,11,11,0,0,0-.09,1.5V1012h-2.48v-11.86h2.48Z"/><rect class="cls-2" x="260.19" y="1003.41" width="35.21" height="1.58"/><rect class="cls-2" x="728.61" y="1003.41" width="35.2" height="1.58"/><path class="cls-3" d="M498.68,662.21c-.78.23,17.58,83.6,54.3,97.31,52.6,19.65,117.34,18.7,174.76,26,53.67,6.83,108.64,18.49,162,18.81,22.91.13,69.68,1.41,76.43-9.32,13.36-21.27-74.48-67.06-104.47-78.2C763.41,680.33,498.68,662.21,498.68,662.21Z"/><path class="cls-4" d="M450.83,400.25c-13.22,29.62-14.23,63.88-15.49,95.38-2.42,60.85-2.08,123.1-2.33,184.6,0,11.78-.06,18.88-.06,18.88A32.24,32.24,0,0,1,422.37,701a36.83,36.83,0,0,1-12.46-1.87s.2-6.91.36-18.88c.77-58.58-.32-117.39-4.54-175.87-4-56.06-4.44-128.71-30.91-176.18-23.41-42,2-74,46.49-71.51,3.06,17,4.6,25.52,7.83,42.54C435.59,333,442.56,366.81,450.83,400.25Z"/><path class="cls-3" d="M450.83,400.25c-13.22,29.62-14.23,63.88-15.49,95.38-2.42,60.85-2.08,123.1-2.33,184.6,0,11.78-.06,18.88-.06,18.88A31.85,31.85,0,0,1,422.37,701c-.15-4.77-.36-11.47-.61-19.61-2.08-67.38-4.7-136-4-202.61.42-39.9-11.4-81.58-19.75-120.9-5.15-25.3,8.66-47.79,31.14-58.65C435.59,333,442.56,366.81,450.83,400.25Z"/><g class="cls-5"><path class="cls-6" d="M433,680.23c0,11.78-.06,18.88-.06,18.88A32.24,32.24,0,0,1,422.37,701a36.83,36.83,0,0,1-12.46-1.87s.21-6.91.36-18.88a56.2,56.2,0,0,0,11.49,1.14A52,52,0,0,0,433,680.23Z"/></g><path class="cls-7" d="M965.28,785.07c-1.66,10.72-14.4,8.46-14.4,8.46-69.5,2.7-138.52-7.65-207.33-15.79-58.23-6.89-118.88-8.9-175.73-22.46-48-11.44-65.9-67.53-72.07-110.22-5.6-38.76-11.25-77.89-16.95-116.57-9.19-62.33-42.49-135.08-87.7-178C353.79,315,357.7,265,375.41,221.14c9.54-23.62,21.32-46.2,34.4-68.19s27.46-44,42.3-65.34a29.19,29.19,0,0,1,7.31-6.87c25.44-14.58,47.65,34.25,54.81,53.5,19.5,52.39,51.88,100.22,82.47,146.25,55.07,82.84,83.12,177.18,121.37,265,14.75,33.91,45.88,85.55,91,75.79.62-.13,1.13-.28,1.49-.39,6.17-1.95,13.41,4.89,13.41,4.89,33.39,44,79.68,76.65,118,114.83.3.3.58.6.84.89C961.16,761.46,966.93,774.35,965.28,785.07Z"/><path class="cls-8" d="M809.12,621.32c-5.33,6.75-19.82,16.62-46.21,7.43-54.54-19-105.81-96-143.1-142.06q-5.38-39.82-10.86-79.62Q561,377.51,513.5,347.24c-8.09-62.7-10-139-39.4-194.29-10.92-20.53-21.83-48.31-14.68-72.21C487.75,67,507.07,115,514.23,134.24c19.5,52.39,51.88,100.22,82.47,146.25,55.07,82.84,83.12,177.18,121.37,265C732.82,579.44,762.91,630.4,809.12,621.32Z"/><path class="cls-3" d="M802.9,625c-27.38,16.7-59.44,28.12-89.78,37.94-10.11,3.27-19.53,6-26.69,7.67A165.92,165.92,0,0,1,664.88,674c-28.71,2.68-61-1-84.34-16.22-33.73-21.94-37.81-87.21-42.39-125-7.83-64.68-21-129.44-25.31-194.67-.57-8.6-.91-16.6-1.08-23.65-.29-12.82-1.31-27.14-2.88-42-4.88-46.3-11-99.63-31.81-141.33-16.28-32.63-8.52-45.26-8.52-45.26,27-2.88,41.73,52.87,48.74,71.75,19.22,51.77,52.92,103,87.29,146.26,26.95,33.94,45,77.69,62.17,117.72C675,440.8,680,454.29,680,454.29c8.82,28.29,19.13,56.33,30.4,83.39a327.11,327.11,0,0,0,27.9,52.9C751.8,610.79,777.38,628.72,802.9,625Z"/><path class="cls-9" d="M666.75,421.53c-19.77-19.71-37.69-42.68-48.87-67.93-15.91-36-50.35-81.93-71.58-81.21-8,.28,6.24,41.81,12.38,55-18.31,4.26-27.45,6.38-45.84,10.64-.54-8.63-.91-16.6-1.08-23.65-.29-12.82-1.31-27.14-2.88-42-4.88-46.3-11-99.63-31.81-141.33-16.28-32.63-8.52-45.26-8.52-45.26,27-2.88,41.73,52.87,48.74,71.75,19.22,51.77,52.92,103,87.29,146.26C631.53,337.75,649.63,381.49,666.75,421.53Z"/><path class="cls-6" d="M713.12,662.91c-10.12,3.29-19.59,6-26.69,7.67-31.82,7.59-69,5.14-98.37-8.66a59.51,59.51,0,0,1-7.52-4.14c-33.89-22.63-37.8-87.23-42.39-125-8.8-72.35-24.57-145-26.39-218.32-.16-6.54-.5-13.5-1-20.67-.48-6.9-1.12-14.05-1.88-21.35,29.8,24,54.49,55.08,67.78,90.77,21,56.42,32.84,116.2,48.39,173.8C638,584.83,668.1,637.26,713.12,662.91Z"/><path class="cls-6" d="M965.28,785.07c-1.66,10.72-14.4,8.46-14.4,8.46-69.5,2.7-138.52-7.65-207.33-15.79-58.23-6.89-118.88-8.9-175.73-22.46-48-11.44-65.9-67.53-72.07-110.22-5.6-38.76-11.25-77.89-16.95-116.57-9.19-62.33-42.49-135.16-87.7-178-34.41-32.65-33.72-77.42-19-119.89,1.05-3,2.09-6.31,3.32-9.41,9.36-23.54,21.46-45.68,34.4-68.19,2,68.55,11.95,135.27,43.29,195.79,47,90.87,65.59,188.91,89.84,286.34,12,48.28,81.4,66.87,123.65,78,50,13.18,102.41,24.72,154.07,28.23,40.49,2.75,81.34-11.42,121.33-.68.3.31.58.6.84.89C961.16,761.46,966.93,774.35,965.28,785.07Z"/><path class="cls-6" d="M747.48,663.7s16.68-16.8,30.22-12.88c50.21,14.56,151.56,95.89,151.56,95.89-.1.22-101.06-43.22-151.87-63.5C745.9,670.65,747.48,663.7,747.48,663.7Z"/><path class="cls-8" d="M706.51,680.62s12.77-9.73,35.24,1c37.55,18,118.37,47,118.37,47C860,729,746.68,713.25,706.51,680.62Z"/><path class="cls-4" d="M965.28,785.07c-1.66,10.72-14.4,8.46-14.4,8.46-69.5,2.7-138.52-7.65-207.33-15.79-58.23-6.89-118.88-8.9-175.73-22.46-48-11.44-65.9-67.53-72.07-110.22-5.6-38.76-11.25-77.89-16.95-116.57-9.19-62.33-42.49-135.16-87.7-178-34.41-32.65-34.23-77.17-19-119.89C373.27,269.7,383,311,406.53,342.93,459.72,415,505.87,522.82,511.65,612.21c2.93,45.31,9.06,108.48,59.43,122.94,64.65,18.56,137.12,22.76,204.85,35.2C830.09,780.29,911.25,806.68,965.28,785.07Z"/><path class="cls-8" d="M822.33,637.07s2.07,13.74,13,23c28.07,23.72,85.53,71.17,85.53,71.17S859.16,662.37,822.33,637.07Z"/><path class="cls-10" d="M588.06,661.92a67.26,67.26,0,0,1-7.52-4.14c-33.89-22.63-37.8-87.23-42.39-125-8.8-72.35-24.57-145-26.39-218.32-.16-6.54-.49-13.49-1-20.67,26,22.58,46.61,51.86,54.79,85.57,16.33,67.28,14.68,149.75,47.4,210.79C626.17,614.77,610.73,649.07,588.06,661.92Z"/><path class="cls-8" d="M433,243.4s-3.07,35.46,9,55.81c22.9,38.48,54.47,130.63,54.47,130.63S471.78,290.86,433,243.4Z"/><path class="cls-9" d="M802.9,625c-27.38,16.7-59.44,28.12-89.78,37.94-10.11,3.27-19.53,6-26.69,7.67A164,164,0,0,1,664.88,674L630.29,553.5c11.24,19.34,55.13,75.55,75.43,51.7,12.31-14.46,7.26-47.15,4.69-67.52,8.4,19.59,18.6,39,27.9,52.9C751.8,610.79,777.38,628.72,802.9,625Z"/><path class="cls-3" d="M261.9,766s3.5,79.76,55.36,99.21S624.11,902,684.62,899.82s85.3-8,82.63-11.57,21.09-40.3-108.56-74.87S318.91,876.43,261.9,766Z"/><path class="cls-4" d="M212.45,499s-13,23.77-15.12,97.25c-1.67,56.4-2.21,148.45-2.38,188.19,0,12-.06,19.26-.06,19.26a32.5,32.5,0,0,1-10.79,1.9,37.76,37.76,0,0,1-12.7-1.9s.21-7,.36-19.26c.91-67.25.65-291.25-41.42-358.91C80.64,345.54,172,352.58,172,352.58L184,396Z"/><path class="cls-3" d="M212.45,499s-13,23.77-15.12,97.25c-1.67,56.4-2.21,148.45-2.38,188.19,0,12-.06,19.26-.06,19.26a32.5,32.5,0,0,1-10.79,1.9c-.15-4.87-.36-11.69-.62-20-1.71-56-5.23-178.52-4.09-206.57,1.49-36.65-23.12-123.26-23.12-123.26-7.46-30.66,7-48.94,27.7-59.79Z"/><path class="cls-11" d="M195,784.4c0,12-.06,19.26-.06,19.26a32.5,32.5,0,0,1-10.79,1.9,37.76,37.76,0,0,1-12.7-1.9s.21-7,.36-19.26a57.74,57.74,0,0,0,11.72,1.17A53.54,53.54,0,0,0,195,784.4Z"/><path class="cls-7" d="M766.73,878.21c-2.16,10.8-15.12,8.64-15.12,8.64-127.5,6.48-363-10.8-419.22-25.93s-69.15-82.12-73.48-112.37S252.43,701,241.63,629.7s-56.19-149.1-92.92-181.52S103.33,379,120.61,316.36c6.38-23.12,18-47.69,30.24-69.51a620.9,620.9,0,0,1,43.24-66.62,35.55,35.55,0,0,1,8.06-7c27.74-16.81,55.36,36.83,63.25,54.55,8.64,19.44,25.93,54,95.08,149.1S449.08,558.39,490.13,647c38.71,83.5,100.44,76.78,114.64,73.92.87-.17,1.56-.32,2.06-.45,8.64-2.16,17.28,4.32,17.28,4.32,23.43,27.7,103.58,89,122.4,109.34.28.31.54.59.78.87C764.57,854.44,768.9,867.4,766.73,878.21Z"/><path class="cls-8" d="M604.77,720.91c-8.06,6.94-26.34,16.64-61.69,9.27-51.86-10.8-157.69-143.09-157.69-143.09l-11-81.17-99.28-61s-25.95-156.3-54-198.07c-17-25.26-26.28-57.74-18.95-73.63,27.74-16.81,55.36,36.83,63.25,54.55,8.64,19.44,25.93,54,95.08,149.1S449.08,558.39,490.13,647C528.84,730.49,590.57,723.77,604.77,720.91Z"/><path class="cls-3" d="M596,724.8c-5.56,3.59-69.41,27.49-113.69,41.45-11.35,3.56-21.39,6.48-28.87,8.23a160,160,0,0,1-22.06,3.57c-30.95,2.89-63.36-2.62-86-16.53-28.09-17.29-38.89-90.76-43.22-127.5-3.8-32.37-21-133.48-28.05-198.46-.92-8.79-1.68-16.92-2.2-24.11-.93-13.08-2.77-27.66-5.29-42.83-9.14-55.07-27.21-117.84-43.24-144.1-20.43-33.49-10.9-46.13-10.9-46.13,16.21-12.64,42.14,38.57,57.27,73.15s64.83,108,99.4,149.1c22.48,26.69,48.6,83.52,64.14,120,8.36,19.64,13.66,33.41,13.66,33.41s13.83,43.48,34.14,85c9.74,19.88,21,39.3,32.84,53.31C549.88,734.68,594.14,725.21,596,724.8Z"/><path class="cls-9" d="M433.26,520.66c-20.08-20.31-39.74-44.54-49.88-69.26-25.71-62.67-58.56-73.45-76.71-82.78s14.95,56.09,14.95,56.09l-47.54,10.85c-.92-8.79-1.68-16.92-2.2-24.11-.93-13.08-2.77-27.66-5.29-42.83-9.14-55.07-27.21-117.84-43.24-144.1-20.43-33.49-10.9-46.13-10.9-46.13,16.21-12.64,42.14,38.57,57.27,73.15s64.83,108,99.4,149.1C391.6,427.33,417.72,484.16,433.26,520.66Z"/><path class="cls-6" d="M482.27,766.25c-11.35,3.56-21.39,6.48-28.87,8.23-33.54,7.89-72.48,5-100.38-8.75-2.65-1.3-5.23-2.7-7.67-4.21-28.09-17.29-38.89-90.76-43.22-127.5S276.2,472,271.88,411.45c-.48-6.68-1.19-13.75-2.12-21.07-.86-7.05-1.94-14.33-3.17-21.76,23.23,16.7,56.18,46.87,74.44,92.53,30.25,75.63,41.06,144.78,49.7,177.19C398.47,667.32,426.91,737.75,482.27,766.25Z"/><path class="cls-6" d="M766.73,878.21c-2.16,10.8-15.12,8.64-15.12,8.64-127.5,6.48-363-10.8-419.22-25.93s-69.15-82.12-73.48-112.37S252.43,701,241.63,629.7s-56.19-149.1-92.92-181.52C113.89,417.45,104.3,382.86,118.13,326q1.14-4.69,2.48-9.6c6.38-23.12,18-47.69,30.24-69.51,4.73,49.07,19,132.33,61.6,199.6C277.28,548.66,289.21,662.29,307,738.37s218.49,102,299.65,102c57,0,98.8-16.77,139.84-6.27.28.31.54.59.78.87C764.57,854.44,768.9,867.4,766.73,878.21Z"/><path class="cls-6" d="M522.13,766s18.79-16.4,38.24-14.24,171.9,88.6,171.9,88.6-136.3-45-174.63-56S522.13,766,522.13,766Z"/><path class="cls-8" d="M474.77,784.4s13.66-10.61,39.9,0,140.78,40.86,140.78,40.86S518.84,819.17,474.77,784.4Z"/><path class="cls-4" d="M766.73,878.21c-2.16,10.8-15.12,8.64-15.12,8.64-127.5,6.48-363-10.8-419.22-25.93s-69.15-82.12-73.48-112.37S252.43,701,241.63,629.7s-56.19-149.1-92.92-181.52C113.89,417.45,104.3,382.86,118.13,326c4.28,30.62,15.67,78.14,45.85,114.57C212.45,499,270.8,643.75,275.12,715.06s17.44,112.37,60.59,125.33S726.76,900.9,766.73,878.21Z"/><path class="cls-8" d="M620.21,736a30.66,30.66,0,0,0,13.63,22.26c13,8.64,91.23,67,91.23,67S649.81,748.34,620.21,736Z"/><path class="cls-10" d="M353,765.73c-2.65-1.3-5.23-2.7-7.67-4.21-28.09-17.29-38.89-90.76-43.22-127.5S276.2,472,271.88,411.45c-.48-6.68-1.19-13.75-2.12-21.07,18.67,14.58,48.9,43.88,60.05,87.23,16.62,64.57,26.5,175.06,48.58,214.91C391.34,715.9,377.74,754.17,353,765.73Z"/><path class="cls-8" d="M183.17,339.05s-.61,36,14.34,56.9,57.55,107.16,62.18,133.18C259.69,529.13,216.56,369.31,183.17,339.05Z"/><path class="cls-9" d="M596,724.8c-5.56,3.59-69.41,27.49-113.69,41.45-11.35,3.56-21.39,6.48-28.87,8.23a160,160,0,0,1-22.06,3.57L396.07,655.2c1.88,4.45,49.83,81.4,78.7,52.53,9.66-9.66,10.09-36.71,6.29-68.67,9.74,19.88,21,39.3,32.84,53.31C549.88,734.68,594.14,725.21,596,724.8Z"/></g></g></svg>