<svg id="Layer_1" data-name="Layer 1" xmlns="http://www.w3.org/2000/svg" viewBox="0 0 1024 1024"><defs><style>.cls-1{fill:#fff;}.cls-2{fill:#070707;}.cls-10,.cls-3,.cls-9{fill:none;stroke-linecap:round;stroke-miterlimit:10;stroke-width:8.73px;}.cls-3{stroke:#0f0f0f;}.cls-4{fill:#353535;}.cls-5{fill:#161616;}.cls-6{fill:#282828;}.cls-7{fill:#ffe5ce;}.cls-8{fill:#efcdb4;}.cls-9{stroke:#111;}.cls-10{stroke:#191919;}</style></defs><rect class="cls-1" width="1024" height="1024"/><rect y="984.95" width="1024" height="39.05"/><path class="cls-1" d="M318.64,992.6H323a13.64,13.64,0,0,1,8.38,2.46,8.15,8.15,0,0,1,3.31,7,8.42,8.42,0,0,1-3.29,7.17,13.72,13.72,0,0,1-8.48,2.48h-4.23Zm2.6,16.93h.91a19.43,19.43,0,0,0,3.82-.36,9.12,9.12,0,0,0,3.13-1.24,6.62,6.62,0,0,0,2.14-2.29,6.87,6.87,0,0,0,.8-3.48,7.34,7.34,0,0,0-.78-3.51,5.72,5.72,0,0,0-2.2-2.27,10.73,10.73,0,0,0-3.11-1.22,17.65,17.65,0,0,0-3.8-.38h-.91Z" transform="translate(-0.47 0.24)"/><path class="cls-1" d="M338.46,1006.16a4.19,4.19,0,0,0,1.1,2.77,3.65,3.65,0,0,0,2.79,1.16,4,4,0,0,0,2.23-.57,5.84,5.84,0,0,0,1.64-1.73l2.11,1.08a6.48,6.48,0,0,1-2.51,2.39,7.25,7.25,0,0,1-3.49.86,6,6,0,0,1-6.36-6.24,6.6,6.6,0,0,1,1.63-4.61,6,6,0,0,1,4.67-1.77,5.63,5.63,0,0,1,4.51,1.77,6.67,6.67,0,0,1,1.55,4.54v.35Zm7.38-1.72a3.5,3.5,0,0,0-1.15-2.17,3.58,3.58,0,0,0-2.42-.79,4.14,4.14,0,0,0-1.34.21,3.56,3.56,0,0,0-1.11.62,3.85,3.85,0,0,0-.8,1,3.8,3.8,0,0,0-.43,1.18Z" transform="translate(-0.47 0.24)"/><path class="cls-1" d="M355.65,1002.56a1.78,1.78,0,0,0-1.66-1,1.44,1.44,0,0,0-.94.35,1,1,0,0,0-.41.82,1.07,1.07,0,0,0,.31.78,3.46,3.46,0,0,0,.87.59l.56.24.63.27c.15.06.28.12.39.15a1.28,1.28,0,0,1,.25.1,7.33,7.33,0,0,1,2.18,1.34,2.66,2.66,0,0,1,.8,2,3.56,3.56,0,0,1-1.32,2.81,4.62,4.62,0,0,1-3.13,1.12,5.37,5.37,0,0,1-1.44-.19,5.79,5.79,0,0,1-1.28-.54,4.23,4.23,0,0,1-1-.83,3.67,3.67,0,0,1-.7-1.1l2.12-.89a2.71,2.71,0,0,0,2.35,1.52,2.13,2.13,0,0,0,1.08-.29,1.89,1.89,0,0,0,.73-.73,1.3,1.3,0,0,0,.1-1,1.79,1.79,0,0,0-.86-1l-2.43-1.19a9.82,9.82,0,0,1-1.1-.62,3.38,3.38,0,0,1-.78-.64,2.35,2.35,0,0,1-.45-.76,2.88,2.88,0,0,1-.15-1,3.12,3.12,0,0,1,1.1-2.43,3.85,3.85,0,0,1,2.71-1,3.73,3.73,0,0,1,3.54,2.08Z" transform="translate(-0.47 0.24)"/><path class="cls-1" d="M364.57,994.43a1.44,1.44,0,0,1-.49,1.09,1.77,1.77,0,0,1-1.22.45,1.73,1.73,0,0,1-1.21-.45,1.45,1.45,0,0,1-.5-1.09,1.5,1.5,0,0,1,.5-1.13,1.7,1.7,0,0,1,1.21-.47,1.74,1.74,0,0,1,1.22.47A1.49,1.49,0,0,1,364.57,994.43Zm-.47,17.28h-2.48V999.85h2.48Z" transform="translate(-0.47 0.24)"/><path class="cls-1" d="M380.19,1011.48a8.53,8.53,0,0,1-1.38,5.2q-1.38,1.83-4.92,1.83a6.81,6.81,0,0,1-4.48-1.45,5,5,0,0,1-1.76-3.93h2.48a3,3,0,0,0,1.06,2.47,4.28,4.28,0,0,0,2.81.88,3.32,3.32,0,0,0,2.92-1.14,5.6,5.6,0,0,0,.78-3.22v-2.26h-.05a5.37,5.37,0,0,1-1.92,1.66,5.27,5.27,0,0,1-2.47.6,5.81,5.81,0,0,1-4.54-1.85,6.62,6.62,0,0,1-1.66-4.56,6.16,6.16,0,0,1,1.69-4.36,5.64,5.64,0,0,1,4.39-1.85,5.22,5.22,0,0,1,4.51,2.38h.05v-2h2.49Zm-6.55-1.39a3.89,3.89,0,0,0,3.07-1.24,4.44,4.44,0,0,0,1.14-3.07,4.28,4.28,0,0,0-1.14-3,3.9,3.9,0,0,0-3.07-1.25,3.82,3.82,0,0,0-3,1.27,4.65,4.65,0,0,0,0,6A3.79,3.79,0,0,0,373.64,1010.09Z" transform="translate(-0.47 0.24)"/><path class="cls-1" d="M385.91,1001.45H386a3.7,3.7,0,0,1,1.6-1.45,5.34,5.34,0,0,1,2.3-.5,5.94,5.94,0,0,1,2.15.35,3.42,3.42,0,0,1,1.42,1,4.06,4.06,0,0,1,.78,1.6,9.51,9.51,0,0,1,.23,2.17v7.07H392v-6.79a4.54,4.54,0,0,0-.56-2.55,2.54,2.54,0,0,0-2.29-.85,4.13,4.13,0,0,0-1.08.12,2.84,2.84,0,0,0-.77.33,2.24,2.24,0,0,0-.56.49,7.19,7.19,0,0,0-.41.61,1.91,1.91,0,0,0-.15.46c0,.18-.09.37-.13.57s-.06.39-.08.58,0,.35,0,.47v6.56h-2.48V999.85h2.48Z" transform="translate(-0.47 0.24)"/><path class="cls-1" d="M405.67,989.72h2.49v12.11h.06a5.33,5.33,0,0,1,4.5-2.33,5.65,5.65,0,0,1,4.4,1.85,6.15,6.15,0,0,1,1.68,4.36,6.61,6.61,0,0,1-1.65,4.56,5.81,5.81,0,0,1-4.54,1.85,5.27,5.27,0,0,1-2.47-.6,5.37,5.37,0,0,1-1.92-1.66h-.06v1.85h-2.49Zm6.45,20.37a3.86,3.86,0,0,0,3.06-1.24,4.44,4.44,0,0,0,1.14-3.07,4.28,4.28,0,0,0-1.14-3,4.26,4.26,0,0,0-6.05,0,4.65,4.65,0,0,0,0,6A3.81,3.81,0,0,0,412.12,1010.09Z" transform="translate(-0.47 0.24)"/><path class="cls-1" d="M419.16,999.85h2.91l4.36,7.53,4.06-7.53h2.8l-10.48,18.66H420l5.09-8.82Z" transform="translate(-0.47 0.24)"/><path class="cls-1" d="M445.84,1006.92l-2.38,4.79h-2.79l9.95-19.92,9.95,19.92h-2.79l-2.38-4.79Zm4.78-9.91-3.71,7.73h7.41Z" transform="translate(-0.47 0.24)"/><path class="cls-1" d="M464.63,1011.71h-2.49v-22h2.49Z" transform="translate(-0.47 0.24)"/><path class="cls-1" d="M470.76,1011.71h-2.48v-22h2.48Z" transform="translate(-0.47 0.24)"/><path class="cls-1" d="M480.22,1002.64v1.9h-6.05v-1.9Z" transform="translate(-0.47 0.24)"/><path class="cls-1" d="M489.89,992a5.08,5.08,0,0,0-1.66-.48,1.37,1.37,0,0,0-1.16.47,2.81,2.81,0,0,0-.5,1.15c-.05.34-.08.61-.09.8s0,.46,0,.8v5.09h3.43V1002h-3.43v9.73H484V1002h-1.13v-2.13H484v-5.78c0-3.1,1.39-4.66,4.17-4.66a5.06,5.06,0,0,1,1.74.31Z" transform="translate(-0.47 0.24)"/><path class="cls-1" d="M493.73,1001.78h.08a3.81,3.81,0,0,1,1.39-1.67,3.74,3.74,0,0,1,2.15-.61,4.1,4.1,0,0,1,2,.58l-1.13,2.08a2.4,2.4,0,0,0-1.52-.48,2.51,2.51,0,0,0-2.55,1.42,5.77,5.77,0,0,0-.37,1.3,9.31,9.31,0,0,0-.1,1.48v5.83h-2.48V999.85h2.48Z" transform="translate(-0.47 0.24)"/><path class="cls-1" d="M502.27,1006.16a4.25,4.25,0,0,0,1.11,2.77,3.65,3.65,0,0,0,2.79,1.16,4,4,0,0,0,2.23-.57,6,6,0,0,0,1.64-1.73l2.1,1.08a6.46,6.46,0,0,1-2.5,2.39,7.28,7.28,0,0,1-3.5.86,6,6,0,0,1-6.35-6.24,6.6,6.6,0,0,1,1.63-4.61,6,6,0,0,1,4.67-1.77,5.6,5.6,0,0,1,4.5,1.77,6.67,6.67,0,0,1,1.55,4.54v.35Zm7.39-1.72a3.34,3.34,0,0,0-3.57-3,4.14,4.14,0,0,0-1.34.21,3.45,3.45,0,0,0-1.11.62,3.64,3.64,0,0,0-.8,1,3.56,3.56,0,0,0-.43,1.18Z" transform="translate(-0.47 0.24)"/><path class="cls-1" d="M515.76,1006.16a4.25,4.25,0,0,0,1.11,2.77,3.63,3.63,0,0,0,2.78,1.16,4,4,0,0,0,2.23-.57,5.84,5.84,0,0,0,1.64-1.73l2.11,1.08a6.6,6.6,0,0,1-2.5,2.39,7.31,7.31,0,0,1-3.5.86,6,6,0,0,1-6.36-6.24,6.6,6.6,0,0,1,1.64-4.61,6,6,0,0,1,4.66-1.77,5.63,5.63,0,0,1,4.51,1.77,6.67,6.67,0,0,1,1.55,4.54v.35Zm7.38-1.72a3.5,3.5,0,0,0-1.15-2.17,3.58,3.58,0,0,0-2.42-.79,4.18,4.18,0,0,0-1.34.21,3.4,3.4,0,0,0-1.1.62,3.46,3.46,0,0,0-.8,1,3.36,3.36,0,0,0-.43,1.18Z" transform="translate(-0.47 0.24)"/><path class="cls-1" d="M533.67,1002.64v1.9h-6v-1.9Z" transform="translate(-0.47 0.24)"/><path class="cls-1" d="M546.58,1009.86h-.06a5.37,5.37,0,0,1-1.92,1.66,5.24,5.24,0,0,1-2.47.6,5.81,5.81,0,0,1-4.54-1.85,6.61,6.61,0,0,1-1.65-4.56,6.15,6.15,0,0,1,1.68-4.36,5.65,5.65,0,0,1,4.4-1.85,5.33,5.33,0,0,1,4.5,2.33h.06V989.72h2.49v22h-2.49Zm-4.07.23a3.88,3.88,0,0,0,3.07-1.24,4.43,4.43,0,0,0,1.13-3.07,4.27,4.27,0,0,0-1.13-3,3.89,3.89,0,0,0-3.07-1.25,3.82,3.82,0,0,0-3,1.27,4.68,4.68,0,0,0,0,6A3.79,3.79,0,0,0,542.51,1010.09Z" transform="translate(-0.47 0.24)"/><path class="cls-1" d="M553.13,1001.32a7.08,7.08,0,0,1,4.92-1.82,7,7,0,0,1,4.89,1.82,6,6,0,0,1,0,9,7,7,0,0,1-4.89,1.83,7,7,0,0,1-4.92-1.83,6,6,0,0,1,0-9Zm.49,4.49a4,4,0,0,0,1.3,2.91,4.36,4.36,0,0,0,3.13,1.22,4.42,4.42,0,0,0,3.12-1.22,3.94,3.94,0,0,0,0-5.83,4.46,4.46,0,0,0-3.12-1.21,4.4,4.4,0,0,0-3.13,1.21A3.94,3.94,0,0,0,553.62,1005.81Z" transform="translate(-0.47 0.24)"/><path class="cls-1" d="M571.64,1007.41l3.82-8.21,3.79,8.21,3.75-7.56h2.82l-6.57,12.27-3.79-7.93-3.82,7.93-6.57-12.27h2.81Z" transform="translate(-0.47 0.24)"/><path class="cls-1" d="M589.55,1001.45h.06a3.67,3.67,0,0,1,1.61-1.45,5.29,5.29,0,0,1,2.29-.5,6,6,0,0,1,2.16.35,3.39,3.39,0,0,1,1.41,1,3.93,3.93,0,0,1,.78,1.6,9,9,0,0,1,.23,2.17v7.07H595.6v-6.79a4.55,4.55,0,0,0-.55-2.55,2.54,2.54,0,0,0-2.29-.85,4.18,4.18,0,0,0-1.08.12,2.84,2.84,0,0,0-.77.33,2.43,2.43,0,0,0-.56.49,7.19,7.19,0,0,0-.41.61,3.56,3.56,0,0,0-.15.46,4.78,4.78,0,0,0-.12.57,5.81,5.81,0,0,0-.09.58c0,.19,0,.35,0,.47v6.56h-2.48V999.85h2.48Z" transform="translate(-0.47 0.24)"/><path class="cls-1" d="M604.12,1011.71h-2.49v-22h2.49Z" transform="translate(-0.47 0.24)"/><path class="cls-1" d="M608.49,1001.32a7.08,7.08,0,0,1,4.92-1.82,7,7,0,0,1,4.89,1.82,6,6,0,0,1,0,9,7,7,0,0,1-4.89,1.83,7,7,0,0,1-4.92-1.83,6,6,0,0,1,0-9Zm.5,4.49a4,4,0,0,0,1.29,2.91,4.61,4.61,0,0,0,6.25,0,3.92,3.92,0,0,0,0-5.83,4.64,4.64,0,0,0-6.25,0A3.93,3.93,0,0,0,609,1005.81Z" transform="translate(-0.47 0.24)"/><path class="cls-1" d="M634.72,1011.71h-2.49v-1.85h-.05a5.2,5.2,0,0,1-4.4,2.26,5.86,5.86,0,0,1-4.54-1.85,6.61,6.61,0,0,1-1.65-4.56,6.15,6.15,0,0,1,1.68-4.36,5.69,5.69,0,0,1,4.43-1.85,5.34,5.34,0,0,1,4.48,2.33h.05v-2h2.49Zm-6.55-1.62a3.87,3.87,0,0,0,3.06-1.24,4.44,4.44,0,0,0,1.14-3.07,4.28,4.28,0,0,0-1.14-3,3.88,3.88,0,0,0-3.06-1.25,3.82,3.82,0,0,0-3,1.27,4.68,4.68,0,0,0,0,6A3.79,3.79,0,0,0,628.17,1010.09Z" transform="translate(-0.47 0.24)"/><path class="cls-1" d="M647.59,1009.86h-.05a5.37,5.37,0,0,1-1.92,1.66,5.24,5.24,0,0,1-2.47.6,5.77,5.77,0,0,1-4.53-1.85,6.57,6.57,0,0,1-1.66-4.56,6.08,6.08,0,0,1,1.69-4.36A5.62,5.62,0,0,1,643,999.5a5.34,5.34,0,0,1,4.51,2.33h.05V989.72h2.5v22h-2.5Zm-4.05.23a3.89,3.89,0,0,0,3.06-1.24,4.44,4.44,0,0,0,1.14-3.07,4.28,4.28,0,0,0-1.14-3,3.89,3.89,0,0,0-3.06-1.25,3.82,3.82,0,0,0-3,1.27,4.68,4.68,0,0,0,0,6A3.79,3.79,0,0,0,643.54,1010.09Z" transform="translate(-0.47 0.24)"/><path class="cls-1" d="M657.22,1010.65a1.37,1.37,0,0,1-.47,1,1.64,1.64,0,0,1-1.14.43,1.6,1.6,0,0,1-1.13-.43,1.37,1.37,0,0,1-.47-1,1.4,1.4,0,0,1,.47-1,1.6,1.6,0,0,1,1.13-.44,1.65,1.65,0,0,1,1.14.44A1.4,1.4,0,0,1,657.22,1010.65Z" transform="translate(-0.47 0.24)"/><path class="cls-1" d="M670.82,1003.22a5,5,0,0,0-3.71-1.59,4.19,4.19,0,0,0-3.06,1.24,4,4,0,0,0-1.25,2.91,3.92,3.92,0,0,0,1.25,3,4.6,4.6,0,0,0,3.23,1.19,4.84,4.84,0,0,0,3.54-1.57v2.91a8,8,0,0,1-3.57.79,7.18,7.18,0,0,1-4.92-1.8,5.65,5.65,0,0,1-2-4.44,5.89,5.89,0,0,1,2-4.56,7.27,7.27,0,0,1,5.06-1.82,7.12,7.12,0,0,1,3.43.78Z" transform="translate(-0.47 0.24)"/><path class="cls-1" d="M674.33,1001.32a7.07,7.07,0,0,1,4.91-1.82,7,7,0,0,1,4.89,1.82,6,6,0,0,1,0,9,6.93,6.93,0,0,1-4.89,1.83,7,7,0,0,1-4.91-1.83,6,6,0,0,1,0-9Zm.49,4.49a3.93,3.93,0,0,0,1.3,2.91,4.36,4.36,0,0,0,3.12,1.22,4.43,4.43,0,0,0,3.13-1.22,3.92,3.92,0,0,0,0-5.83,4.47,4.47,0,0,0-3.13-1.21,4.39,4.39,0,0,0-3.12,1.21A3.9,3.9,0,0,0,674.82,1005.81Z" transform="translate(-0.47 0.24)"/><path class="cls-1" d="M690.82,1001.35h.06a4.36,4.36,0,0,1,1.48-1.34,4,4,0,0,1,1.94-.51,4.18,4.18,0,0,1,3.74,2.1,4.34,4.34,0,0,1,1.67-1.53,4.82,4.82,0,0,1,2.31-.57c2.86,0,4.28,1.71,4.28,5.12v7.09h-2.49V1005a8.77,8.77,0,0,0,0-.9,4.68,4.68,0,0,0-.15-.86,2.7,2.7,0,0,0-.33-.78,2.27,2.27,0,0,0-.61-.63,2.44,2.44,0,0,0-1.27-.31,2.75,2.75,0,0,0-1.33.31,2.22,2.22,0,0,0-.81.69,3.72,3.72,0,0,0-.46,1.06,8.22,8.22,0,0,0-.21,1.14c0,.33,0,.73,0,1.16v5.83h-2.49v-6.28c0-.41,0-.74,0-1a9,9,0,0,0-.16-1,2.62,2.62,0,0,0-.37-1,2,2,0,0,0-.69-.64,2.23,2.23,0,0,0-1.13-.28,2.34,2.34,0,0,0-2.46,1.52,6.3,6.3,0,0,0-.33,1.35,10.73,10.73,0,0,0-.09,1.49v5.83h-2.48V999.85h2.48Z" transform="translate(-0.47 0.24)"/><rect class="cls-1" x="260.19" y="1003.41" width="35.21" height="1.58"/><rect class="cls-1" x="728.61" y="1003.41" width="35.2" height="1.58"/><path class="cls-2" d="M411.43,213.75s-12.17.18-10.6-11.63,13.63-12.91,13.63-12.91S427,202.26,411.43,213.75Z" transform="translate(-0.47 0.24)"/><path class="cls-3" d="M231.06,91s45.84,17.46,69.84,58.93S390.79,202.69,407,194.86" transform="translate(-0.47 0.24)"/><path class="cls-3" d="M335.83,248.14s39.28-76.39,63.29-76.39,21.95,13.4,15.34,20.89c0,0-2.25,9.67-26.61,4.38s-71.67,31.48-95.68,79.5-72,80.75-72,80.75" transform="translate(-0.47 0.24)"/><path class="cls-2" d="M371.76,309.54s-22.84-24.29-22.84-59.21c0,0,3.2-18.13,11.42-28.71,0,0-2.15,62.31,29.23,77.16Z" transform="translate(-0.47 0.24)"/><path class="cls-4" d="M450.41,416.92c-2.86,19.8-2,41-1,53.28l-13.16,9.29-.17-.13-9.8-7.83a303.13,303.13,0,0,0-.81-51.77l9.6-19.71,5.83-11.94S454.77,386.74,450.41,416.92Z" transform="translate(-0.47 0.24)"/><path class="cls-5" d="M450.41,416.92c-2.86,19.8-2,41-1,53.28l-13.16,9.29-.17-.13c.3-18.77.7-58.23-1-79.31l5.83-11.94S454.77,386.74,450.41,416.92Z" transform="translate(-0.47 0.24)"/><path class="cls-2" d="M534.72,361.85c-.28-2.4,1.9-50.41-28.66-96.25S426.7,191.89,411.82,208c0,0-4-14.43,13.49-21S493,215.41,525.71,270s50.2,106.94,41.47,144S534.72,361.85,534.72,361.85Z" transform="translate(-0.47 0.24)"/><path class="cls-6" d="M968.57,722.89A14.8,14.8,0,0,1,953,733l-148-13.47C656.66,708.66,597.73,669.37,571.54,641c-13.31-14.4-25.29-37.67-33.87-57.07a0,0,0,0,0,0,0v0c-8.3-18.77-13.41-33.91-13.41-33.91-8-21.19-31.27-53-31.27-53-30.56-56.74-76.39-69.84-113.49-117.61C357,350.33,361.78,327.5,369,314a49.38,49.38,0,0,1,10.44-13.51s43.65-34.92,96.07,0c20.63,13.73,44.59,41.65,66.09,70.48,33.17,44.44,60.46,91,60.46,91,67.66-28.37,128.77,8.73,128.77,8.73C788,516.14,911.6,649.19,965.45,708A14.59,14.59,0,0,1,968.57,722.89Z" transform="translate(-0.47 0.24)"/><path class="cls-2" d="M604.8,479.49V498.9l-10.34,29.7-43.74,31.8S539.89,554.79,526.8,533s-21.54-57.12-85-105-68.62-65.57-72.57-84c-1.83-8.55-3.08-19.66-.2-30a49.38,49.38,0,0,1,10.44-13.51s43.65-34.92,96.07,0c20.63,13.73,44.59,41.65,66.09,70.48C571.21,419.82,604.8,479.49,604.8,479.49Z" transform="translate(-0.47 0.24)"/><path class="cls-2" d="M784.72,550s-32.93-67.86-72.31-78.44-67.85-20-108.18,0,31.7,65.8,31.7,65.8l23,12.64,29.45,10.42Z" transform="translate(-0.47 0.24)"/><path class="cls-2" d="M488.88,489.76s-16.12-26.9-40.39-45.32C448.49,444.44,457.5,481.48,488.88,489.76Z" transform="translate(-0.47 0.24)"/><path class="cls-7" d="M803.29,602a245.25,245.25,0,0,1-27.89-.2c-49.66-2.87-119.63-16.94-168.24-27.9-33.22-7.48-56.44-13.5-56.44-13.5-3.47-19.55-19-44.88-38.2-69.25-23.56-29.93-52.7-58.4-72-72.9-35-26.32-58.87-47.9-67.62-78.45s36.12-62,90.65-38c47.37,20.85,103,119.51,123.36,154.25a116.85,116.85,0,0,0,6.43,10.31c8.75,10.91,32.74,61.11,98.22,63.29S784.71,550,784.71,550c8.25,11.11,17.9,38.1,21.29,48A3,3,0,0,1,803.29,602Z" transform="translate(-0.47 0.24)"/><path class="cls-8" d="M803.29,602a245.25,245.25,0,0,1-27.89-.2,122.33,122.33,0,0,1-9.32-15.61c-29-58.38-108.59-63.38-143.63-47-13.56,6.34-16.62,20.14-15.29,34.7-33.22-7.48-56.44-13.5-56.44-13.5-3.47-19.55-19-44.88-38.2-69.25,7.46.72,15.83,1.8,25.14,3.36,39.62,6.58,49.9-13.94,49.27-38.43a116.85,116.85,0,0,0,6.43,10.31c8.75,10.91,32.74,61.11,98.22,63.29S784.71,550,784.71,550c8.25,11.11,17.9,38.1,21.29,48A3,3,0,0,1,803.29,602Z" transform="translate(-0.47 0.24)"/><path class="cls-9" d="M255.78,374.73s77.86-19.64,80-80.75,34.92-101.54,67.65-91.15" transform="translate(-0.47 0.24)"/><path class="cls-6" d="M407,206.82c-1.29-2.33-42.78,6.11-55.87,34.63,0,0-1.55-45.69,60.34-52.24Z" transform="translate(-0.47 0.24)"/><path class="cls-10" d="M235.29,197.18s47.26-1.57,83.72,18.15,82.91-.22,92.42-19.72" transform="translate(-0.47 0.24)"/><path class="cls-6" d="M418.76,189.21s-24,15.28-24,50.2,13.51,137.07,27.49,182c0,0,5.25,23.13,14,29.68s17.46,13.1,21.83,19.64S469,483.86,475.51,486s13.37,3.72,13.37,3.72-23.7-3.92-32.72-39.83-30.85-125.4-37.4-151.59S405.67,191.4,418.76,189.21Z" transform="translate(-0.47 0.24)"/><path class="cls-2" d="M450.41,480.58l-14.56,9.19s.09-4,.2-10.41l.17.13,13.16-9.29C449.89,476.63,450.41,480.58,450.41,480.58Z" transform="translate(-0.47 0.24)"/><path class="cls-6" d="M436.05,479.36c-.11,6.42-.2,10.41-.2,10.41l-10.41-8.38c.33-3.36.61-6.65.81-9.86Z" transform="translate(-0.47 0.24)"/><path class="cls-6" d="M411.43,213.75s21.57-6.47,11.18-27.5c0,0-8.21-7.95-19.13,7.33C403.48,193.58,419.38,196.81,411.43,213.75Z" transform="translate(-0.47 0.24)"/><path class="cls-2" d="M968.57,722.89A14.8,14.8,0,0,1,953,733l-148-13.47C656.66,708.66,597.73,669.37,571.54,641c-13.31-14.4-25.29-37.67-33.87-57.07,1.07,1.9,35.75,62.9,85.16,86.54,50.2,24,170.24,41.46,196.43,41.46s93.85,6.55,111.31,10.92S963,731.56,968.57,722.89Z" transform="translate(-0.47 0.24)"/><path class="cls-2" d="M246.82,355.8s-12.17.19-10.6-11.62,13.63-12.91,13.63-12.91S262.41,344.32,246.82,355.8Z" transform="translate(-0.47 0.24)"/><path class="cls-3" d="M66.46,233.06S112.29,250.52,136.3,292s89.88,52.76,106,44.93" transform="translate(-0.47 0.24)"/><path class="cls-3" d="M171.22,390.2s39.28-76.39,63.29-76.39,21.95,13.4,15.34,20.89c0,0-2.24,9.67-26.61,4.38s-71.67,31.48-95.67,79.5-72,80.75-72,80.75" transform="translate(-0.47 0.24)"/><path class="cls-2" d="M207.16,451.6s-22.85-24.29-22.85-59.21c0,0,3.2-18.13,11.42-28.71,0,0-2.14,62.31,29.23,77.16Z" transform="translate(-0.47 0.24)"/><path class="cls-4" d="M285.8,559c-2.86,19.79-2,41-1,53.27l-13.17,9.3-.17-.13-9.8-7.83a303.13,303.13,0,0,0-.81-51.77l9.61-19.71,5.82-11.94S290.17,528.79,285.8,559Z" transform="translate(-0.47 0.24)"/><path class="cls-5" d="M285.8,559c-2.86,19.79-2,41-1,53.27l-13.17,9.3-.17-.13c.31-18.77.7-58.23-1-79.31l5.82-11.94S290.17,528.79,285.8,559Z" transform="translate(-0.47 0.24)"/><path class="cls-2" d="M370.11,503.91c-.28-2.4,1.9-50.41-28.65-96.25S262.09,334,247.21,350.07c0,0-4-14.43,13.49-21S328.36,357.46,361.1,412,411.3,519,402.57,556.08,370.11,503.91,370.11,503.91Z" transform="translate(-0.47 0.24)"/><path class="cls-6" d="M804,865a14.8,14.8,0,0,1-15.54,10.15l-148-13.47c-148.41-10.91-207.34-50.2-233.53-78.57-13.31-14.4-25.29-37.67-33.87-57.07a0,0,0,0,0,0,0v0c-8.3-18.77-13.4-33.91-13.4-33.91-8-21.2-31.28-53-31.28-53C297.81,582.27,252,569.17,214.87,521.4c-22.53-29-17.7-51.84-10.43-65.31a49.24,49.24,0,0,1,10.43-13.51s43.65-34.92,96.07,0c20.63,13.73,44.59,41.65,66.09,70.48,33.18,44.43,60.46,91,60.46,91,67.66-28.37,128.77,8.73,128.77,8.73C623.4,658.2,747,791.25,800.84,850.06A14.61,14.61,0,0,1,804,865Z" transform="translate(-0.47 0.24)"/><path class="cls-2" d="M440.19,621.55V641l-10.34,29.7-43.74,31.8s-10.82-5.61-23.92-27.44-21.54-57.11-85-104.95-68.62-65.57-72.57-84c-1.83-8.55-3.08-19.66-.19-30a49.24,49.24,0,0,1,10.43-13.51s43.65-34.92,96.07,0c20.63,13.73,44.59,41.65,66.09,70.48C406.61,561.88,440.19,621.55,440.19,621.55Z" transform="translate(-0.47 0.24)"/><path class="cls-2" d="M620.11,692s-32.93-67.86-72.31-78.44-67.85-20-108.18,0,31.7,65.8,31.7,65.8l23,12.64,29.45,10.42Z" transform="translate(-0.47 0.24)"/><path class="cls-2" d="M324.27,631.82s-16.12-26.9-40.39-45.32C283.88,586.5,292.9,623.54,324.27,631.82Z" transform="translate(-0.47 0.24)"/><path class="cls-7" d="M638.68,744.07a243.12,243.12,0,0,1-27.89-.21C561.14,741,491.17,726.93,442.55,716c-33.21-7.48-56.44-13.51-56.44-13.51-3.47-19.55-19-44.87-38.2-69.24-23.56-29.93-52.7-58.41-72-72.9-35-26.32-58.88-47.9-67.63-78.45s36.12-62,90.65-38c47.37,20.86,103,119.51,123.36,154.26a118.48,118.48,0,0,0,6.43,10.31c8.75,10.91,32.74,61.11,98.22,63.29S620.1,692,620.1,692c8.25,11.12,17.91,38.11,21.29,48A3,3,0,0,1,638.68,744.07Z" transform="translate(-0.47 0.24)"/><path class="cls-8" d="M638.68,744.07a243.12,243.12,0,0,1-27.89-.21,120.32,120.32,0,0,1-9.31-15.6c-29-58.38-108.6-63.38-143.64-47-13.55,6.33-16.62,20.13-15.29,34.7-33.21-7.48-56.44-13.51-56.44-13.51-3.47-19.55-19-44.87-38.2-69.24,7.47.72,15.83,1.8,25.14,3.36,39.62,6.58,49.91-13.94,49.27-38.43a118.48,118.48,0,0,0,6.43,10.31c8.75,10.91,32.74,61.11,98.22,63.29S620.1,692,620.1,692c8.25,11.12,17.91,38.11,21.29,48A3,3,0,0,1,638.68,744.07Z" transform="translate(-0.47 0.24)"/><path class="cls-9" d="M91.17,516.79S169,497.15,171.22,436s34.92-101.54,67.66-91.15" transform="translate(-0.47 0.24)"/><path class="cls-6" d="M242.35,348.88c-1.29-2.33-42.78,6.11-55.86,34.63,0,0-1.56-45.69,60.33-52.24Z" transform="translate(-0.47 0.24)"/><path class="cls-10" d="M70.68,339.24s47.27-1.57,83.72,18.15,82.91-.23,92.42-19.72" transform="translate(-0.47 0.24)"/><path class="cls-6" d="M254.15,331.27s-24,15.28-24,50.2,13.5,137.07,27.48,182c0,0,5.25,23.13,14,29.68s17.46,13.09,21.83,19.64,10.91,13.1,17.46,15.28,13.37,3.72,13.37,3.72S300.58,627.9,291.55,592s-30.85-125.4-37.4-151.59S241.06,333.46,254.15,331.27Z" transform="translate(-0.47 0.24)"/><path class="cls-2" d="M285.8,622.64l-14.56,9.19s.09-4,.2-10.41l.17.13,13.17-9.3C285.28,618.69,285.8,622.64,285.8,622.64Z" transform="translate(-0.47 0.24)"/><path class="cls-6" d="M271.44,621.42c-.11,6.42-.2,10.41-.2,10.41l-10.41-8.38c.33-3.36.61-6.66.81-9.86Z" transform="translate(-0.47 0.24)"/><path class="cls-6" d="M246.82,355.8s21.57-6.46,11.18-27.5c0,0-8.21-7.94-19.12,7.34C238.88,335.64,254.77,338.87,246.82,355.8Z" transform="translate(-0.47 0.24)"/><path class="cls-2" d="M804,865a14.8,14.8,0,0,1-15.54,10.15l-148-13.47c-148.41-10.91-207.34-50.2-233.53-78.57-13.31-14.4-25.29-37.67-33.87-57.07,1.07,1.9,35.75,62.9,85.16,86.54,50.2,24,170.24,41.46,196.43,41.46S748.5,860.54,766,864.91,798.35,873.61,804,865Z" transform="translate(-0.47 0.24)"/></svg>