<svg id="Layer_1" data-name="Layer 1" xmlns="http://www.w3.org/2000/svg" viewBox="0 0 1024 1024"><defs><style>.cls-1{fill:#fff;}.cls-2{fill:#231713;}.cls-14,.cls-3{fill:#0c0706;}.cls-4{fill:#9c906d;}.cls-5{fill:#352419;}.cls-6{fill:#010101;}.cls-7{fill:#0c0c0c;}.cls-8{fill:#2f1f19;}.cls-9{fill:#020101;opacity:0.81;}.cls-10{fill:#dcd2b5;}.cls-11{fill:#c0ab87;}.cls-12{fill:#987d5c;}.cls-13{fill:#160e0b;}.cls-14{opacity:0.39;}</style></defs><rect class="cls-1" width="1024" height="1024"/><rect y="984.95" width="1024" height="39.05"/><path class="cls-1" d="M318.64,992.6H323a13.64,13.64,0,0,1,8.38,2.46,8.15,8.15,0,0,1,3.31,7,8.42,8.42,0,0,1-3.29,7.17,13.72,13.72,0,0,1-8.48,2.48h-4.23Zm2.6,16.93h.91a19.43,19.43,0,0,0,3.82-.36,9.12,9.12,0,0,0,3.13-1.24,6.62,6.62,0,0,0,2.14-2.29,6.87,6.87,0,0,0,.8-3.48,7.34,7.34,0,0,0-.78-3.51,5.72,5.72,0,0,0-2.2-2.27,10.73,10.73,0,0,0-3.11-1.22,17.65,17.65,0,0,0-3.8-.38h-.91Z" transform="translate(-0.47 0.24)"/><path class="cls-1" d="M338.46,1006.16a4.19,4.19,0,0,0,1.1,2.77,3.65,3.65,0,0,0,2.79,1.16,4,4,0,0,0,2.23-.57,5.84,5.84,0,0,0,1.64-1.73l2.11,1.08a6.48,6.48,0,0,1-2.51,2.39,7.25,7.25,0,0,1-3.49.86,6,6,0,0,1-6.36-6.24,6.6,6.6,0,0,1,1.63-4.61,6,6,0,0,1,4.67-1.77,5.63,5.63,0,0,1,4.51,1.77,6.67,6.67,0,0,1,1.55,4.54v.35Zm7.38-1.72a3.5,3.5,0,0,0-1.15-2.17,3.58,3.58,0,0,0-2.42-.79,4.14,4.14,0,0,0-1.34.21,3.56,3.56,0,0,0-1.11.62,3.85,3.85,0,0,0-.8,1,3.8,3.8,0,0,0-.43,1.18Z" transform="translate(-0.47 0.24)"/><path class="cls-1" d="M355.65,1002.56a1.78,1.78,0,0,0-1.66-1,1.44,1.44,0,0,0-.94.35,1,1,0,0,0-.41.82,1.07,1.07,0,0,0,.31.78,3.46,3.46,0,0,0,.87.59l.56.24.63.27c.15.06.28.12.39.15a1.28,1.28,0,0,1,.25.1,7.33,7.33,0,0,1,2.18,1.34,2.66,2.66,0,0,1,.8,2,3.56,3.56,0,0,1-1.32,2.81,4.62,4.62,0,0,1-3.13,1.12,5.37,5.37,0,0,1-1.44-.19,5.79,5.79,0,0,1-1.28-.54,4.23,4.23,0,0,1-1-.83,3.67,3.67,0,0,1-.7-1.1l2.12-.89a2.71,2.71,0,0,0,2.35,1.52,2.13,2.13,0,0,0,1.08-.29,1.89,1.89,0,0,0,.73-.73,1.3,1.3,0,0,0,.1-1,1.79,1.79,0,0,0-.86-1l-2.43-1.19a9.82,9.82,0,0,1-1.1-.62,3.38,3.38,0,0,1-.78-.64,2.35,2.35,0,0,1-.45-.76,2.88,2.88,0,0,1-.15-1,3.12,3.12,0,0,1,1.1-2.43,3.85,3.85,0,0,1,2.71-1,3.73,3.73,0,0,1,3.54,2.08Z" transform="translate(-0.47 0.24)"/><path class="cls-1" d="M364.57,994.43a1.44,1.44,0,0,1-.49,1.09,1.77,1.77,0,0,1-1.22.45,1.73,1.73,0,0,1-1.21-.45,1.45,1.45,0,0,1-.5-1.09,1.5,1.5,0,0,1,.5-1.13,1.7,1.7,0,0,1,1.21-.47,1.74,1.74,0,0,1,1.22.47A1.49,1.49,0,0,1,364.57,994.43Zm-.47,17.28h-2.48V999.85h2.48Z" transform="translate(-0.47 0.24)"/><path class="cls-1" d="M380.19,1011.48a8.53,8.53,0,0,1-1.38,5.2q-1.38,1.83-4.92,1.83a6.81,6.81,0,0,1-4.48-1.45,5,5,0,0,1-1.76-3.93h2.48a3,3,0,0,0,1.06,2.47,4.28,4.28,0,0,0,2.81.88,3.32,3.32,0,0,0,2.92-1.14,5.6,5.6,0,0,0,.78-3.22v-2.26h-.05a5.37,5.37,0,0,1-1.92,1.66,5.27,5.27,0,0,1-2.47.6,5.81,5.81,0,0,1-4.54-1.85,6.62,6.62,0,0,1-1.66-4.56,6.16,6.16,0,0,1,1.69-4.36,5.64,5.64,0,0,1,4.39-1.85,5.22,5.22,0,0,1,4.51,2.38h.05v-2h2.49Zm-6.55-1.39a3.89,3.89,0,0,0,3.07-1.24,4.44,4.44,0,0,0,1.14-3.07,4.28,4.28,0,0,0-1.14-3,3.9,3.9,0,0,0-3.07-1.25,3.82,3.82,0,0,0-3,1.27,4.65,4.65,0,0,0,0,6A3.79,3.79,0,0,0,373.64,1010.09Z" transform="translate(-0.47 0.24)"/><path class="cls-1" d="M385.91,1001.45H386a3.7,3.7,0,0,1,1.6-1.45,5.34,5.34,0,0,1,2.3-.5,5.94,5.94,0,0,1,2.15.35,3.42,3.42,0,0,1,1.42,1,4.06,4.06,0,0,1,.78,1.6,9.51,9.51,0,0,1,.23,2.17v7.07H392v-6.79a4.54,4.54,0,0,0-.56-2.55,2.54,2.54,0,0,0-2.29-.85,4.13,4.13,0,0,0-1.08.12,2.84,2.84,0,0,0-.77.33,2.24,2.24,0,0,0-.56.49,7.19,7.19,0,0,0-.41.61,1.91,1.91,0,0,0-.15.46c0,.18-.09.37-.13.57s-.06.39-.08.58,0,.35,0,.47v6.56h-2.48V999.85h2.48Z" transform="translate(-0.47 0.24)"/><path class="cls-1" d="M405.67,989.72h2.49v12.11h.06a5.33,5.33,0,0,1,4.5-2.33,5.65,5.65,0,0,1,4.4,1.85,6.15,6.15,0,0,1,1.68,4.36,6.61,6.61,0,0,1-1.65,4.56,5.81,5.81,0,0,1-4.54,1.85,5.27,5.27,0,0,1-2.47-.6,5.37,5.37,0,0,1-1.92-1.66h-.06v1.85h-2.49Zm6.45,20.37a3.86,3.86,0,0,0,3.06-1.24,4.44,4.44,0,0,0,1.14-3.07,4.28,4.28,0,0,0-1.14-3,4.26,4.26,0,0,0-6.05,0,4.65,4.65,0,0,0,0,6A3.81,3.81,0,0,0,412.12,1010.09Z" transform="translate(-0.47 0.24)"/><path class="cls-1" d="M419.16,999.85h2.91l4.36,7.53,4.06-7.53h2.8l-10.48,18.66H420l5.09-8.82Z" transform="translate(-0.47 0.24)"/><path class="cls-1" d="M445.84,1006.92l-2.38,4.79h-2.79l9.95-19.92,9.95,19.92h-2.79l-2.38-4.79Zm4.78-9.91-3.71,7.73h7.41Z" transform="translate(-0.47 0.24)"/><path class="cls-1" d="M464.63,1011.71h-2.49v-22h2.49Z" transform="translate(-0.47 0.24)"/><path class="cls-1" d="M470.76,1011.71h-2.48v-22h2.48Z" transform="translate(-0.47 0.24)"/><path class="cls-1" d="M480.22,1002.64v1.9h-6.05v-1.9Z" transform="translate(-0.47 0.24)"/><path class="cls-1" d="M489.89,992a5.08,5.08,0,0,0-1.66-.48,1.37,1.37,0,0,0-1.16.47,2.81,2.81,0,0,0-.5,1.15c-.05.34-.08.61-.09.8s0,.46,0,.8v5.09h3.43V1002h-3.43v9.73H484V1002h-1.13v-2.13H484v-5.78c0-3.1,1.39-4.66,4.17-4.66a5.06,5.06,0,0,1,1.74.31Z" transform="translate(-0.47 0.24)"/><path class="cls-1" d="M493.73,1001.78h.08a3.81,3.81,0,0,1,1.39-1.67,3.74,3.74,0,0,1,2.15-.61,4.1,4.1,0,0,1,2,.58l-1.13,2.08a2.4,2.4,0,0,0-1.52-.48,2.51,2.51,0,0,0-2.55,1.42,5.77,5.77,0,0,0-.37,1.3,9.31,9.31,0,0,0-.1,1.48v5.83h-2.48V999.85h2.48Z" transform="translate(-0.47 0.24)"/><path class="cls-1" d="M502.27,1006.16a4.25,4.25,0,0,0,1.11,2.77,3.65,3.65,0,0,0,2.79,1.16,4,4,0,0,0,2.23-.57,6,6,0,0,0,1.64-1.73l2.1,1.08a6.46,6.46,0,0,1-2.5,2.39,7.28,7.28,0,0,1-3.5.86,6,6,0,0,1-6.35-6.24,6.6,6.6,0,0,1,1.63-4.61,6,6,0,0,1,4.67-1.77,5.6,5.6,0,0,1,4.5,1.77,6.67,6.67,0,0,1,1.55,4.54v.35Zm7.39-1.72a3.34,3.34,0,0,0-3.57-3,4.14,4.14,0,0,0-1.34.21,3.45,3.45,0,0,0-1.11.62,3.64,3.64,0,0,0-.8,1,3.56,3.56,0,0,0-.43,1.18Z" transform="translate(-0.47 0.24)"/><path class="cls-1" d="M515.76,1006.16a4.25,4.25,0,0,0,1.11,2.77,3.63,3.63,0,0,0,2.78,1.16,4,4,0,0,0,2.23-.57,5.84,5.84,0,0,0,1.64-1.73l2.11,1.08a6.6,6.6,0,0,1-2.5,2.39,7.31,7.31,0,0,1-3.5.86,6,6,0,0,1-6.36-6.24,6.6,6.6,0,0,1,1.64-4.61,6,6,0,0,1,4.66-1.77,5.63,5.63,0,0,1,4.51,1.77,6.67,6.67,0,0,1,1.55,4.54v.35Zm7.38-1.72a3.5,3.5,0,0,0-1.15-2.17,3.58,3.58,0,0,0-2.42-.79,4.18,4.18,0,0,0-1.34.21,3.4,3.4,0,0,0-1.1.62,3.46,3.46,0,0,0-.8,1,3.36,3.36,0,0,0-.43,1.18Z" transform="translate(-0.47 0.24)"/><path class="cls-1" d="M533.67,1002.64v1.9h-6v-1.9Z" transform="translate(-0.47 0.24)"/><path class="cls-1" d="M546.58,1009.86h-.06a5.37,5.37,0,0,1-1.92,1.66,5.24,5.24,0,0,1-2.47.6,5.81,5.81,0,0,1-4.54-1.85,6.61,6.61,0,0,1-1.65-4.56,6.15,6.15,0,0,1,1.68-4.36,5.65,5.65,0,0,1,4.4-1.85,5.33,5.33,0,0,1,4.5,2.33h.06V989.72h2.49v22h-2.49Zm-4.07.23a3.88,3.88,0,0,0,3.07-1.24,4.43,4.43,0,0,0,1.13-3.07,4.27,4.27,0,0,0-1.13-3,3.89,3.89,0,0,0-3.07-1.25,3.82,3.82,0,0,0-3,1.27,4.68,4.68,0,0,0,0,6A3.79,3.79,0,0,0,542.51,1010.09Z" transform="translate(-0.47 0.24)"/><path class="cls-1" d="M553.13,1001.32a7.08,7.08,0,0,1,4.92-1.82,7,7,0,0,1,4.89,1.82,6,6,0,0,1,0,9,7,7,0,0,1-4.89,1.83,7,7,0,0,1-4.92-1.83,6,6,0,0,1,0-9Zm.49,4.49a4,4,0,0,0,1.3,2.91,4.36,4.36,0,0,0,3.13,1.22,4.42,4.42,0,0,0,3.12-1.22,3.94,3.94,0,0,0,0-5.83,4.46,4.46,0,0,0-3.12-1.21,4.4,4.4,0,0,0-3.13,1.21A3.94,3.94,0,0,0,553.62,1005.81Z" transform="translate(-0.47 0.24)"/><path class="cls-1" d="M571.64,1007.41l3.82-8.21,3.79,8.21,3.75-7.56h2.82l-6.57,12.27-3.79-7.93-3.82,7.93-6.57-12.27h2.81Z" transform="translate(-0.47 0.24)"/><path class="cls-1" d="M589.55,1001.45h.06a3.67,3.67,0,0,1,1.61-1.45,5.29,5.29,0,0,1,2.29-.5,6,6,0,0,1,2.16.35,3.39,3.39,0,0,1,1.41,1,3.93,3.93,0,0,1,.78,1.6,9,9,0,0,1,.23,2.17v7.07H595.6v-6.79a4.55,4.55,0,0,0-.55-2.55,2.54,2.54,0,0,0-2.29-.85,4.18,4.18,0,0,0-1.08.12,2.84,2.84,0,0,0-.77.33,2.43,2.43,0,0,0-.56.49,7.19,7.19,0,0,0-.41.61,3.56,3.56,0,0,0-.15.46,4.78,4.78,0,0,0-.12.57,5.81,5.81,0,0,0-.09.58c0,.19,0,.35,0,.47v6.56h-2.48V999.85h2.48Z" transform="translate(-0.47 0.24)"/><path class="cls-1" d="M604.12,1011.71h-2.49v-22h2.49Z" transform="translate(-0.47 0.24)"/><path class="cls-1" d="M608.49,1001.32a7.08,7.08,0,0,1,4.92-1.82,7,7,0,0,1,4.89,1.82,6,6,0,0,1,0,9,7,7,0,0,1-4.89,1.83,7,7,0,0,1-4.92-1.83,6,6,0,0,1,0-9Zm.5,4.49a4,4,0,0,0,1.29,2.91,4.61,4.61,0,0,0,6.25,0,3.92,3.92,0,0,0,0-5.83,4.64,4.64,0,0,0-6.25,0A3.93,3.93,0,0,0,609,1005.81Z" transform="translate(-0.47 0.24)"/><path class="cls-1" d="M634.72,1011.71h-2.49v-1.85h-.05a5.2,5.2,0,0,1-4.4,2.26,5.86,5.86,0,0,1-4.54-1.85,6.61,6.61,0,0,1-1.65-4.56,6.15,6.15,0,0,1,1.68-4.36,5.69,5.69,0,0,1,4.43-1.85,5.34,5.34,0,0,1,4.48,2.33h.05v-2h2.49Zm-6.55-1.62a3.87,3.87,0,0,0,3.06-1.24,4.44,4.44,0,0,0,1.14-3.07,4.28,4.28,0,0,0-1.14-3,3.88,3.88,0,0,0-3.06-1.25,3.82,3.82,0,0,0-3,1.27,4.68,4.68,0,0,0,0,6A3.79,3.79,0,0,0,628.17,1010.09Z" transform="translate(-0.47 0.24)"/><path class="cls-1" d="M647.59,1009.86h-.05a5.37,5.37,0,0,1-1.92,1.66,5.24,5.24,0,0,1-2.47.6,5.77,5.77,0,0,1-4.53-1.85,6.57,6.57,0,0,1-1.66-4.56,6.08,6.08,0,0,1,1.69-4.36A5.62,5.62,0,0,1,643,999.5a5.34,5.34,0,0,1,4.51,2.33h.05V989.72h2.5v22h-2.5Zm-4.05.23a3.89,3.89,0,0,0,3.06-1.24,4.44,4.44,0,0,0,1.14-3.07,4.28,4.28,0,0,0-1.14-3,3.89,3.89,0,0,0-3.06-1.25,3.82,3.82,0,0,0-3,1.27,4.68,4.68,0,0,0,0,6A3.79,3.79,0,0,0,643.54,1010.09Z" transform="translate(-0.47 0.24)"/><path class="cls-1" d="M657.22,1010.65a1.37,1.37,0,0,1-.47,1,1.64,1.64,0,0,1-1.14.43,1.6,1.6,0,0,1-1.13-.43,1.37,1.37,0,0,1-.47-1,1.4,1.4,0,0,1,.47-1,1.6,1.6,0,0,1,1.13-.44,1.65,1.65,0,0,1,1.14.44A1.4,1.4,0,0,1,657.22,1010.65Z" transform="translate(-0.47 0.24)"/><path class="cls-1" d="M670.82,1003.22a5,5,0,0,0-3.71-1.59,4.19,4.19,0,0,0-3.06,1.24,4,4,0,0,0-1.25,2.91,3.92,3.92,0,0,0,1.25,3,4.6,4.6,0,0,0,3.23,1.19,4.84,4.84,0,0,0,3.54-1.57v2.91a8,8,0,0,1-3.57.79,7.18,7.18,0,0,1-4.92-1.8,5.65,5.65,0,0,1-2-4.44,5.89,5.89,0,0,1,2-4.56,7.27,7.27,0,0,1,5.06-1.82,7.12,7.12,0,0,1,3.43.78Z" transform="translate(-0.47 0.24)"/><path class="cls-1" d="M674.33,1001.32a7.07,7.07,0,0,1,4.91-1.82,7,7,0,0,1,4.89,1.82,6,6,0,0,1,0,9,6.93,6.93,0,0,1-4.89,1.83,7,7,0,0,1-4.91-1.83,6,6,0,0,1,0-9Zm.49,4.49a3.93,3.93,0,0,0,1.3,2.91,4.36,4.36,0,0,0,3.12,1.22,4.43,4.43,0,0,0,3.13-1.22,3.92,3.92,0,0,0,0-5.83,4.47,4.47,0,0,0-3.13-1.21,4.39,4.39,0,0,0-3.12,1.21A3.9,3.9,0,0,0,674.82,1005.81Z" transform="translate(-0.47 0.24)"/><path class="cls-1" d="M690.82,1001.35h.06a4.36,4.36,0,0,1,1.48-1.34,4,4,0,0,1,1.94-.51,4.18,4.18,0,0,1,3.74,2.1,4.34,4.34,0,0,1,1.67-1.53,4.82,4.82,0,0,1,2.31-.57c2.86,0,4.28,1.71,4.28,5.12v7.09h-2.49V1005a8.77,8.77,0,0,0,0-.9,4.68,4.68,0,0,0-.15-.86,2.7,2.7,0,0,0-.33-.78,2.27,2.27,0,0,0-.61-.63,2.44,2.44,0,0,0-1.27-.31,2.75,2.75,0,0,0-1.33.31,2.22,2.22,0,0,0-.81.69,3.72,3.72,0,0,0-.46,1.06,8.22,8.22,0,0,0-.21,1.14c0,.33,0,.73,0,1.16v5.83h-2.49v-6.28c0-.41,0-.74,0-1a9,9,0,0,0-.16-1,2.62,2.62,0,0,0-.37-1,2,2,0,0,0-.69-.64,2.23,2.23,0,0,0-1.13-.28,2.34,2.34,0,0,0-2.46,1.52,6.3,6.3,0,0,0-.33,1.35,10.73,10.73,0,0,0-.09,1.49v5.83h-2.48V999.85h2.48Z" transform="translate(-0.47 0.24)"/><rect class="cls-1" x="260.19" y="1003.41" width="35.21" height="1.58"/><rect class="cls-1" x="728.61" y="1003.41" width="35.2" height="1.58"/><path class="cls-2" d="M739.52,529.44s-9.75-32,2.63-48.25,47.63,15.41,47.63,15.41c3.89,13.22,5.92,19.75,10.07,32.73-2.64,4.2-4,6.31-6.63,10.54C793.22,539.87,748.49,540.42,739.52,529.44Z" transform="translate(-0.47 0.24)"/><path class="cls-2" d="M819.41,530.9s14.85-2.51,32.72,5.47c18.47,8.24,43.15,18.52,53.79,31.9,2.74,3.44.28,33.37-30.24,18.8-17.66-8.44-35.51-23.78-55.93-24.1C797.3,562.61,819.41,530.9,819.41,530.9Z" transform="translate(-0.47 0.24)"/><path class="cls-3" d="M833.25,562.23s31.78-7.56,52.25-.78,16.51,20,12,22.38-16.55,6.3-33-5.76S838.72,565.51,833.25,562.23Z" transform="translate(-0.47 0.24)"/><path class="cls-2" d="M744,520.65a35.57,35.57,0,0,0,9.74-30.08C751,472,740.68,485.35,739,496,736.1,514.85,744,520.65,744,520.65Z" transform="translate(-0.47 0.24)"/><path class="cls-4" d="M376.05,403.78c-.32,1.28-.56,2.73-.83,4.11-.67,3.52-1.35,7.29-1.88,11.14-5.26,38.11-4.93,77.44-3,116l-26.07,7.41c-1.16,7.58-2,12.09-2,12.09l-9.4-5.45s.6-4,1.51-11.5c3.48-28.53,6.82-58.33,7.6-86,.73-26.15-2.6-52.53-14.2-77.37l-.72-1.52c-6.54-13.8-12.67-21.54-12.67-21.54l2.11-4c1.28-2.4,1.92-3.59,3.2-6C348.18,347,384.81,369.34,376.05,403.78Z" transform="translate(-0.47 0.24)"/><path class="cls-5" d="M344.3,542.39c-1.16,7.58-2,12.09-2,12.09l-9.4-5.45s.6-4,1.51-11.5c3.48-28.53,6.82-58.33,7.6-86,.73-26.15-2.6-52.53-14.2-77.37l-.72-1.52a28.27,28.27,0,0,1,10.42,9.28C365,422.69,351.56,495.09,344.3,542.39Z" transform="translate(-0.47 0.24)"/><path class="cls-6" d="M371.17,549l-28.85,5.45s.82-4.51,2-12.09L370.37,535C370.79,543.75,371.17,549,371.17,549Z" transform="translate(-0.47 0.24)"/><path class="cls-7" d="M344.3,542.39c-1.16,7.58-2,12.09-2,12.09l-9.4-5.45s.58-4,1.51-11.5Z" transform="translate(-0.47 0.24)"/><path class="cls-8" d="M945.32,672.25a28.77,28.77,0,0,1-4.71.88l-.36,0c-9.13,1.1-27,1.44-51.27,1.82-114.76,1.77-234.75,8.24-344.78-30.23-39.13-8.36-71.32-36.55-83.78-74.45C442.24,515,409.31,463.73,373.34,419a283.07,283.07,0,0,0-35.81-37.1c-3.26-2.78-6.51-5.37-9.7-7.76-1.37-1-2.74-2-4.1-3-20.62-17-45.15-42.28-48.07-69.23-3.2-29.47,11.49-55.88,22.44-82.59,1.32-3.2,2.91-6.78,4.76-10.41v0a.11.11,0,0,1,0-.08c10.63-21,28.28-46.25,28.28-46.25s16.64-22.77,42.38,0c49.19,43.5,101.63,87.61,143.48,137.72,26.84,32.13,52.3,66.2,72,103.45,19.25,36.49,47,76.43,86.74,91.73a1134.63,1134.63,0,0,1,120.9,54.55c14.66,7.72,29.71,16.49,44.69,26l8.77,4.75c33,17.86,68.88,34.74,97.66,57.11C957.53,645.53,969.41,664.8,945.32,672.25Z" transform="translate(-0.47 0.24)"/><path class="cls-9" d="M841.31,576.06c-15-9.51-30-18.12-44.69-26,7.09,14,10.72,20.94,17.94,34.84,0,0,13.83-4,35.52-4.09Z" transform="translate(-0.47 0.24)"/><path class="cls-9" d="M791.34,565.09c-9.36-3.41-19.54-2.7-28.1-.68-9.58-17-28.26-26-46.07-31.79-19.85-6.47-40.18-8.11-60.17-6.72-31.46,2.19-27.11,21.41-23.27,30,9.47,21.15,22.93,42.7,30,64.06,3.22,9.8,10.7,13.48,16.5,9.63,2.18-1.45,11.47-5.43,23-10.53a33.11,33.11,0,0,0-3.42,11c-1.6,19.3,11,8.28,41.71,14.26,20.87,4.06,42.53,10.62,63.26,11.88,10.19.62,18.55.7,19.54-22.65C825.41,607.78,817.15,574.5,791.34,565.09Z" transform="translate(-0.47 0.24)"/><path class="cls-10" d="M684.07,560.08h0a94.84,94.84,0,0,1-18.35,5.48c-59.77,17.37-137.11,11.67-172.5-46.67-43.95-72.46-71.46-156.64-104-234.72-7.21-17.3-12.73-30.67-16.32-37.33-10.28-19.09-41.57-80.31-25.61-87.94,15-7.19,60.89,43.06,78.93,60.24,27.49,26.18,56.87,52,81.78,79.56C538.94,332.94,570.73,374,589.87,417c13.6,30.55,40,71.54,74.77,79.06,18.31,3.95,46.12,12.43,54.8,26.18C721.48,525.42,712.88,548.08,684.07,560.08Z" transform="translate(-0.47 0.24)"/><path class="cls-11" d="M684.07,560.08h0c-47.41-5-74.81-19.05-105.24-53.6C540.51,463,517.68,404,483.93,356.1c-18.27-25.89-45.13-46.36-72.7-61.35-8.1-4.4-15.61-7.88-22-10.57-7.22-17.31-12.73-30.67-16.32-37.33-10.28-19.09-41.57-80.31-25.61-87.94,15-7.19,60.89,43.06,78.93,60.24,27.49,26.18,56.55,52,81.78,79.56,5.59,6.11,15.06,17.81,25.89,31.84,20.78,26.93,42.15,55.45,56,86.4,13.61,30.51,40,71.54,74.77,79.06,18.31,3.95,46.12,12.43,54.8,26.18C721.48,525.42,712.88,548.08,684.07,560.08Z" transform="translate(-0.47 0.24)"/><path class="cls-8" d="M779.59,508.72c-3.51-14.86,2.46-38.3,15.1-52.93,0,0,7.57-5.37,15.78-.14,20.9,13.34,42.4,29.33,64.88,39,11.2,4.84,12.52,12.61,11,14.22-14,14.71-33.66,28.35-54.32,28.09C814.06,536.75,783.39,524.81,779.59,508.72Z" transform="translate(-0.47 0.24)"/><path class="cls-3" d="M842.67,529.85s32.23-26.53,39.8-23.77S855.26,533.27,842.67,529.85Z" transform="translate(-0.47 0.24)"/><path class="cls-12" d="M533.9,330.55c-34.78-23.86-78.69-52.07-122.67-35.8-8.13-4.39-15.61-7.88-22-10.57-7.22-17.31-12.73-30.67-16.32-37.33-10.28-19.09-41.57-80.31-25.61-87.94,15-7.19,60.89,43.06,78.93,60.24,27.49,26.18,56.55,52,81.78,79.56C513.6,304.82,523.06,316.52,533.9,330.55Z" transform="translate(-0.47 0.24)"/><path class="cls-13" d="M736.05,520.38c2.49-8.38,33.85-24.36,52-20.55,18.89,4,40.09,19.56,48.61,38.13,6.06,13.22-3.49,44.07-12.53,42.41C797,575.42,732.05,533.87,736.05,520.38Z" transform="translate(-0.47 0.24)"/><path class="cls-2" d="M731.73,518.46c-19.76-6.45-40.1-8.2-60.07-6.82-31.43,2.15-27.06,21.37-23.18,29.88,9.59,21,23.22,42.39,30.44,63.61,3.31,9.72,11,12.73,16.65,9.5,22.61-13,55.33-20.66,76.1-37.9C800.16,553.08,750.4,524.54,731.73,518.46Z" transform="translate(-0.47 0.24)"/><path class="cls-3" d="M764.48,572.55c-.2-.35-46.79,15.38-67,26.21-9.77,5.25-6.45,12,.25,10C718.93,602.33,764.48,572.55,764.48,572.55Z" transform="translate(-0.47 0.24)"/><path class="cls-2" d="M746.45,564.85c-14.45,12.35-32.09,33.09-35.1,52.21-2.74,17.46,11.09,8.19,41.84,14.14,20.87,4,42.51,10.58,63.23,11.9,10.15.65,18.48.79,19.11-22.24.7-25.68-8.37-59.19-33.56-67.91C783.87,546.68,760.27,553,746.45,564.85Z" transform="translate(-0.47 0.24)"/><path class="cls-8" d="M738,514.77s-39.6-12.08-46.86,6.53c-7.72,19.8,22.11,33,35.79,41.55,16.73,10.51,34.71,21.14,52.73,30.5,0,0,10.73-15.78,16.18-21.08l15.27-14.88C786.65,543.37,762.64,528.5,738,514.77Z" transform="translate(-0.47 0.24)"/><path class="cls-14" d="M604.82,644.63C693.32,673.59,796,673.7,889,675c-114.76,1.78-234.75,8.24-344.78-30.23-39.13-8.36-71.32-36.55-83.78-74.45C442.24,515,409.21,464.64,373.34,419c-5.14,38.26-4.87,77.5-3,116,.43,8.76.8,14,.8,14l-28.85,5.45-9.4-5.45s.6-4,1.51-11.5c3.48-28.53,6.82-58.33,7.6-86,.73-26.15-2.67-52.33-14.2-77.37-1.37-1-2.74-2-4.1-3-20.62-17-45.15-42.28-48.07-69.23-3.2-29.47,11.49-55.88,22.44-82.59,1.32-3.2,2.91-6.78,4.76-10.41-14.34,37-21.34,86.77,1.79,121.59,3.78,5.7,7.73,11.35,11.9,16.6,17.5,22,39.08,41.13,58.67,60.74C392.45,425.15,408,443,421.66,463c23.86,34.82,54.17,75.08,67,116.16C501.25,619.57,569.59,633.11,604.82,644.63Z" transform="translate(-0.47 0.24)"/><path class="cls-3" d="M945.32,672.25a29,29,0,0,1-4.71.88C942.29,672.86,943.87,672.58,945.32,672.25Z" transform="translate(-0.47 0.24)"/><path class="cls-2" d="M602.82,645.8s-8.83-38,5.19-56.74,50.24,19.49,50.24,19.49l7.88,40-7.88,12.46S611.66,659.18,602.82,645.8Z" transform="translate(-0.47 0.24)"/><path class="cls-2" d="M686.48,651.47s15.64-2.34,33.72,8.34,50.14,36.73,52.15,42.75-4.1,42.08-34.12,22-31.41-31.27-54.76-33.67S686.48,651.47,686.48,651.47Z" transform="translate(-0.47 0.24)"/><path class="cls-3" d="M697.46,690.93s33.85-7.5,54.37,2.06,14.49,26.12,9.49,28.87-18,6.91-33.54-9.2S702.73,695.33,697.46,690.93Z" transform="translate(-0.47 0.24)"/><path class="cls-2" d="M608,635.59a45.11,45.11,0,0,0,12-35.24c-2-22.05-13.77-6.46-16,6C600,628.41,608,635.59,608,635.59Z" transform="translate(-0.47 0.24)"/><path class="cls-4" d="M206.53,500.14c-.32,1.55-.64,3.11-.92,4.71-.78,4-1.44,8.28-2,12.65-6.21,44.81-4.57,103.35-3.27,131.09L171.62,657c-1.28,8.58-2.18,13.67-2.18,13.67l-10.34-6.15s.64-4.53,1.66-13c2.06-17.39,5.67-51.42,8.36-97.22,2.18-36.91-6.84-68-15.55-88.66-.26-.6-.52-1.2-.79-1.8C145.71,447.42,139.06,438,139.06,438l2.38-4.79,3.63-7.24S219.22,440,206.53,500.14Z" transform="translate(-0.47 0.24)"/><path class="cls-5" d="M171.62,657c-1.28,8.58-2.18,13.67-2.18,13.67l-10.34-6.15s.64-4.53,1.66-13c2.06-17.39,5.67-51.42,8.36-97.22,2.18-36.91-6.84-68-15.55-88.66-.26-.6-.52-1.2-.79-1.8a33.49,33.49,0,0,1,11.41,11C190.12,513.41,177.27,619.17,171.62,657Z" transform="translate(-0.47 0.24)"/><path class="cls-6" d="M201.18,664.48l-31.74,6.15s.9-5.09,2.18-13.67l28.68-8.37C200.76,658.51,201.18,664.48,201.18,664.48Z" transform="translate(-0.47 0.24)"/><path class="cls-7" d="M171.62,657c-1.28,8.58-2.18,13.67-2.18,13.67l-10.34-6.15s.64-4.53,1.66-13Z" transform="translate(-0.47 0.24)"/><path class="cls-8" d="M804.41,830.82a27.9,27.9,0,0,1-5.07.88l-.38,0c-9.8,1-28.74.74-53.53-.68-92.89-5.31-268-26.74-353.86-58.36,0,0-70.14-12-92.19-84.17-15.37-50.28-54.07-119-95.81-171a384,384,0,0,0-39.38-42.75q-5.35-4.92-10.62-9.16c-1.51-1.22-3-2.4-4.49-3.52,0,0-48.1-42.09-52.11-84.18S113,303.22,123,276.43c1.49-3.95,3.35-8.18,5.47-12.53v0a.16.16,0,0,1,0-.1c12.22-25.17,32.56-54.23,32.56-54.23s19.08-26.05,49.62,0S327.44,313.76,369.53,375.89,430.35,478.1,441,500.14s46.76,84.18,94.86,104.22c36.27,15.11,80.5,37,125,69.28a532.79,532.79,0,0,1,43.35,34.93l8.46,6.49c23.34,18,87.57,67.5,95.75,75.68C818.44,800.76,830.47,822.8,804.41,830.82Z" transform="translate(-0.47 0.24)"/><path class="cls-9" d="M704.21,708.57a532.79,532.79,0,0,0-43.35-34.93l15.19,43.71s14.39-3.77,36.62-2.29Z" transform="translate(-0.47 0.24)"/><path class="cls-9" d="M654.11,691.53c-9.81-4.55-19.86-4.62-28.79-2.78-4-13.3-17.23-28-46.2-40.2-.77-.33-28.53-13.37-64-9.74s-29.41,23.66-25.4,33.69,28.23,62.1,31.15,74.14,10.94,16,17,12c2.25-1.5,11.85-5.4,23.76-10.39a39.4,39.4,0,0,0-3.72,12.39c-2,22.05,11.1,10.29,41.62,20.18s51.91,18.86,62.26,20.39,18.37,3.52,20.37-24.53S682.16,704.55,654.11,691.53Z" transform="translate(-0.47 0.24)"/><path class="cls-10" d="M543.34,679h0a93.57,93.57,0,0,1-19.48,5.53S391.57,724.6,335.46,630.41c-43.27-72.63-85.6-202.33-110.41-274.48-7.37-21.4-13.21-37.76-17.05-46-16.84-36.22-49.5-90.77-28.16-104.58S343.47,351.84,359.51,373.89s62.38,96.17,82.3,141.26,54,84,82,89.61S580,630.41,582,636.42C583.64,641.49,574,666.44,543.34,679Z" transform="translate(-0.47 0.24)"/><path class="cls-11" d="M543.34,679h0c-74.67-7.54-91.63-38.56-113.67-62.61S373.53,518.18,327.44,444c-22.28-35.85-52.55-59.84-77.84-75a259.61,259.61,0,0,0-24.55-13.07c-7.37-21.4-13.21-37.76-17.05-46-16.84-36.22-49.5-90.77-28.16-104.58S343.47,351.84,359.51,373.89c5.65,7.77,15.07,22,25.75,39.16,19.66,31.52,43.65,72.9,56.55,102.1,19.9,45.12,54,84,82,89.61S580,630.41,582,636.42C583.64,641.49,574,666.44,543.34,679Z" transform="translate(-0.47 0.24)"/><path class="cls-8" d="M646.48,622.78s-.39-42.91,19.65-62.73c0,0,8.37-6.23,17.21,0s54.94,42.3,67,48.31,12,16,10,18-30.41,36.36-61.3,33.21S646.87,631.17,646.48,622.78Z" transform="translate(-0.47 0.24)"/><path class="cls-3" d="M711.05,651.26s37.68-32.11,45.48-28.48S723.9,656.07,711.05,651.26Z" transform="translate(-0.47 0.24)"/><path class="cls-12" d="M385.26,413.05c-60.4-52.83-105-56.18-135.66-44.05a259.61,259.61,0,0,0-24.55-13.07c-7.37-21.4-13.21-37.76-17.05-46-16.84-36.22-49.5-90.77-28.16-104.58S343.47,351.84,359.51,373.89C365.16,381.66,374.58,395.89,385.26,413.05Z" transform="translate(-0.47 0.24)"/><path class="cls-13" d="M599.64,635s32.42-30.59,56.47-22.58,43.13,31.23,47.62,48.68-7.54,53.53-17.56,51.53S599.28,661.54,599.64,635Z" transform="translate(-0.47 0.24)"/><path class="cls-2" d="M595.16,632.51a132.09,132.09,0,0,0-64-9.73c-35.42,3.62-29.4,23.66-25.4,33.68S534,718.57,537,730.6s10.94,16,16.95,12,64.21-25,79.2-38.56S652.44,656.66,595.16,632.51Z" transform="translate(-0.47 0.24)"/><path class="cls-3" d="M626.05,698.55s-59.34,19.76-69.75,25.91-7.63,12.86,0,11.51S624.05,704.56,626.05,698.55Z" transform="translate(-0.47 0.24)"/><path class="cls-2" d="M608,688.13s-36.07,36.47-38.08,58.52,11.1,10.28,41.63,20.17,51.91,18.86,62.26,20.39,18.36,3.53,20.37-24.53,0-72.16-28.06-85.18S608,688.13,608,688.13Z" transform="translate(-0.47 0.24)"/><path class="cls-8" d="M602,628.41s-40.08-16-50.1,6,20,36.07,36.07,50.1,52.11,40.08,52.11,40.08,12-18,18-24.05l17-17S618,638.43,602,628.41Z" transform="translate(-0.47 0.24)"/><path class="cls-14" d="M458.27,772.56c38.26,13.55,193.29,50,287.16,58.5-92.89-5.31-268-26.74-353.86-58.36,0,0-70.14-12-92.19-84.17-15.37-50.28-54.07-119-95.81-171-6.21,44.81-4.57,103.35-3.27,131.09.46,9.92.88,15.89.88,15.89l-31.74,6.15-10.34-6.15s.64-4.53,1.66-13c2.06-17.39,5.67-51.42,8.36-97.22,2.18-36.91-6.84-68-15.55-88.66-1.51-1.22-3-2.4-4.49-3.52,0,0-48.1-42.09-52.11-84.18S113,303.22,123,276.43c1.49-3.95,3.35-8.18,5.47-12.53-1.4,3.51-34.79,88.38,0,149.15,4.06,7.09,8.37,13.78,12.9,20.18,19.2,27.17,42,48.82,64.17,71.62,18.26,18.76,36.08,38.3,51.13,62.37,37.63,60.18,63.69,94.25,73.71,131.33S409.75,755.4,458.27,772.56Z" transform="translate(-0.47 0.24)"/><path class="cls-3" d="M804.41,830.82a27.9,27.9,0,0,1-5.07.88C801.15,831.44,802.85,831.16,804.41,830.82Z" transform="translate(-0.47 0.24)"/></svg>