<svg id="Layer_1" data-name="Layer 1" xmlns="http://www.w3.org/2000/svg" viewBox="0 0 1024 1024"><defs><style>.cls-1{fill:#fff;}.cls-16,.cls-2{fill:none;stroke:#fba61d;stroke-miterlimit:10;stroke-width:7.84px;}.cls-3{fill:#82603b;}.cls-4{fill:#ad895e;}.cls-5{fill:#99764f;}.cls-6{fill:#30312b;}.cls-7{fill:#1c2219;}.cls-8{fill:#ffe5ce;}.cls-9{fill:#ee4423;}.cls-10{fill:#ce2417;}.cls-11{fill:#ff6652;}.cls-12{fill:#ffa8a1;}.cls-13{fill:#c1181e;}.cls-14{fill:#c12a16;}.cls-15{fill:#a0150a;}.cls-16{stroke-linecap:round;}</style></defs><rect class="cls-1" width="1024" height="1024"/><rect y="984.95" width="1024" height="39.05"/><path class="cls-1" d="M318.64,992.6H323a13.64,13.64,0,0,1,8.38,2.46,8.15,8.15,0,0,1,3.31,7,8.42,8.42,0,0,1-3.29,7.17,13.72,13.72,0,0,1-8.48,2.48h-4.23Zm2.6,16.93h.91a19.43,19.43,0,0,0,3.82-.36,9.12,9.12,0,0,0,3.13-1.24,6.62,6.62,0,0,0,2.14-2.29,6.87,6.87,0,0,0,.8-3.48,7.34,7.34,0,0,0-.78-3.51,5.72,5.72,0,0,0-2.2-2.27,10.73,10.73,0,0,0-3.11-1.22,17.65,17.65,0,0,0-3.8-.38h-.91Z" transform="translate(-0.47 0.24)"/><path class="cls-1" d="M338.46,1006.16a4.19,4.19,0,0,0,1.1,2.77,3.65,3.65,0,0,0,2.79,1.16,4,4,0,0,0,2.23-.57,5.84,5.84,0,0,0,1.64-1.73l2.11,1.08a6.48,6.48,0,0,1-2.51,2.39,7.25,7.25,0,0,1-3.49.86,6,6,0,0,1-6.36-6.24,6.6,6.6,0,0,1,1.63-4.61,6,6,0,0,1,4.67-1.77,5.63,5.63,0,0,1,4.51,1.77,6.67,6.67,0,0,1,1.55,4.54v.35Zm7.38-1.72a3.5,3.5,0,0,0-1.15-2.17,3.58,3.58,0,0,0-2.42-.79,4.14,4.14,0,0,0-1.34.21,3.56,3.56,0,0,0-1.11.62,3.85,3.85,0,0,0-.8,1,3.8,3.8,0,0,0-.43,1.18Z" transform="translate(-0.47 0.24)"/><path class="cls-1" d="M355.65,1002.56a1.78,1.78,0,0,0-1.66-1,1.44,1.44,0,0,0-.94.35,1,1,0,0,0-.41.82,1.07,1.07,0,0,0,.31.78,3.46,3.46,0,0,0,.87.59l.56.24.63.27c.15.06.28.12.39.15a1.28,1.28,0,0,1,.25.1,7.33,7.33,0,0,1,2.18,1.34,2.66,2.66,0,0,1,.8,2,3.56,3.56,0,0,1-1.32,2.81,4.62,4.62,0,0,1-3.13,1.12,5.37,5.37,0,0,1-1.44-.19,5.79,5.79,0,0,1-1.28-.54,4.23,4.23,0,0,1-1-.83,3.67,3.67,0,0,1-.7-1.1l2.12-.89a2.71,2.71,0,0,0,2.35,1.52,2.13,2.13,0,0,0,1.08-.29,1.89,1.89,0,0,0,.73-.73,1.3,1.3,0,0,0,.1-1,1.79,1.79,0,0,0-.86-1l-2.43-1.19a9.82,9.82,0,0,1-1.1-.62,3.38,3.38,0,0,1-.78-.64,2.35,2.35,0,0,1-.45-.76,2.88,2.88,0,0,1-.15-1,3.12,3.12,0,0,1,1.1-2.43,3.85,3.85,0,0,1,2.71-1,3.73,3.73,0,0,1,3.54,2.08Z" transform="translate(-0.47 0.24)"/><path class="cls-1" d="M364.57,994.43a1.44,1.44,0,0,1-.49,1.09,1.77,1.77,0,0,1-1.22.45,1.73,1.73,0,0,1-1.21-.45,1.45,1.45,0,0,1-.5-1.09,1.5,1.5,0,0,1,.5-1.13,1.7,1.7,0,0,1,1.21-.47,1.74,1.74,0,0,1,1.22.47A1.49,1.49,0,0,1,364.57,994.43Zm-.47,17.28h-2.48V999.85h2.48Z" transform="translate(-0.47 0.24)"/><path class="cls-1" d="M380.19,1011.48a8.53,8.53,0,0,1-1.38,5.2q-1.38,1.83-4.92,1.83a6.81,6.81,0,0,1-4.48-1.45,5,5,0,0,1-1.76-3.93h2.48a3,3,0,0,0,1.06,2.47,4.28,4.28,0,0,0,2.81.88,3.32,3.32,0,0,0,2.92-1.14,5.6,5.6,0,0,0,.78-3.22v-2.26h-.05a5.37,5.37,0,0,1-1.92,1.66,5.27,5.27,0,0,1-2.47.6,5.81,5.81,0,0,1-4.54-1.85,6.62,6.62,0,0,1-1.66-4.56,6.16,6.16,0,0,1,1.69-4.36,5.64,5.64,0,0,1,4.39-1.85,5.22,5.22,0,0,1,4.51,2.38h.05v-2h2.49Zm-6.55-1.39a3.89,3.89,0,0,0,3.07-1.24,4.44,4.44,0,0,0,1.14-3.07,4.28,4.28,0,0,0-1.14-3,3.9,3.9,0,0,0-3.07-1.25,3.82,3.82,0,0,0-3,1.27,4.65,4.65,0,0,0,0,6A3.79,3.79,0,0,0,373.64,1010.09Z" transform="translate(-0.47 0.24)"/><path class="cls-1" d="M385.91,1001.45H386a3.7,3.7,0,0,1,1.6-1.45,5.34,5.34,0,0,1,2.3-.5,5.94,5.94,0,0,1,2.15.35,3.42,3.42,0,0,1,1.42,1,4.06,4.06,0,0,1,.78,1.6,9.51,9.51,0,0,1,.23,2.17v7.07H392v-6.79a4.54,4.54,0,0,0-.56-2.55,2.54,2.54,0,0,0-2.29-.85,4.13,4.13,0,0,0-1.08.12,2.84,2.84,0,0,0-.77.33,2.24,2.24,0,0,0-.56.49,7.19,7.19,0,0,0-.41.61,1.91,1.91,0,0,0-.15.46c0,.18-.09.37-.13.57s-.06.39-.08.58,0,.35,0,.47v6.56h-2.48V999.85h2.48Z" transform="translate(-0.47 0.24)"/><path class="cls-1" d="M405.67,989.72h2.49v12.11h.06a5.33,5.33,0,0,1,4.5-2.33,5.65,5.65,0,0,1,4.4,1.85,6.15,6.15,0,0,1,1.68,4.36,6.61,6.61,0,0,1-1.65,4.56,5.81,5.81,0,0,1-4.54,1.85,5.27,5.27,0,0,1-2.47-.6,5.37,5.37,0,0,1-1.92-1.66h-.06v1.85h-2.49Zm6.45,20.37a3.86,3.86,0,0,0,3.06-1.24,4.44,4.44,0,0,0,1.14-3.07,4.28,4.28,0,0,0-1.14-3,4.26,4.26,0,0,0-6.05,0,4.65,4.65,0,0,0,0,6A3.81,3.81,0,0,0,412.12,1010.09Z" transform="translate(-0.47 0.24)"/><path class="cls-1" d="M419.16,999.85h2.91l4.36,7.53,4.06-7.53h2.8l-10.48,18.66H420l5.09-8.82Z" transform="translate(-0.47 0.24)"/><path class="cls-1" d="M445.84,1006.92l-2.38,4.79h-2.79l9.95-19.92,9.95,19.92h-2.79l-2.38-4.79Zm4.78-9.91-3.71,7.73h7.41Z" transform="translate(-0.47 0.24)"/><path class="cls-1" d="M464.63,1011.71h-2.49v-22h2.49Z" transform="translate(-0.47 0.24)"/><path class="cls-1" d="M470.76,1011.71h-2.48v-22h2.48Z" transform="translate(-0.47 0.24)"/><path class="cls-1" d="M480.22,1002.64v1.9h-6.05v-1.9Z" transform="translate(-0.47 0.24)"/><path class="cls-1" d="M489.89,992a5.08,5.08,0,0,0-1.66-.48,1.37,1.37,0,0,0-1.16.47,2.81,2.81,0,0,0-.5,1.15c-.05.34-.08.61-.09.8s0,.46,0,.8v5.09h3.43V1002h-3.43v9.73H484V1002h-1.13v-2.13H484v-5.78c0-3.1,1.39-4.66,4.17-4.66a5.06,5.06,0,0,1,1.74.31Z" transform="translate(-0.47 0.24)"/><path class="cls-1" d="M493.73,1001.78h.08a3.81,3.81,0,0,1,1.39-1.67,3.74,3.74,0,0,1,2.15-.61,4.1,4.1,0,0,1,2,.58l-1.13,2.08a2.4,2.4,0,0,0-1.52-.48,2.51,2.51,0,0,0-2.55,1.42,5.77,5.77,0,0,0-.37,1.3,9.31,9.31,0,0,0-.1,1.48v5.83h-2.48V999.85h2.48Z" transform="translate(-0.47 0.24)"/><path class="cls-1" d="M502.27,1006.16a4.25,4.25,0,0,0,1.11,2.77,3.65,3.65,0,0,0,2.79,1.16,4,4,0,0,0,2.23-.57,6,6,0,0,0,1.64-1.73l2.1,1.08a6.46,6.46,0,0,1-2.5,2.39,7.28,7.28,0,0,1-3.5.86,6,6,0,0,1-6.35-6.24,6.6,6.6,0,0,1,1.63-4.61,6,6,0,0,1,4.67-1.77,5.6,5.6,0,0,1,4.5,1.77,6.67,6.67,0,0,1,1.55,4.54v.35Zm7.39-1.72a3.34,3.34,0,0,0-3.57-3,4.14,4.14,0,0,0-1.34.21,3.45,3.45,0,0,0-1.11.62,3.64,3.64,0,0,0-.8,1,3.56,3.56,0,0,0-.43,1.18Z" transform="translate(-0.47 0.24)"/><path class="cls-1" d="M515.76,1006.16a4.25,4.25,0,0,0,1.11,2.77,3.63,3.63,0,0,0,2.78,1.16,4,4,0,0,0,2.23-.57,5.84,5.84,0,0,0,1.64-1.73l2.11,1.08a6.6,6.6,0,0,1-2.5,2.39,7.31,7.31,0,0,1-3.5.86,6,6,0,0,1-6.36-6.24,6.6,6.6,0,0,1,1.64-4.61,6,6,0,0,1,4.66-1.77,5.63,5.63,0,0,1,4.51,1.77,6.67,6.67,0,0,1,1.55,4.54v.35Zm7.38-1.72a3.5,3.5,0,0,0-1.15-2.17,3.58,3.58,0,0,0-2.42-.79,4.18,4.18,0,0,0-1.34.21,3.4,3.4,0,0,0-1.1.62,3.46,3.46,0,0,0-.8,1,3.36,3.36,0,0,0-.43,1.18Z" transform="translate(-0.47 0.24)"/><path class="cls-1" d="M533.67,1002.64v1.9h-6v-1.9Z" transform="translate(-0.47 0.24)"/><path class="cls-1" d="M546.58,1009.86h-.06a5.37,5.37,0,0,1-1.92,1.66,5.24,5.24,0,0,1-2.47.6,5.81,5.81,0,0,1-4.54-1.85,6.61,6.61,0,0,1-1.65-4.56,6.15,6.15,0,0,1,1.68-4.36,5.65,5.65,0,0,1,4.4-1.85,5.33,5.33,0,0,1,4.5,2.33h.06V989.72h2.49v22h-2.49Zm-4.07.23a3.88,3.88,0,0,0,3.07-1.24,4.43,4.43,0,0,0,1.13-3.07,4.27,4.27,0,0,0-1.13-3,3.89,3.89,0,0,0-3.07-1.25,3.82,3.82,0,0,0-3,1.27,4.68,4.68,0,0,0,0,6A3.79,3.79,0,0,0,542.51,1010.09Z" transform="translate(-0.47 0.24)"/><path class="cls-1" d="M553.13,1001.32a7.08,7.08,0,0,1,4.92-1.82,7,7,0,0,1,4.89,1.82,6,6,0,0,1,0,9,7,7,0,0,1-4.89,1.83,7,7,0,0,1-4.92-1.83,6,6,0,0,1,0-9Zm.49,4.49a4,4,0,0,0,1.3,2.91,4.36,4.36,0,0,0,3.13,1.22,4.42,4.42,0,0,0,3.12-1.22,3.94,3.94,0,0,0,0-5.83,4.46,4.46,0,0,0-3.12-1.21,4.4,4.4,0,0,0-3.13,1.21A3.94,3.94,0,0,0,553.62,1005.81Z" transform="translate(-0.47 0.24)"/><path class="cls-1" d="M571.64,1007.41l3.82-8.21,3.79,8.21,3.75-7.56h2.82l-6.57,12.27-3.79-7.93-3.82,7.93-6.57-12.27h2.81Z" transform="translate(-0.47 0.24)"/><path class="cls-1" d="M589.55,1001.45h.06a3.67,3.67,0,0,1,1.61-1.45,5.29,5.29,0,0,1,2.29-.5,6,6,0,0,1,2.16.35,3.39,3.39,0,0,1,1.41,1,3.93,3.93,0,0,1,.78,1.6,9,9,0,0,1,.23,2.17v7.07H595.6v-6.79a4.55,4.55,0,0,0-.55-2.55,2.54,2.54,0,0,0-2.29-.85,4.18,4.18,0,0,0-1.08.12,2.84,2.84,0,0,0-.77.33,2.43,2.43,0,0,0-.56.49,7.19,7.19,0,0,0-.41.61,3.56,3.56,0,0,0-.15.46,4.78,4.78,0,0,0-.12.57,5.81,5.81,0,0,0-.09.58c0,.19,0,.35,0,.47v6.56h-2.48V999.85h2.48Z" transform="translate(-0.47 0.24)"/><path class="cls-1" d="M604.12,1011.71h-2.49v-22h2.49Z" transform="translate(-0.47 0.24)"/><path class="cls-1" d="M608.49,1001.32a7.08,7.08,0,0,1,4.92-1.82,7,7,0,0,1,4.89,1.82,6,6,0,0,1,0,9,7,7,0,0,1-4.89,1.83,7,7,0,0,1-4.92-1.83,6,6,0,0,1,0-9Zm.5,4.49a4,4,0,0,0,1.29,2.91,4.61,4.61,0,0,0,6.25,0,3.92,3.92,0,0,0,0-5.83,4.64,4.64,0,0,0-6.25,0A3.93,3.93,0,0,0,609,1005.81Z" transform="translate(-0.47 0.24)"/><path class="cls-1" d="M634.72,1011.71h-2.49v-1.85h-.05a5.2,5.2,0,0,1-4.4,2.26,5.86,5.86,0,0,1-4.54-1.85,6.61,6.61,0,0,1-1.65-4.56,6.15,6.15,0,0,1,1.68-4.36,5.69,5.69,0,0,1,4.43-1.85,5.34,5.34,0,0,1,4.48,2.33h.05v-2h2.49Zm-6.55-1.62a3.87,3.87,0,0,0,3.06-1.24,4.44,4.44,0,0,0,1.14-3.07,4.28,4.28,0,0,0-1.14-3,3.88,3.88,0,0,0-3.06-1.25,3.82,3.82,0,0,0-3,1.27,4.68,4.68,0,0,0,0,6A3.79,3.79,0,0,0,628.17,1010.09Z" transform="translate(-0.47 0.24)"/><path class="cls-1" d="M647.59,1009.86h-.05a5.37,5.37,0,0,1-1.92,1.66,5.24,5.24,0,0,1-2.47.6,5.77,5.77,0,0,1-4.53-1.85,6.57,6.57,0,0,1-1.66-4.56,6.08,6.08,0,0,1,1.69-4.36A5.62,5.62,0,0,1,643,999.5a5.34,5.34,0,0,1,4.51,2.33h.05V989.72h2.5v22h-2.5Zm-4.05.23a3.89,3.89,0,0,0,3.06-1.24,4.44,4.44,0,0,0,1.14-3.07,4.28,4.28,0,0,0-1.14-3,3.89,3.89,0,0,0-3.06-1.25,3.82,3.82,0,0,0-3,1.27,4.68,4.68,0,0,0,0,6A3.79,3.79,0,0,0,643.54,1010.09Z" transform="translate(-0.47 0.24)"/><path class="cls-1" d="M657.22,1010.65a1.37,1.37,0,0,1-.47,1,1.64,1.64,0,0,1-1.14.43,1.6,1.6,0,0,1-1.13-.43,1.37,1.37,0,0,1-.47-1,1.4,1.4,0,0,1,.47-1,1.6,1.6,0,0,1,1.13-.44,1.65,1.65,0,0,1,1.14.44A1.4,1.4,0,0,1,657.22,1010.65Z" transform="translate(-0.47 0.24)"/><path class="cls-1" d="M670.82,1003.22a5,5,0,0,0-3.71-1.59,4.19,4.19,0,0,0-3.06,1.24,4,4,0,0,0-1.25,2.91,3.92,3.92,0,0,0,1.25,3,4.6,4.6,0,0,0,3.23,1.19,4.84,4.84,0,0,0,3.54-1.57v2.91a8,8,0,0,1-3.57.79,7.18,7.18,0,0,1-4.92-1.8,5.65,5.65,0,0,1-2-4.44,5.89,5.89,0,0,1,2-4.56,7.27,7.27,0,0,1,5.06-1.82,7.12,7.12,0,0,1,3.43.78Z" transform="translate(-0.47 0.24)"/><path class="cls-1" d="M674.33,1001.32a7.07,7.07,0,0,1,4.91-1.82,7,7,0,0,1,4.89,1.82,6,6,0,0,1,0,9,6.93,6.93,0,0,1-4.89,1.83,7,7,0,0,1-4.91-1.83,6,6,0,0,1,0-9Zm.49,4.49a3.93,3.93,0,0,0,1.3,2.91,4.36,4.36,0,0,0,3.12,1.22,4.43,4.43,0,0,0,3.13-1.22,3.92,3.92,0,0,0,0-5.83,4.47,4.47,0,0,0-3.13-1.21,4.39,4.39,0,0,0-3.12,1.21A3.9,3.9,0,0,0,674.82,1005.81Z" transform="translate(-0.47 0.24)"/><path class="cls-1" d="M690.82,1001.35h.06a4.36,4.36,0,0,1,1.48-1.34,4,4,0,0,1,1.94-.51,4.18,4.18,0,0,1,3.74,2.1,4.34,4.34,0,0,1,1.67-1.53,4.82,4.82,0,0,1,2.31-.57c2.86,0,4.28,1.71,4.28,5.12v7.09h-2.49V1005a8.77,8.77,0,0,0,0-.9,4.68,4.68,0,0,0-.15-.86,2.7,2.7,0,0,0-.33-.78,2.27,2.27,0,0,0-.61-.63,2.44,2.44,0,0,0-1.27-.31,2.75,2.75,0,0,0-1.33.31,2.22,2.22,0,0,0-.81.69,3.72,3.72,0,0,0-.46,1.06,8.22,8.22,0,0,0-.21,1.14c0,.33,0,.73,0,1.16v5.83h-2.49v-6.28c0-.41,0-.74,0-1a9,9,0,0,0-.16-1,2.62,2.62,0,0,0-.37-1,2,2,0,0,0-.69-.64,2.23,2.23,0,0,0-1.13-.28,2.34,2.34,0,0,0-2.46,1.52,6.3,6.3,0,0,0-.33,1.35,10.73,10.73,0,0,0-.09,1.49v5.83h-2.48V999.85h2.48Z" transform="translate(-0.47 0.24)"/><rect class="cls-1" x="260.19" y="1003.41" width="35.21" height="1.58"/><rect class="cls-1" x="728.61" y="1003.41" width="35.2" height="1.58"/><rect class="cls-2" x="737.14" y="179.7" width="54.72" height="41.17" rx="19.98" transform="translate(327.11 -458.01) rotate(41.76)"/><path class="cls-3" d="M677.31,98.8s74.76,70.91,101.29,89.39l-18.73,21s-80.6-51.43-93.15-73C666.72,136.13,665.16,116.4,677.31,98.8Z" transform="translate(-0.47 0.24)"/><path class="cls-4" d="M799.25,253.73s-16.63-38.82-14-57.23a3.3,3.3,0,0,0-1-2.83c-3.51-3.45-13.55-13.2-18.36-16.41-5.07-3.38-41.3-28.44-73.57-36a3.34,3.34,0,0,0-2.64,6c19.49,13.33,55.93,40.6,64.45,63.3,11.76,31.37,25.36,28.55,24.44,30s19.8,38.66,27.09,56.31l.21.53a3.35,3.35,0,0,0,6.42-1.7C810.91,284.87,807.22,271,799.25,253.73Z" transform="translate(-0.47 0.24)"/><path class="cls-5" d="M824,468.41s45.85-22.55,45.85-30.39l-11.29-23S826.73,435.67,812,435.86Z" transform="translate(-0.47 0.24)"/><path class="cls-6" d="M732.59,320.39,713,559.58s-39.22,13.72-64.7,9.8c0,0-13.73,2-27.45-27.45,0,0-15.69-194.1-19.61-217.62s23.53-27.45,23.53-27.45l8.08,4.78,44.86,26.59,25.48,2,17.65-2Z" transform="translate(-0.47 0.24)"/><path class="cls-6" d="M947,734.68v0a127.31,127.31,0,0,1-2.66,17c-3.92,15.68-13.73,35.29-64.7,45.09S785.53,789,756.12,773.28s-58.82-47-60.78-68.62c-.29-3.13-.67-6.57-1.12-10.11-2.6-20.9-7.41-46.49-7.41-46.49s194.79,3.67,232,11.51c9.7,2,16.35,8.19,20.8,16.49,4.37,8.11,6.63,18.29,7.59,28.58A163.16,163.16,0,0,1,947,734.68Z" transform="translate(-0.47 0.24)"/><path class="cls-7" d="M947,734.68v0c-7.39,35.25-41.58,49.35-81.42,49.35-58.27,0-136.63-40.22-164.77-77.76a53.12,53.12,0,0,1-6.59-11.76c-2.6-20.9-7.41-46.49-7.41-46.49s194.79,3.67,232,11.51c9.7,2,16.35,8.19,20.8,16.49a150.93,150.93,0,0,1,7.59,28.58C949,716,948.83,726,947,734.68Z" transform="translate(-0.47 0.24)"/><path class="cls-7" d="M732.59,320.39,713,559.58s-39.22,13.72-64.7,9.8L632.84,301.64l44.86,26.59,25.48,2,17.65-2Z" transform="translate(-0.47 0.24)"/><path class="cls-8" d="M858.07,755.64c-56.86,0-133.32-39.21-160.77-75.82s7.84-96.71,0-145.73-41.17-102-80.38-163.2S585.55,249.8,591.43,240c3.27-5.47,10.84-23.15,16.88-37.72v0c4.78-11.51,8.61-21.06,8.61-21.06,13.72-31.37,45.09-45.09,65.79-41.46s63.61,27.74,85.17,88.52S771.8,342,771.8,342C789.45,369.4,830.62,487,830.62,487c27.45,0,66.66,78.42,98,158.8S914.93,755.64,858.07,755.64Z" transform="translate(-0.47 0.24)"/><path class="cls-4" d="M892,562.11c-6.31,6.13-14.26,10.13-22.18,4.47C852.19,554,830.62,487,830.62,487,848,487,870.15,518.56,892,562.11Z" transform="translate(-0.47 0.24)"/><path class="cls-4" d="M771.8,342s-42.87-90.19-94-88.22-67.07,20.74-67.07,20.74l-2.45-72.19v0c4.78-11.51,8.61-21.06,8.61-21.06,13.72-31.37,45.09-45.09,65.79-41.46s63.61,27.74,85.17,88.52S771.8,342,771.8,342Z" transform="translate(-0.47 0.24)"/><path class="cls-9" d="M937,709.52c-8,32.92-40.88,46.12-79,46.12-56.86,0-133.32-39.21-160.77-75.82a54.19,54.19,0,0,1-8.41-17.13c-35.09-96.05,2.53-136.44,2.53-136.44-7.84-49-35.29-94.11-74.5-155.36S585.55,249.8,591.43,240s25.49-58.82,25.49-58.82-.41,3.3-1,8.94c-1.22,11.16-3.26,31.53-4.61,54.1-2.18,36.76-2.51,79.3,5.65,97,0,0,72.54,110.52,84.3,169.33,0,0-1.23,24-11.29,45.82s-2.18,42.19,5.65,46.72,32.56-10.05,32.56-10.05v0c8.35-3.28,20.65-6.83,34.61-10.14,31.13-7.39,70.56-13.61,93.07-12.8,6.39.21,11-1,14-3.51,13.85-11.22-5.43-47.37-39.21-79.54,17.41,0,39.53,31.52,61.39,75.07,12.62,25.15,25.15,54.31,36.64,83.73C939,672.37,941,693.33,937,709.52Z" transform="translate(-0.47 0.24)"/><path class="cls-9" d="M656.13,145.89s-31.37,37.25-31.37,84.31,27.68,146.36,58,167.29,59.23,17.94,80,19.43,79.63,1.5,93.35-6.35c0,0,9.8,17.65,13.72,27.45,0,0-15.68,13.73-80.38,13.73s-100-23.53-115.68-37.26-59-81.91-64.7-154.88C601.23,159.62,656.13,145.89,656.13,145.89Z" transform="translate(-0.47 0.24)"/><path class="cls-5" d="M699.26,518.41s-31.37,7.84-43.13-2c0,0-2-25.49-7.84-35.3,0,0,28.55,9.81,39.76,0C688.05,481.15,693.38,510.56,699.26,518.41Z" transform="translate(-0.47 0.24)"/><path class="cls-8" d="M728.14,593.05s-24.74,14.56-32.56,10.05-15.71-24.9-5.65-46.72,11.29-45.82,11.29-45.82c11.77,58.82,5.88,72.55,5.88,72.55s-5.88,23.52,14.71,12.74A63.92,63.92,0,0,1,728.14,593.05Z" transform="translate(-0.47 0.24)"/><path class="cls-10" d="M937,709.52c-8,32.92-40.88,46.12-79,46.12-56.86,0-133.32-39.21-160.77-75.82a54.19,54.19,0,0,1-8.41-17.13c-35.09-96.05,2.53-136.44,2.53-136.44-7.84-49-35.29-94.11-74.5-155.36S585.55,249.8,591.43,240s25.49-58.82,25.49-58.82-.41,3.3-1,8.94a319.85,319.85,0,0,0-4.61,54.1c-2.18,36.76-2.51,79.3,5.65,97,0,0,72.54,110.52,84.3,169.33,0,0-1.23,24-11.29,45.82s-2.18,42.19,5.65,46.72,32.56-10.05,32.56-10.05v0c8.35-3.28,20.65-6.83,34.61-10.14,0,0-30.69,14.23-40.12,44s41.12,102.18,108,112C875.79,745.58,917.3,734.19,937,709.52Z" transform="translate(-0.47 0.24)"/><path class="cls-9" d="M643,477.28s-1.33-10.3,34.34-35.56,149.39-107.61,121.94-188c0,0,17.65,33.33,17.65,60.77s-29.16,93.66-80.26,127.22-78.55,63-80.51,74.73C656.13,516.45,649.42,489.09,643,477.28Z" transform="translate(-0.47 0.24)"/><path class="cls-11" d="M893,617.42s25.49,36,0,52.53-13.13,43.83,11.33,33S941.28,655.27,893,617.42Z" transform="translate(-0.47 0.24)"/><path class="cls-12" d="M893,688.93s-4.31-10.2,15.83-12.47c5.41-.61,7.12-18.52,7.12-18.52S925.6,697.13,893,688.93Z" transform="translate(-0.47 0.24)"/><path class="cls-4" d="M435.17,541.31s75.29-43.84,82.11-49c0,0,14.64,12.51,18.55,22.32s-64.89,53.25-84.44,55S435.17,541.31,435.17,541.31Z" transform="translate(-0.47 0.24)"/><path class="cls-5" d="M306.75,255.73s35.33,7.68,62.74,37.13S521.8,472,534.68,509c0,0-41.94-23.85-55.67-21.91,0,0-64.57-92.24-92-121.69s-88.12-110.76-123.42-89.8C263.61,275.62,293,252,306.75,255.73Z" transform="translate(-0.47 0.24)"/><path class="cls-6" d="M782.47,801.22c0,9.81-4,29.41-4,29.41-9.84,27.43-66.71,37.16-66.71,37.16-139.23,17.45-250.94-16-286.2-35.69-18.63-10.38-32.33-32.24-41.1-50.54a216.89,216.89,0,0,1-11.76-29.88s380.37,12.25,398,14.24c9.92,1.11,12.39,9.05,12.66,17.5v.4C783.56,790.29,782.48,797,782.47,801.22Z" transform="translate(-0.47 0.24)"/><path class="cls-7" d="M783.42,783.42v.4c-1.33,25-22.39,38.65-39.87,45.64A117.13,117.13,0,0,1,720,836.15c-143.3,26.2-262.6-18.65-304.36-32.9a67,67,0,0,1-31.14-21.69,216.89,216.89,0,0,1-11.76-29.88s380.37,12.25,398,14.24C780.68,767,783.15,775,783.42,783.42Z" transform="translate(-0.47 0.24)"/><path class="cls-6" d="M340.82,464.45l-.28,201.86-84.37,46.94c-39.2-7.9-58.77-33.41-58.77-33.41-7.7-102-25.18-221.58-25.18-221.58-12.61-27.14,78.12-50.79,107.67-42a18.07,18.07,0,0,1,6.1,2.95C305.57,434.91,340.82,464.45,340.82,464.45Z" transform="translate(-0.47 0.24)"/><path class="cls-7" d="M340.82,464.45l-.28,201.86-84.37,46.94s-9.85-246.07-21.88-268.63c-5.79-10.85,18.68-20.88,45.6-28.37a18.07,18.07,0,0,1,6.1,2.95C305.57,434.91,340.82,464.45,340.82,464.45Z" transform="translate(-0.47 0.24)"/><path class="cls-9" d="M735.09,810.35a117,117,0,0,1-23.22,6.46c-141.2,25.29-258.78-18-299.93-31.78s-48.94-55-62.61-96.16S318.07,616.29,290.67,577C269.42,546.58,221,506.65,192,481c-8.36-7.41-15.12-13.63-19.13-18.07-17.91-19.84-11.38-66.48-11.38-66.48a231.75,231.75,0,0,1,22.75-73.14c9.43-18.39,21.55-34.77,36.23-45.86a78.1,78.1,0,0,1,9.82-6.38c12.83-7,25.46-8,37.65-4.52,25.08,7.17,48.4,33.11,68.14,63.48,29.34,45.14,17.5,105.9,17.5,105.9,10.82,10,35.83,43.36,59.67,76.51.14.19.25.39.41.57.94,1.33,1.9,2.66,2.84,4q2.67,3.68,5.18,7.24c24.5,34.44,45.69,65.43,45.69,65.43,57.14-3.21,152.61,15.25,167.13,21.19s56,39.25,95.16,76.56,41.1,56.91,41.1,56.91C784.44,783,756.94,801.78,735.09,810.35Z" transform="translate(-0.47 0.24)"/><path class="cls-10" d="M735.09,810.35a117,117,0,0,1-23.22,6.46c-141.2,25.29-258.78-18-299.93-31.78s-48.94-55-62.61-96.16S318.07,616.29,290.67,577C269.42,546.58,221,506.65,192,481c-8.36-7.41-15.12-13.63-19.13-18.07-17.91-19.84-11.38-66.48-11.38-66.48a231.75,231.75,0,0,1,22.75-73.14c9.43-18.39,21.55-34.77,36.23-45.86a78.1,78.1,0,0,1,9.82-6.38c12.83-7,25.46-8,37.65-4.52l-3.13,36.23L279.64,375l-87.76,31.64,82.89,75,92.3,144.51,31.74,12.57,86.47,40.82,83.58.12s-71.26,34.09-134.12,19.2c0,0-17.49,33.19,17.61,55.31C483.15,773.6,618.28,823,735.09,810.35Z" transform="translate(-0.47 0.24)"/><path class="cls-13" d="M255.82,459.23c-3.06-2.14-71.55-49.89-62-9.22,2,8.67,1,19.43-1.77,31-8.36-7.41-15.12-13.63-19.13-18.07-17.91-19.84-11.38-66.48-11.38-66.48a231.75,231.75,0,0,1,22.75-73.14C195.14,360.2,219.88,431.34,255.82,459.23Z" transform="translate(-0.47 0.24)"/><path class="cls-8" d="M633.7,632.41C629,643,601.76,664.05,568.86,679.67c-22,10.45-46.55,18.46-68.57,19.21-54.9,1.89-129.36-29.59-129.36-29.59s-1.95-7.84-37.15-74.55S220.24,471.07,220.24,471.07s-8.13-17.94-19.88-73.06c-.25-1.2-.53-2.44-.78-3.67q-1.35-6.42-2.75-13.49C183.2,312.21,220.5,277.48,220.5,277.48a78.1,78.1,0,0,1,9.82-6.38c39.24-21.51,76.44,13.83,105.79,59S353.61,436,353.61,436c.62.57,1.29,1.24,2,2,11.69,11.84,35.19,43.3,57.66,74.55.14.19.25.39.41.57.31.49.65,1,1,1.43l1.84,2.55q2.67,3.68,5.18,7.24c30.88,43.82,45.68,73.86,45.68,73.86l119.29,10.69S641.57,614.77,633.7,632.41Z" transform="translate(-0.47 0.24)"/><path class="cls-4" d="M353.61,436c-3.66-4.28-7.95-8.95-12.73-13.8C315.08,396,275,365,242,363.26c-39.21-2-41.59,34.75-41.59,34.75-.25-1.2-.53-2.44-.78-3.67q-1.35-6.42-2.75-13.49C183.2,312.21,220.5,277.48,220.5,277.48a78.1,78.1,0,0,1,9.82-6.38c22.46-12.32,44.26-6,64.29,10.13,15,12,29,29.54,41.5,48.83C365.45,375.2,353.61,436,353.61,436Z" transform="translate(-0.47 0.24)"/><path class="cls-3" d="M353.61,436c-3.66-4.28-7.95-8.95-12.73-13.8,0,0,25-59.57-46.27-140.93,15,12,29,29.54,41.5,48.83C365.45,375.2,353.61,436,353.61,436Z" transform="translate(-0.47 0.24)"/><path class="cls-14" d="M238.72,267.34s52.41-19.68,60.25-17.71,10.59,14,4.3,17.8S277.36,281,263.64,279s-33.33-4.91-43.14-1.51C220.5,277.48,233.39,267.49,238.72,267.34Z" transform="translate(-0.47 0.24)"/><path class="cls-15" d="M228.79,276s40.7,1.85,51-2.61c21.07-9.1,23.92-13.37,19.12-18.9S246.9,266.31,228.79,276Z" transform="translate(-0.47 0.24)"/><path class="cls-9" d="M213.05,414.48c4-22.85,29.83-146.24,93.7-158.75,0,0-34.48-1.19-62.34,20.81-27.29,21.54-50.79,98-52.53,130.14a2.92,2.92,0,0,0,1.69,2.78l15.36,7.15A2.92,2.92,0,0,0,213.05,414.48Z" transform="translate(-0.47 0.24)"/><path class="cls-4" d="M633.7,632.41C629,643,601.76,664.05,568.86,679.67c-18.27-4.28-41.4-10.3-51.82-15.51-18.56-9.26-49.65-66-49.65-66l119.29,10.69S641.57,614.77,633.7,632.41Z" transform="translate(-0.47 0.24)"/><path class="cls-9" d="M70.37,264.38s.8,3.17-.06,40.13c0,0,32.5,13.47,81.44,68.43S417.62,502.71,472.81,505.73s57.15,5,63,8.91c0,0-5.84-29.42-9.75-39.23,0,0-198-19.88-346.86-120.08,0,0-17.62-13.74-31.32-29.45S102.53,273.6,70.37,264.38Z" transform="translate(-0.47 0.24)"/><circle class="cls-13" cx="158.74" cy="360.8" r="4.76"/><circle class="cls-13" cx="146.05" cy="344.95" r="4.76"/><circle class="cls-13" cx="130.19" cy="329.09" r="4.76"/><circle class="cls-13" cx="114.34" cy="313.23" r="4.76"/><rect class="cls-2" x="150.59" y="354.31" width="54.72" height="41.17" rx="19.98" transform="translate(251.84 -33.14) rotate(35.72)"/><path class="cls-9" d="M311.55,608.62s8.43,39,14.31,44.93c0,0-5.88-5.89,41.21-27.39s129.47-54.72,141.26-74.31,8.5-42.85,8.5-42.85-43.23,34.71-98.57,55C361.24,585,311.55,608.62,311.55,608.62Z" transform="translate(-0.47 0.24)"/><path class="cls-9" d="M526.08,475.41S334.42,456.17,186.46,360.12l-16.14,29.21C241.05,441.67,422.94,503,472.81,505.73c55.19,3,57.15,5,63,8.91C535.83,514.64,530,485.22,526.08,475.41Z" transform="translate(-0.47 0.24)"/><circle class="cls-13" cx="177.77" cy="373.49" r="4.76"/><line class="cls-16" x1="206.15" y1="391.88" x2="180.69" y2="374.2"/><path class="cls-11" d="M691.6,674.93s24.25,34.56,26.34,58.92,32.27,30.39,27.92,0S691.6,674.93,691.6,674.93Z" transform="translate(-0.47 0.24)"/><path class="cls-12" d="M722.74,713s-2.44,22.17,8.93,27.63S740.5,721.14,722.74,713Z" transform="translate(-0.47 0.24)"/><line class="cls-16" x1="756.67" y1="190.25" x2="769.21" y2="202.8"/></svg>