<svg id="Layer_1" data-name="Layer 1" xmlns="http://www.w3.org/2000/svg" viewBox="0 0 1024 1024"><defs><style>.cls-1,.cls-9{fill:#fff;}.cls-2{fill:#acbccc;}.cls-3{fill:#8194a8;}.cls-4{fill:#a3b5c4;}.cls-5{fill:#bb936d;}.cls-6{fill:#a57a56;}.cls-7{fill:#915e32;}.cls-8{fill:#191b1c;}.cls-9{opacity:0.34;}</style></defs><rect class="cls-1" width="1024" height="1024"/><rect y="984.95" width="1024" height="39.05"/><path class="cls-1" d="M318.64,992.6H323a13.64,13.64,0,0,1,8.38,2.46,8.15,8.15,0,0,1,3.31,7,8.42,8.42,0,0,1-3.29,7.17,13.72,13.72,0,0,1-8.48,2.48h-4.23Zm2.6,16.93h.91a19.43,19.43,0,0,0,3.82-.36,9.12,9.12,0,0,0,3.13-1.24,6.62,6.62,0,0,0,2.14-2.29,6.87,6.87,0,0,0,.8-3.48,7.34,7.34,0,0,0-.78-3.51,5.72,5.72,0,0,0-2.2-2.27,10.73,10.73,0,0,0-3.11-1.22,17.65,17.65,0,0,0-3.8-.38h-.91Z" transform="translate(-0.47 0.24)"/><path class="cls-1" d="M338.46,1006.16a4.19,4.19,0,0,0,1.1,2.77,3.65,3.65,0,0,0,2.79,1.16,4,4,0,0,0,2.23-.57,5.84,5.84,0,0,0,1.64-1.73l2.11,1.08a6.48,6.48,0,0,1-2.51,2.39,7.25,7.25,0,0,1-3.49.86,6,6,0,0,1-6.36-6.24,6.6,6.6,0,0,1,1.63-4.61,6,6,0,0,1,4.67-1.77,5.63,5.63,0,0,1,4.51,1.77,6.67,6.67,0,0,1,1.55,4.54v.35Zm7.38-1.72a3.5,3.5,0,0,0-1.15-2.17,3.58,3.58,0,0,0-2.42-.79,4.14,4.14,0,0,0-1.34.21,3.56,3.56,0,0,0-1.11.62,3.85,3.85,0,0,0-.8,1,3.8,3.8,0,0,0-.43,1.18Z" transform="translate(-0.47 0.24)"/><path class="cls-1" d="M355.65,1002.56a1.78,1.78,0,0,0-1.66-1,1.44,1.44,0,0,0-.94.35,1,1,0,0,0-.41.82,1.07,1.07,0,0,0,.31.78,3.46,3.46,0,0,0,.87.59l.56.24.63.27c.15.06.28.12.39.15a1.28,1.28,0,0,1,.25.1,7.33,7.33,0,0,1,2.18,1.34,2.66,2.66,0,0,1,.8,2,3.56,3.56,0,0,1-1.32,2.81,4.62,4.62,0,0,1-3.13,1.12,5.37,5.37,0,0,1-1.44-.19,5.79,5.79,0,0,1-1.28-.54,4.23,4.23,0,0,1-1-.83,3.67,3.67,0,0,1-.7-1.1l2.12-.89a2.71,2.71,0,0,0,2.35,1.52,2.13,2.13,0,0,0,1.08-.29,1.89,1.89,0,0,0,.73-.73,1.3,1.3,0,0,0,.1-1,1.79,1.79,0,0,0-.86-1l-2.43-1.19a9.82,9.82,0,0,1-1.1-.62,3.38,3.38,0,0,1-.78-.64,2.35,2.35,0,0,1-.45-.76,2.88,2.88,0,0,1-.15-1,3.12,3.12,0,0,1,1.1-2.43,3.85,3.85,0,0,1,2.71-1,3.73,3.73,0,0,1,3.54,2.08Z" transform="translate(-0.47 0.24)"/><path class="cls-1" d="M364.57,994.43a1.44,1.44,0,0,1-.49,1.09,1.77,1.77,0,0,1-1.22.45,1.73,1.73,0,0,1-1.21-.45,1.45,1.45,0,0,1-.5-1.09,1.5,1.5,0,0,1,.5-1.13,1.7,1.7,0,0,1,1.21-.47,1.74,1.74,0,0,1,1.22.47A1.49,1.49,0,0,1,364.57,994.43Zm-.47,17.28h-2.48V999.85h2.48Z" transform="translate(-0.47 0.24)"/><path class="cls-1" d="M380.19,1011.48a8.53,8.53,0,0,1-1.38,5.2q-1.38,1.83-4.92,1.83a6.81,6.81,0,0,1-4.48-1.45,5,5,0,0,1-1.76-3.93h2.48a3,3,0,0,0,1.06,2.47,4.28,4.28,0,0,0,2.81.88,3.32,3.32,0,0,0,2.92-1.14,5.6,5.6,0,0,0,.78-3.22v-2.26h-.05a5.37,5.37,0,0,1-1.92,1.66,5.27,5.27,0,0,1-2.47.6,5.81,5.81,0,0,1-4.54-1.85,6.62,6.62,0,0,1-1.66-4.56,6.16,6.16,0,0,1,1.69-4.36,5.64,5.64,0,0,1,4.39-1.85,5.22,5.22,0,0,1,4.51,2.38h.05v-2h2.49Zm-6.55-1.39a3.89,3.89,0,0,0,3.07-1.24,4.44,4.44,0,0,0,1.14-3.07,4.28,4.28,0,0,0-1.14-3,3.9,3.9,0,0,0-3.07-1.25,3.82,3.82,0,0,0-3,1.27,4.65,4.65,0,0,0,0,6A3.79,3.79,0,0,0,373.64,1010.09Z" transform="translate(-0.47 0.24)"/><path class="cls-1" d="M385.91,1001.45H386a3.7,3.7,0,0,1,1.6-1.45,5.34,5.34,0,0,1,2.3-.5,5.94,5.94,0,0,1,2.15.35,3.42,3.42,0,0,1,1.42,1,4.06,4.06,0,0,1,.78,1.6,9.51,9.51,0,0,1,.23,2.17v7.07H392v-6.79a4.54,4.54,0,0,0-.56-2.55,2.54,2.54,0,0,0-2.29-.85,4.13,4.13,0,0,0-1.08.12,2.84,2.84,0,0,0-.77.33,2.24,2.24,0,0,0-.56.49,7.19,7.19,0,0,0-.41.61,1.91,1.91,0,0,0-.15.46c0,.18-.09.37-.13.57s-.06.39-.08.58,0,.35,0,.47v6.56h-2.48V999.85h2.48Z" transform="translate(-0.47 0.24)"/><path class="cls-1" d="M405.67,989.72h2.49v12.11h.06a5.33,5.33,0,0,1,4.5-2.33,5.65,5.65,0,0,1,4.4,1.85,6.15,6.15,0,0,1,1.68,4.36,6.61,6.61,0,0,1-1.65,4.56,5.81,5.81,0,0,1-4.54,1.85,5.27,5.27,0,0,1-2.47-.6,5.37,5.37,0,0,1-1.92-1.66h-.06v1.85h-2.49Zm6.45,20.37a3.86,3.86,0,0,0,3.06-1.24,4.44,4.44,0,0,0,1.14-3.07,4.28,4.28,0,0,0-1.14-3,4.26,4.26,0,0,0-6.05,0,4.65,4.65,0,0,0,0,6A3.81,3.81,0,0,0,412.12,1010.09Z" transform="translate(-0.47 0.24)"/><path class="cls-1" d="M419.16,999.85h2.91l4.36,7.53,4.06-7.53h2.8l-10.48,18.66H420l5.09-8.82Z" transform="translate(-0.47 0.24)"/><path class="cls-1" d="M445.84,1006.92l-2.38,4.79h-2.79l9.95-19.92,9.95,19.92h-2.79l-2.38-4.79Zm4.78-9.91-3.71,7.73h7.41Z" transform="translate(-0.47 0.24)"/><path class="cls-1" d="M464.63,1011.71h-2.49v-22h2.49Z" transform="translate(-0.47 0.24)"/><path class="cls-1" d="M470.76,1011.71h-2.48v-22h2.48Z" transform="translate(-0.47 0.24)"/><path class="cls-1" d="M480.22,1002.64v1.9h-6.05v-1.9Z" transform="translate(-0.47 0.24)"/><path class="cls-1" d="M489.89,992a5.08,5.08,0,0,0-1.66-.48,1.37,1.37,0,0,0-1.16.47,2.81,2.81,0,0,0-.5,1.15c-.05.34-.08.61-.09.8s0,.46,0,.8v5.09h3.43V1002h-3.43v9.73H484V1002h-1.13v-2.13H484v-5.78c0-3.1,1.39-4.66,4.17-4.66a5.06,5.06,0,0,1,1.74.31Z" transform="translate(-0.47 0.24)"/><path class="cls-1" d="M493.73,1001.78h.08a3.81,3.81,0,0,1,1.39-1.67,3.74,3.74,0,0,1,2.15-.61,4.1,4.1,0,0,1,2,.58l-1.13,2.08a2.4,2.4,0,0,0-1.52-.48,2.51,2.51,0,0,0-2.55,1.42,5.77,5.77,0,0,0-.37,1.3,9.31,9.31,0,0,0-.1,1.48v5.83h-2.48V999.85h2.48Z" transform="translate(-0.47 0.24)"/><path class="cls-1" d="M502.27,1006.16a4.25,4.25,0,0,0,1.11,2.77,3.65,3.65,0,0,0,2.79,1.16,4,4,0,0,0,2.23-.57,6,6,0,0,0,1.64-1.73l2.1,1.08a6.46,6.46,0,0,1-2.5,2.39,7.28,7.28,0,0,1-3.5.86,6,6,0,0,1-6.35-6.24,6.6,6.6,0,0,1,1.63-4.61,6,6,0,0,1,4.67-1.77,5.6,5.6,0,0,1,4.5,1.77,6.67,6.67,0,0,1,1.55,4.54v.35Zm7.39-1.72a3.34,3.34,0,0,0-3.57-3,4.14,4.14,0,0,0-1.34.21,3.45,3.45,0,0,0-1.11.62,3.64,3.64,0,0,0-.8,1,3.56,3.56,0,0,0-.43,1.18Z" transform="translate(-0.47 0.24)"/><path class="cls-1" d="M515.76,1006.16a4.25,4.25,0,0,0,1.11,2.77,3.63,3.63,0,0,0,2.78,1.16,4,4,0,0,0,2.23-.57,5.84,5.84,0,0,0,1.64-1.73l2.11,1.08a6.6,6.6,0,0,1-2.5,2.39,7.31,7.31,0,0,1-3.5.86,6,6,0,0,1-6.36-6.24,6.6,6.6,0,0,1,1.64-4.61,6,6,0,0,1,4.66-1.77,5.63,5.63,0,0,1,4.51,1.77,6.67,6.67,0,0,1,1.55,4.54v.35Zm7.38-1.72a3.5,3.5,0,0,0-1.15-2.17,3.58,3.58,0,0,0-2.42-.79,4.18,4.18,0,0,0-1.34.21,3.4,3.4,0,0,0-1.1.62,3.46,3.46,0,0,0-.8,1,3.36,3.36,0,0,0-.43,1.18Z" transform="translate(-0.47 0.24)"/><path class="cls-1" d="M533.67,1002.64v1.9h-6v-1.9Z" transform="translate(-0.47 0.24)"/><path class="cls-1" d="M546.58,1009.86h-.06a5.37,5.37,0,0,1-1.92,1.66,5.24,5.24,0,0,1-2.47.6,5.81,5.81,0,0,1-4.54-1.85,6.61,6.61,0,0,1-1.65-4.56,6.15,6.15,0,0,1,1.68-4.36,5.65,5.65,0,0,1,4.4-1.85,5.33,5.33,0,0,1,4.5,2.33h.06V989.72h2.49v22h-2.49Zm-4.07.23a3.88,3.88,0,0,0,3.07-1.24,4.43,4.43,0,0,0,1.13-3.07,4.27,4.27,0,0,0-1.13-3,3.89,3.89,0,0,0-3.07-1.25,3.82,3.82,0,0,0-3,1.27,4.68,4.68,0,0,0,0,6A3.79,3.79,0,0,0,542.51,1010.09Z" transform="translate(-0.47 0.24)"/><path class="cls-1" d="M553.13,1001.32a7.08,7.08,0,0,1,4.92-1.82,7,7,0,0,1,4.89,1.82,6,6,0,0,1,0,9,7,7,0,0,1-4.89,1.83,7,7,0,0,1-4.92-1.83,6,6,0,0,1,0-9Zm.49,4.49a4,4,0,0,0,1.3,2.91,4.36,4.36,0,0,0,3.13,1.22,4.42,4.42,0,0,0,3.12-1.22,3.94,3.94,0,0,0,0-5.83,4.46,4.46,0,0,0-3.12-1.21,4.4,4.4,0,0,0-3.13,1.21A3.94,3.94,0,0,0,553.62,1005.81Z" transform="translate(-0.47 0.24)"/><path class="cls-1" d="M571.64,1007.41l3.82-8.21,3.79,8.21,3.75-7.56h2.82l-6.57,12.27-3.79-7.93-3.82,7.93-6.57-12.27h2.81Z" transform="translate(-0.47 0.24)"/><path class="cls-1" d="M589.55,1001.45h.06a3.67,3.67,0,0,1,1.61-1.45,5.29,5.29,0,0,1,2.29-.5,6,6,0,0,1,2.16.35,3.39,3.39,0,0,1,1.41,1,3.93,3.93,0,0,1,.78,1.6,9,9,0,0,1,.23,2.17v7.07H595.6v-6.79a4.55,4.55,0,0,0-.55-2.55,2.54,2.54,0,0,0-2.29-.85,4.18,4.18,0,0,0-1.08.12,2.84,2.84,0,0,0-.77.33,2.43,2.43,0,0,0-.56.49,7.19,7.19,0,0,0-.41.61,3.56,3.56,0,0,0-.15.46,4.78,4.78,0,0,0-.12.57,5.81,5.81,0,0,0-.09.58c0,.19,0,.35,0,.47v6.56h-2.48V999.85h2.48Z" transform="translate(-0.47 0.24)"/><path class="cls-1" d="M604.12,1011.71h-2.49v-22h2.49Z" transform="translate(-0.47 0.24)"/><path class="cls-1" d="M608.49,1001.32a7.08,7.08,0,0,1,4.92-1.82,7,7,0,0,1,4.89,1.82,6,6,0,0,1,0,9,7,7,0,0,1-4.89,1.83,7,7,0,0,1-4.92-1.83,6,6,0,0,1,0-9Zm.5,4.49a4,4,0,0,0,1.29,2.91,4.61,4.61,0,0,0,6.25,0,3.92,3.92,0,0,0,0-5.83,4.64,4.64,0,0,0-6.25,0A3.93,3.93,0,0,0,609,1005.81Z" transform="translate(-0.47 0.24)"/><path class="cls-1" d="M634.72,1011.71h-2.49v-1.85h-.05a5.2,5.2,0,0,1-4.4,2.26,5.86,5.86,0,0,1-4.54-1.85,6.61,6.61,0,0,1-1.65-4.56,6.15,6.15,0,0,1,1.68-4.36,5.69,5.69,0,0,1,4.43-1.85,5.34,5.34,0,0,1,4.48,2.33h.05v-2h2.49Zm-6.55-1.62a3.87,3.87,0,0,0,3.06-1.24,4.44,4.44,0,0,0,1.14-3.07,4.28,4.28,0,0,0-1.14-3,3.88,3.88,0,0,0-3.06-1.25,3.82,3.82,0,0,0-3,1.27,4.68,4.68,0,0,0,0,6A3.79,3.79,0,0,0,628.17,1010.09Z" transform="translate(-0.47 0.24)"/><path class="cls-1" d="M647.59,1009.86h-.05a5.37,5.37,0,0,1-1.92,1.66,5.24,5.24,0,0,1-2.47.6,5.77,5.77,0,0,1-4.53-1.85,6.57,6.57,0,0,1-1.66-4.56,6.08,6.08,0,0,1,1.69-4.36A5.62,5.62,0,0,1,643,999.5a5.34,5.34,0,0,1,4.51,2.33h.05V989.72h2.5v22h-2.5Zm-4.05.23a3.89,3.89,0,0,0,3.06-1.24,4.44,4.44,0,0,0,1.14-3.07,4.28,4.28,0,0,0-1.14-3,3.89,3.89,0,0,0-3.06-1.25,3.82,3.82,0,0,0-3,1.27,4.68,4.68,0,0,0,0,6A3.79,3.79,0,0,0,643.54,1010.09Z" transform="translate(-0.47 0.24)"/><path class="cls-1" d="M657.22,1010.65a1.37,1.37,0,0,1-.47,1,1.64,1.64,0,0,1-1.14.43,1.6,1.6,0,0,1-1.13-.43,1.37,1.37,0,0,1-.47-1,1.4,1.4,0,0,1,.47-1,1.6,1.6,0,0,1,1.13-.44,1.65,1.65,0,0,1,1.14.44A1.4,1.4,0,0,1,657.22,1010.65Z" transform="translate(-0.47 0.24)"/><path class="cls-1" d="M670.82,1003.22a5,5,0,0,0-3.71-1.59,4.19,4.19,0,0,0-3.06,1.24,4,4,0,0,0-1.25,2.91,3.92,3.92,0,0,0,1.25,3,4.6,4.6,0,0,0,3.23,1.19,4.84,4.84,0,0,0,3.54-1.57v2.91a8,8,0,0,1-3.57.79,7.18,7.18,0,0,1-4.92-1.8,5.65,5.65,0,0,1-2-4.44,5.89,5.89,0,0,1,2-4.56,7.27,7.27,0,0,1,5.06-1.82,7.12,7.12,0,0,1,3.43.78Z" transform="translate(-0.47 0.24)"/><path class="cls-1" d="M674.33,1001.32a7.07,7.07,0,0,1,4.91-1.82,7,7,0,0,1,4.89,1.82,6,6,0,0,1,0,9,6.93,6.93,0,0,1-4.89,1.83,7,7,0,0,1-4.91-1.83,6,6,0,0,1,0-9Zm.49,4.49a3.93,3.93,0,0,0,1.3,2.91,4.36,4.36,0,0,0,3.12,1.22,4.43,4.43,0,0,0,3.13-1.22,3.92,3.92,0,0,0,0-5.83,4.47,4.47,0,0,0-3.13-1.21,4.39,4.39,0,0,0-3.12,1.21A3.9,3.9,0,0,0,674.82,1005.81Z" transform="translate(-0.47 0.24)"/><path class="cls-1" d="M690.82,1001.35h.06a4.36,4.36,0,0,1,1.48-1.34,4,4,0,0,1,1.94-.51,4.18,4.18,0,0,1,3.74,2.1,4.34,4.34,0,0,1,1.67-1.53,4.82,4.82,0,0,1,2.31-.57c2.86,0,4.28,1.71,4.28,5.12v7.09h-2.49V1005a8.77,8.77,0,0,0,0-.9,4.68,4.68,0,0,0-.15-.86,2.7,2.7,0,0,0-.33-.78,2.27,2.27,0,0,0-.61-.63,2.44,2.44,0,0,0-1.27-.31,2.75,2.75,0,0,0-1.33.31,2.22,2.22,0,0,0-.81.69,3.72,3.72,0,0,0-.46,1.06,8.22,8.22,0,0,0-.21,1.14c0,.33,0,.73,0,1.16v5.83h-2.49v-6.28c0-.41,0-.74,0-1a9,9,0,0,0-.16-1,2.62,2.62,0,0,0-.37-1,2,2,0,0,0-.69-.64,2.23,2.23,0,0,0-1.13-.28,2.34,2.34,0,0,0-2.46,1.52,6.3,6.3,0,0,0-.33,1.35,10.73,10.73,0,0,0-.09,1.49v5.83h-2.48V999.85h2.48Z" transform="translate(-0.47 0.24)"/><rect class="cls-1" x="260.19" y="1003.41" width="35.21" height="1.58"/><rect class="cls-1" x="728.61" y="1003.41" width="35.2" height="1.58"/><path class="cls-2" d="M938.06,611.25c-63.49,24.32-343.39,18.63-357.7,18.63s-53.16-10.22-90-40.89c-11.81-9.86-31-22.23-53.22-35.23-4.15-2.44-8.42-4.91-12.76-7.38C397.34,531,367.32,515.19,341.29,502c-16.89-8.53-32.08-15.95-43.67-21.43a91,91,0,0,0-18.26-6.44h-.08c-.1,0-.21-.06-.31-.09l-.51-.1a75.66,75.66,0,0,0-15.4-1.78,69.81,69.81,0,0,0-21.22,3.07l-.45.14a39.92,39.92,0,0,0-27.49,33.68c-3.1,27.18-1.23,66,.44,89.42.86,12.28,1.65,20.36,1.65,20.36H188c.57-7,.94-13.8,1.09-20.36,1.41-62-15.26-105.51-28.51-129.62a122.35,122.35,0,0,0-13.37-20.16l0,0c-9.92-11.45-8.79-31.88-8.79-31.88A1154.78,1154.78,0,0,1,255.25,429.5c63.39,10.22,152,51.1,152,51.1l2.63.71,18.61,5,268.43,72s111.89,10.51,185.93,24.21C931,591.42,963.09,601.68,938.06,611.25Z" transform="translate(-0.47 0.24)"/><path class="cls-3" d="M444.31,552.31l-7.14,1.45c-46.93-27.52-107.24-57.89-139.55-73.16A90.08,90.08,0,0,0,279,474.07l-.51-.1a71.46,71.46,0,0,0-36.62,1.29c-16.38-6.36-30.3-10.94-38.73-12-16.27-2.11-31.16,1.31-42.53,5.64a122.91,122.91,0,0,0-13.39-20.18c-9.92-11.45-8.79-31.88-8.79-31.88A1154.78,1154.78,0,0,1,255.25,429.5c63.39,10.22,152,51.1,152,51.1l21.24,5.7L435.11,514Z" transform="translate(-0.47 0.24)"/><path class="cls-4" d="M437.44,523.64l-13,22.74C397.34,531,367.32,515.19,341.29,502c-16.64-14.15-37.15-25.11-61.93-27.87h-.08c-5.56-.64-11-1.29-16.22-2-73.77-9.44-114.58-23.06-115.85-23.47l0,0c-9.92-11.45-8.79-31.88-8.79-31.88A1154.78,1154.78,0,0,1,255.25,429.5c63.39,10.22,152,51.1,152,51.1l2.63.71Z" transform="translate(-0.47 0.24)"/><path class="cls-5" d="M435.11,514c-6.12-2.8-14.42-7.63-25.48-15.07-77.7-52.29-208.56-64.27-231-68.36a149.78,149.78,0,0,1-40.18-13.7A1154.78,1154.78,0,0,1,255.25,429.5c63.39,10.22,152,51.1,152,51.1l21.24,5.7Z" transform="translate(-0.47 0.24)"/><path class="cls-5" d="M938.06,611.25c-63.49,24.32-343.39,18.63-357.7,18.63s-53.16-10.22-90-40.89C466,568.66,410.2,537.56,361.48,512.37c-24.83-12.86-47.79-24.17-63.86-31.77a91,91,0,0,0-18.26-6.44c9.45,1.8,90.36,17.74,127.06,43,39,26.84,320.51,81.34,320.51,81.34l62-13.6,61.3,4.72,32.62-7.09c24.2,4.47,44.37,9.28,55.22,14.19v0C948.82,601.56,950.49,606.49,938.06,611.25Z" transform="translate(-0.47 0.24)"/><path class="cls-6" d="M938.06,596.72v0c-5.33,37.37-326,28-360.77,26s-69.52-28.63-71.56-30.68-38.85-26.58-73.61-47c-16.77-9.88-45.45-22.37-70.64-32.66-24.83-12.86-47.79-24.17-63.86-31.77a91,91,0,0,0-18.26-6.44c9.45,1.8,90.36,17.74,127.06,43,39,26.84,320.51,81.34,320.51,81.34l62-13.6,61.3,4.72,32.62-7.09C907,587,927.21,591.81,938.06,596.72Z" transform="translate(-0.47 0.24)"/><path class="cls-7" d="M216,618.86H188c.57-7,.94-13.8,1.09-20.36h25.25C215.2,610.78,216,618.86,216,618.86Z" transform="translate(-0.47 0.24)"/><path class="cls-2" d="M930.8,581.5a56.64,56.64,0,0,0-6.93-6.83c-26.58-14.31-169.71-59.29-190.16-71.56s-47,0-47,0-32.72,14.31-94.06,0a92.09,92.09,0,0,1-11.82-3.68c-63.06-23.92-164.74-123.81-207-166-44.33-44.33-148.23-118.45-163-118.64l-.59.05c-12.27,2-14.27,18-14.27,18h-4.13v33.12s135,110.42,173.8,151.31c28.6,30.12,37.19,70.07,39.71,89,.92,6.79,1,10.88,1,10.88s84,55.47,108.51,73.87,77.7,24.54,77.7,24.54c106.32,8.18,335.33,0,343.51-12.27C941,596.06,935.81,587.39,930.8,581.5ZM263.47,280.26c1.86.94,61.88,31.55,98.11,87.9Z" transform="translate(-0.47 0.24)"/><path class="cls-5" d="M697.13,523.64c-40.66,14.39-102.46,8.1-147.44-14.4-16.66-8.34-46.8-29.85-78.15-53.63-53.24-40.46-110-87.45-110-87.45-36.23-56.35-96.25-87-98.11-87.9l0,0-45-45c-12.27-12.27-8.18-20.44-8.18-20.44l.59-.05c14.76.19,118.66,74.31,163,118.64,3.74,3.74,7.95,7.93,12.57,12.51,47.4,46.85,136.93,131.72,194.39,153.52,35.84,19.57,89.13,11.45,95.65,9.81,8.18-2,30.67-8.18,32.72-8.18C731.77,501.06,737.8,509.24,697.13,523.64Z" transform="translate(-0.47 0.24)"/><path class="cls-6" d="M697.13,523.64c-29.23,10.34-69.39,10-106.38.63a204.57,204.57,0,0,1-41.06-15c-16.66-8.34-46.8-29.85-78.15-53.63,6.16-.86,9-3.41,5.3-8.73-14-20.45-46.76-36.8-67.21-67.48-5.5-8.24-13.89-20.28-23.21-33.49,47.4,46.85,136.93,131.72,194.39,153.52,24.35,13.29,56.76,13.8,77.09,12.27a140.35,140.35,0,0,0,18.56-2.46c8.18-2,30.67-8.18,32.72-8.18C731.77,501.06,737.8,509.24,697.13,523.64Z" transform="translate(-0.47 0.24)"/><path class="cls-7" d="M697.13,523.64c-29.23,10.34-69.39,10-106.38.63,24.21.08,49.6-2.78,67.15-12.57a140.35,140.35,0,0,0,18.56-2.46c8.18-2,30.67-8.18,32.72-8.18C731.77,501.06,737.8,509.24,697.13,523.64Z" transform="translate(-0.47 0.24)"/><path class="cls-4" d="M936.14,603.3C928,615.57,699,623.75,592.63,615.57c0,0-53.16-6.14-77.7-24.54s-108.51-73.87-108.51-73.87-.12-4.09-1-10.88l4.25-7.4s118.14,93.79,166.42,99.62c41.57,5,289.08,18.91,354.75-17C935.81,587.39,941,596.06,936.14,603.3Z" transform="translate(-0.47 0.24)"/><circle class="cls-8" cx="252.74" cy="294.78" r="5.11"/><circle class="cls-8" cx="273.18" cy="311.14" r="5.11"/><circle class="cls-8" cx="293.63" cy="327.5" r="5.11"/><circle class="cls-8" cx="312.03" cy="345.9" r="5.11"/><path class="cls-8" d="M311.48,327.26a17.38,17.38,0,1,1-17.38,17.38,17.4,17.4,0,0,1,17.38-17.38m0-8.17A25.56,25.56,0,1,0,337,344.64a25.56,25.56,0,0,0-25.56-25.55Z" transform="translate(-0.47 0.24)"/><rect class="cls-8" x="319.66" y="342.6" width="6.13" height="24.54" rx="3.07" transform="translate(801.92 351.94) rotate(131.91)"/><path class="cls-9" d="M938.06,596.72c-.09-5.47-3.7-11-7.26-15.22a56.64,56.64,0,0,0-6.93-6.83c-26.58-14.31-169.71-59.29-190.16-71.56s-47,0-47,0-32.72,14.31-94.06,0a92.09,92.09,0,0,1-11.82-3.68c-.94-.36-1.9-.74-2.86-1.13l-.94-.39-2-.84-1.15-.5-1.82-.82-1.23-.58-1.77-.84-1.29-.63-1.78-.89-1.31-.67-1.8-.94-1.32-.7-1.84-1-1.31-.72-1.93-1.09-1.26-.71-2.11-1.24L552,485.1l-2.74-1.65-.51-.31-3.28-2-1-.61L542.16,479l-1.27-.83-2.07-1.35-1.39-.91-2-1.33-1.43-1-2-1.34-1.48-1-2-1.36-1.49-1-2-1.4-1.48-1.06-2-1.46-1.43-1-2.15-1.58-1.32-1-2.58-1.92-.89-.67-3.49-2.64-.89-.68-2.61-2-1.29-1-2.23-1.74-1.4-1.1-2.12-1.67-1.47-1.17-2.06-1.65-1.48-1.18-2.07-1.68-1.46-1.18-2.1-1.72-1.42-1.16-2.2-1.82-1.3-1.07-2.4-2-1.1-.92-2.92-2.46-.57-.48q-3.57-3-7.12-6.08l-.51-.44-3-2.58-.8-.69-2.7-2.36-.87-.77c-.88-.76-1.75-1.53-2.62-2.3l-.87-.76-2.64-2.34-.81-.72-2.74-2.45-.63-.56-3-2.71-.35-.31c-25.29-22.81-48.31-45.21-65.18-62l-9-9c-44.33-44.33-148.23-118.45-163-118.64l-.59.05c-12.27,2-14.27,18-14.27,18h-4.13v33.12s47.37,38.76,94.06,78.86a25.55,25.55,0,0,0,25.55,25.42,26,26,0,0,0,3.44-.23c21.11,18.6,39.77,35.71,50.75,47.26C383.3,435.8,393.32,458.1,399,476.92c-23.4-10.27-92-39.07-143.76-47.42A1154.78,1154.78,0,0,0,138.4,416.82s-1.13,20.43,8.79,31.88a122.91,122.91,0,0,1,13.39,20.18C173.83,493,190.5,536.46,189.09,598.5c-.15,6.56-.52,13.37-1.09,20.36h28s-.79-8.08-1.65-20.36c-1.67-23.46-3.54-62.24-.44-89.42a39.92,39.92,0,0,1,27.49-33.68l.45-.14,2-.59,1-.27,1.05-.26,1.27-.29.86-.19,1.46-.29.46-.08c1.14-.2,2.31-.38,3.51-.53l.39-.06,1.63-.17.87-.08,1.55-.11c.35,0,.71,0,1.07-.06l1.47-.06,1.7,0h.88c5.23.67,10.64,1.32,16.19,2h0c.55.12,1.11.26,1.66.4l.3.07,1.38.37,1,.27.86.26,1.43.44.67.22c.53.18,1.07.35,1.6.54l.93.33,1.36.5,1.8.71.51.2q2.38,1,4.83,2.13c16.07,7.6,39,18.91,63.86,31.77,7.31,3.78,14.78,7.7,22.28,11.69l3.14,1.67,2.06,1.1c.93.51,1.87,1,2.81,1.51l2.62,1.42,2,1.07,3.43,1.86.83.46C411.39,539,422,545,432.09,550.8l5.08,3c8.31,4.86,16.2,9.64,23.44,14.23l.17.11,3.19,2,1.06.69,2.27,1.48,1.73,1.14,1.55,1,2.24,1.51,1,.65c.88.6,1.74,1.2,2.58,1.79l.52.36c1,.67,1.9,1.33,2.81,2l.18.13c3.95,2.84,7.48,5.54,10.52,8.08,36.81,30.67,75.66,40.89,90,40.89s294.21,5.69,357.7-18.63C950.51,606.5,948.82,601.57,938.06,596.72ZM316.92,328.15a17.44,17.44,0,0,1,10.35,9.27Zm3.87-7.31a25.43,25.43,0,0,0-9.31-1.75,25.11,25.11,0,0,0-4.27.36l-43.74-39.19C264.72,280.89,292,294.81,320.79,320.84Zm-23.65,33.61,6.61,5.74A17.54,17.54,0,0,1,297.14,354.45ZM337,346.13c0-.49.05-1,.05-1.49a25.37,25.37,0,0,0-2-9.95,225.85,225.85,0,0,1,26.55,33.47Z" transform="translate(-0.47 0.24)"/><path class="cls-2" d="M928.58,703.94C861.22,729.74,564.22,723.7,549,723.7s-56.41-10.84-95.47-43.39c-12.54-10.46-32.91-23.58-56.47-37.38-4.41-2.58-8.94-5.21-13.54-7.83C354.82,618.76,323,602,295.36,588c-17.93-9-34.05-16.93-46.35-22.74a96.66,96.66,0,0,0-19.37-6.83h-.09a1.35,1.35,0,0,0-.33-.09l-.54-.11a80.26,80.26,0,0,0-16.33-1.89,74.12,74.12,0,0,0-22.53,3.26l-.47.14a42.37,42.37,0,0,0-29.17,35.75c-3.29,28.83-1.31,70,.46,94.87.91,13,1.76,21.61,1.76,21.61H132.7c.61-7.42,1-14.64,1.15-21.61,1.49-65.83-16.19-111.95-30.25-137.53a129,129,0,0,0-14.19-21.39l0,0c-10.52-12.15-9.33-33.82-9.33-33.82a1222.77,1222.77,0,0,1,124,13.45c67.26,10.85,161.27,54.22,161.27,54.22l2.79.76,19.75,5.29L672.7,647.77S791.42,658.92,870,673.46C921.05,682.89,955.14,693.79,928.58,703.94Z" transform="translate(-0.47 0.24)"/><path class="cls-3" d="M404.66,641.39l-7.57,1.54C347.3,613.73,283.29,581.51,249,565.3a95.39,95.39,0,0,0-19.79-6.92l-.54-.11a75.8,75.8,0,0,0-38.86,1.37c-17.37-6.75-32.15-11.61-41.09-12.76-17.27-2.24-33.06,1.39-45.13,6a130.24,130.24,0,0,0-14.21-21.42c-10.52-12.15-9.33-33.82-9.33-33.82a1222.77,1222.77,0,0,1,124,13.45c67.26,10.85,161.27,54.22,161.27,54.22l22.54,6.05,7,29.34Z" transform="translate(-0.47 0.24)"/><path class="cls-4" d="M397.37,611,383.55,635.1C354.82,618.76,323,602,295.36,588c-17.67-15-39.43-26.65-65.72-29.57h-.09c-5.9-.68-11.65-1.37-17.2-2.09-78.29-10-121.59-24.47-122.94-24.9l0,0c-10.52-12.15-9.33-33.82-9.33-33.82a1222.77,1222.77,0,0,1,124,13.45c67.26,10.85,161.27,54.22,161.27,54.22l2.79.76Z" transform="translate(-0.47 0.24)"/><path class="cls-5" d="M394.9,600.69c-6.49-3-15.3-8.1-27-16-82.44-55.48-221.3-68.2-245.16-72.53a159,159,0,0,1-42.64-14.54,1222.77,1222.77,0,0,1,124,13.45c67.26,10.85,161.27,54.22,161.27,54.22l22.54,6.05Z" transform="translate(-0.47 0.24)"/><path class="cls-5" d="M928.58,703.94C861.22,729.74,564.22,723.7,549,723.7s-56.41-10.84-95.47-43.39c-25.88-21.56-85.09-54.56-136.79-81.29-26.34-13.65-50.7-25.65-67.76-33.72a96.66,96.66,0,0,0-19.37-6.83c10,1.9,95.87,18.83,134.82,45.62,41.37,28.49,340.09,86.31,340.09,86.31L770.33,676l65,5,34.6-7.52c25.69,4.75,47.08,9.85,58.6,15v0C940,693.65,941.77,698.88,928.58,703.94Z" transform="translate(-0.47 0.24)"/><path class="cls-6" d="M928.58,688.51v0c-5.66,39.67-345.92,29.75-382.81,27.58S472,685.74,469.84,683.57s-41.23-28.21-78.11-49.91c-17.79-10.47-48.23-23.73-75-34.64-26.34-13.65-50.7-25.65-67.76-33.72a96.66,96.66,0,0,0-19.37-6.83c10,1.9,95.87,18.83,134.82,45.62,41.37,28.49,340.09,86.31,340.09,86.31L770.33,676l65,5,34.6-7.52C895.67,678.21,917.06,683.31,928.58,688.51Z" transform="translate(-0.47 0.24)"/><path class="cls-7" d="M162.4,712H132.7c.61-7.42,1-14.64,1.15-21.61h26.79C161.55,703.44,162.4,712,162.4,712Z" transform="translate(-0.47 0.24)"/><path class="cls-2" d="M920.88,672.37a60.94,60.94,0,0,0-7.35-7.25c-28.21-15.18-180.08-62.91-201.78-75.93s-49.9,0-49.9,0-34.72,15.18-99.8,0a97.53,97.53,0,0,1-12.54-3.91C482.59,559.9,374.7,453.91,329.9,409.11c-47-47-157.28-125.69-172.95-125.88l-.62,0c-13,2.17-15.15,19.09-15.15,19.09H136.8v35.15S280,454.67,321.22,498.06c30.35,32,39.46,74.36,42.13,94.49,1,7.2,1.11,11.54,1.11,11.54S453.56,663,479.6,682.48s82.45,26,82.45,26c112.82,8.68,355.82,0,364.49-13C931.66,687.82,926.2,678.62,920.88,672.37ZM212.78,352.72c2,1,65.65,33.48,104.1,93.27Z" transform="translate(-0.47 0.24)"/><path class="cls-5" d="M672.94,611c-43.16,15.27-108.72,8.59-156.46-15.27-17.68-8.86-49.66-31.68-82.92-56.91C377.06,495.85,316.88,446,316.88,446c-38.45-59.79-102.13-92.27-104.1-93.27l0,0L165,305c-13-13-8.67-21.7-8.67-21.7l.62,0c15.67.19,125.91,78.84,173,125.88,4,4,8.44,8.42,13.34,13.28,50.29,49.7,145.3,139.76,206.27,162.89,38,20.77,94.57,12.15,101.49,10.42,8.68-2.17,32.55-8.68,34.71-8.68C709.69,587,716.09,595.7,672.94,611Z" transform="translate(-0.47 0.24)"/><path class="cls-6" d="M672.94,611c-31,11-73.64,10.61-112.89.67a217.25,217.25,0,0,1-43.57-15.94c-17.68-8.86-49.66-31.68-82.92-56.91,6.53-.91,9.5-3.63,5.62-9.27-14.91-21.69-49.62-39-71.32-71.6-5.83-8.74-14.73-21.52-24.62-35.53,50.29,49.7,145.3,139.76,206.27,162.89,25.84,14.1,60.22,14.65,81.79,13a149,149,0,0,0,19.7-2.6c8.68-2.17,32.55-8.68,34.71-8.68C709.69,587,716.09,595.7,672.94,611Z" transform="translate(-0.47 0.24)"/><path class="cls-7" d="M672.94,611c-31,11-73.64,10.61-112.89.67,25.69.09,52.64-2.95,71.25-13.34a149,149,0,0,0,19.7-2.6c8.68-2.17,32.55-8.68,34.71-8.68C709.69,587,716.09,595.7,672.94,611Z" transform="translate(-0.47 0.24)"/><path class="cls-4" d="M926.54,695.5c-8.67,13-251.67,21.7-364.49,13,0,0-56.41-6.51-82.45-26s-115.14-78.39-115.14-78.39-.13-4.34-1.11-11.54l4.51-7.85s125.37,99.52,176.59,105.7c44.11,5.32,306.74,20.07,376.43-18C926.2,678.62,931.66,687.82,926.54,695.5Z" transform="translate(-0.47 0.24)"/><circle class="cls-8" cx="201.42" cy="368.12" r="5.42"/><circle class="cls-8" cx="223.11" cy="385.48" r="5.42"/><circle class="cls-8" cx="244.81" cy="402.83" r="5.42"/><circle class="cls-8" cx="264.34" cy="422.36" r="5.42"/><path class="cls-8" d="M263.72,402.6A18.44,18.44,0,1,1,245.28,421a18.46,18.46,0,0,1,18.44-18.44m0-8.68A27.12,27.12,0,1,0,290.84,421a27.12,27.12,0,0,0-27.12-27.12Z" transform="translate(-0.47 0.24)"/><rect class="cls-8" x="272.4" y="418.87" width="6.51" height="26.04" rx="3.25" transform="translate(780.73 515.44) rotate(131.91)"/></svg>