<svg id="Layer_1" data-name="Layer 1" xmlns="http://www.w3.org/2000/svg" viewBox="0 0 1024 1024"><defs><style>.cls-1{fill:#fff;}.cls-2{fill:#232323;}.cls-3{fill:#0d0d0d;}.cls-4{fill:#070707;}.cls-5{fill:#282828;}.cls-6{fill:#393939;}.cls-7{fill:#161616;}.cls-10,.cls-13,.cls-14,.cls-15,.cls-8,.cls-9{fill:none;stroke:#0d0d0d;stroke-linecap:round;stroke-miterlimit:10;}.cls-10,.cls-8,.cls-9{stroke-width:4.22px;}.cls-8{stroke-dasharray:10.54;}.cls-10{stroke-dasharray:10.56 10.56;}.cls-11{fill:#3f3f3f;}.cls-12{fill:#2b2b2b;}.cls-13,.cls-14,.cls-15{stroke-width:4.51px;}.cls-13{stroke-dasharray:11.26;}.cls-15{stroke-dasharray:11.29 11.29;}</style></defs><rect class="cls-1" width="1024" height="1024"/><rect y="984.95" width="1024" height="39.05"/><path class="cls-1" d="M318.17,992.84h4.31a13.64,13.64,0,0,1,8.38,2.46,8.13,8.13,0,0,1,3.31,7,8.41,8.41,0,0,1-3.29,7.17,13.66,13.66,0,0,1-8.48,2.49h-4.23Zm2.6,16.93h.91a18.69,18.69,0,0,0,3.82-.37,9,9,0,0,0,3.13-1.24,6.5,6.5,0,0,0,2.14-2.28,6.89,6.89,0,0,0,.8-3.48,7.31,7.31,0,0,0-.78-3.51,5.75,5.75,0,0,0-2.2-2.28,10.72,10.72,0,0,0-3.11-1.21,17,17,0,0,0-3.8-.38h-.91Z"/><path class="cls-1" d="M338,1006.4a4.19,4.19,0,0,0,1.1,2.76,3.62,3.62,0,0,0,2.79,1.17,4,4,0,0,0,2.23-.57,5.89,5.89,0,0,0,1.64-1.74l2.11,1.09a6.53,6.53,0,0,1-2.51,2.38,7.13,7.13,0,0,1-3.49.86,6,6,0,0,1-6.36-6.23,6.6,6.6,0,0,1,1.63-4.61,6,6,0,0,1,4.67-1.78,5.64,5.64,0,0,1,4.51,1.78,6.64,6.64,0,0,1,1.55,4.53v.36Zm7.38-1.73a3.47,3.47,0,0,0-1.15-2.16,3.6,3.6,0,0,0-2.42-.8,3.88,3.88,0,0,0-1.34.22,3.56,3.56,0,0,0-1.11.62,3.49,3.49,0,0,0-.8,1,3.66,3.66,0,0,0-.43,1.17Z"/><path class="cls-1" d="M355.18,1002.8a1.78,1.78,0,0,0-1.66-1,1.49,1.49,0,0,0-.94.34,1,1,0,0,0-.41.83,1,1,0,0,0,.31.77,3.46,3.46,0,0,0,.87.6l.56.24.63.26a2.52,2.52,0,0,0,.39.15,1.22,1.22,0,0,1,.25.11,7,7,0,0,1,2.18,1.34,2.64,2.64,0,0,1,.8,2,3.58,3.58,0,0,1-1.32,2.81,4.67,4.67,0,0,1-3.13,1.11,5.44,5.44,0,0,1-2.72-.72,4.53,4.53,0,0,1-1.05-.83,3.71,3.71,0,0,1-.7-1.11l2.12-.88a2.7,2.7,0,0,0,2.35,1.52,2,2,0,0,0,1.08-.3,1.77,1.77,0,0,0,.73-.73,1.27,1.27,0,0,0,.1-1,1.81,1.81,0,0,0-.86-1l-2.43-1.19a9.86,9.86,0,0,1-1.1-.61,3.71,3.71,0,0,1-.78-.64,2.63,2.63,0,0,1-.46-.77,3.28,3.28,0,0,1,1-3.4,3.85,3.85,0,0,1,2.71-1,3.73,3.73,0,0,1,3.54,2.08Z"/><path class="cls-1" d="M364.1,994.66a1.41,1.41,0,0,1-.49,1.09,1.73,1.73,0,0,1-1.22.46,1.69,1.69,0,0,1-1.21-.46,1.42,1.42,0,0,1-.5-1.09,1.5,1.5,0,0,1,.5-1.12,1.66,1.66,0,0,1,1.21-.47,1.7,1.7,0,0,1,1.22.47A1.49,1.49,0,0,1,364.1,994.66Zm-.47,17.29h-2.48v-11.86h2.48Z"/><path class="cls-1" d="M379.72,1011.72a8.57,8.57,0,0,1-1.38,5.2q-1.38,1.82-4.92,1.82a6.81,6.81,0,0,1-4.48-1.44,5.07,5.07,0,0,1-1.77-3.93h2.49a3,3,0,0,0,1.06,2.47,4.33,4.33,0,0,0,2.81.87,3.32,3.32,0,0,0,2.92-1.14,5.58,5.58,0,0,0,.78-3.22v-2.25h-.05a5.56,5.56,0,0,1-1.92,1.66,5.26,5.26,0,0,1-2.47.59,5.77,5.77,0,0,1-4.54-1.85,6.55,6.55,0,0,1-1.66-4.56,6.15,6.15,0,0,1,1.69-4.36,5.67,5.67,0,0,1,4.39-1.85,5.23,5.23,0,0,1,4.51,2.39h.05v-2h2.49Zm-6.55-1.39a3.9,3.9,0,0,0,3.07-1.25,4.4,4.4,0,0,0,1.14-3.06,4.32,4.32,0,0,0-1.14-3,3.89,3.89,0,0,0-3.07-1.24,3.79,3.79,0,0,0-3,1.27,4.33,4.33,0,0,0-1.11,3,4.4,4.4,0,0,0,1.11,3A3.82,3.82,0,0,0,373.17,1010.33Z"/><path class="cls-1" d="M385.44,1001.68h.06a3.68,3.68,0,0,1,1.6-1.44,5.2,5.2,0,0,1,2.3-.51,5.72,5.72,0,0,1,2.15.36,3.47,3.47,0,0,1,1.42,1,4.1,4.1,0,0,1,.78,1.61,9.44,9.44,0,0,1,.23,2.17V1012H391.5v-6.79a4.6,4.6,0,0,0-.56-2.56,2.56,2.56,0,0,0-2.29-.84,4.13,4.13,0,0,0-1.08.12,2.55,2.55,0,0,0-.77.32,2.27,2.27,0,0,0-.56.5,5.88,5.88,0,0,0-.41.61,1.82,1.82,0,0,0-.15.45c-.05.19-.09.38-.13.57s-.06.39-.08.59,0,.35,0,.46V1012H383v-11.86h2.48Z"/><path class="cls-1" d="M405.2,990h2.49v12.11h.06a5.33,5.33,0,0,1,4.5-2.33,5.68,5.68,0,0,1,4.4,1.85,6.19,6.19,0,0,1,1.68,4.36,6.59,6.59,0,0,1-1.65,4.56,5.77,5.77,0,0,1-4.54,1.85,5.26,5.26,0,0,1-2.47-.59,5.38,5.38,0,0,1-1.92-1.66h-.06V1012H405.2Zm6.44,20.38a3.89,3.89,0,0,0,3.07-1.25,4.4,4.4,0,0,0,1.14-3.06,4.32,4.32,0,0,0-1.14-3,3.88,3.88,0,0,0-3.07-1.24,3.8,3.8,0,0,0-3,1.27,4.33,4.33,0,0,0-1.11,3,4.4,4.4,0,0,0,1.11,3A3.83,3.83,0,0,0,411.64,1010.33Z"/><path class="cls-1" d="M418.69,1000.09h2.91l4.36,7.52,4.06-7.52h2.8l-10.48,18.65h-2.82l5.09-8.82Z"/><path class="cls-1" d="M445.36,1007.16,443,1012H440.2L450.15,992l10,19.92h-2.79l-2.38-4.79Zm4.79-9.91-3.71,7.73h7.41Z"/><path class="cls-1" d="M464.16,1012h-2.49V990h2.49Z"/><path class="cls-1" d="M470.29,1012h-2.48V990h2.48Z"/><path class="cls-1" d="M479.75,1002.87v1.91H473.7v-1.91Z"/><path class="cls-1" d="M489.42,992.26a4.9,4.9,0,0,0-1.66-.48,1.37,1.37,0,0,0-1.16.46,2.79,2.79,0,0,0-.5,1.16c-.05.33-.08.6-.09.8s0,.46,0,.8v5.09h3.43v2.12H486V1012h-2.48v-9.74h-1.14v-2.12h1.14v-5.78q0-4.66,4.17-4.67a5.06,5.06,0,0,1,1.74.31Z"/><path class="cls-1" d="M493.26,1002h.08a3.87,3.87,0,0,1,1.39-1.67,3.8,3.8,0,0,1,2.15-.61,4.1,4.1,0,0,1,2.05.58l-1.13,2.09a2.41,2.41,0,0,0-1.52-.49,2.51,2.51,0,0,0-2.55,1.42,5.37,5.37,0,0,0-.37,1.31,9.31,9.31,0,0,0-.1,1.48V1012h-2.48v-11.86h2.48Z"/><path class="cls-1" d="M501.8,1006.4a4.25,4.25,0,0,0,1.11,2.76,3.62,3.62,0,0,0,2.79,1.17,4,4,0,0,0,2.23-.57,6,6,0,0,0,1.64-1.74l2.1,1.09a6.43,6.43,0,0,1-2.5,2.38,7.17,7.17,0,0,1-3.5.86,6,6,0,0,1-6.35-6.23,6.6,6.6,0,0,1,1.63-4.61,6,6,0,0,1,4.67-1.78,5.6,5.6,0,0,1,4.5,1.78,6.64,6.64,0,0,1,1.55,4.53v.36Zm7.39-1.73a3.36,3.36,0,0,0-3.57-3,3.88,3.88,0,0,0-1.34.22,3.45,3.45,0,0,0-1.11.62,3.49,3.49,0,0,0-.8,1,3.43,3.43,0,0,0-.43,1.17Z"/><path class="cls-1" d="M515.29,1006.4a4.25,4.25,0,0,0,1.11,2.76,3.59,3.59,0,0,0,2.78,1.17,4,4,0,0,0,2.23-.57,5.89,5.89,0,0,0,1.64-1.74l2.11,1.09a6.57,6.57,0,0,1-2.5,2.38,7.2,7.2,0,0,1-3.5.86,6,6,0,0,1-6.36-6.23,6.64,6.64,0,0,1,1.63-4.61,6,6,0,0,1,4.67-1.78,5.64,5.64,0,0,1,4.51,1.78,6.64,6.64,0,0,1,1.55,4.53v.36Zm7.38-1.73a3.47,3.47,0,0,0-1.15-2.16,3.58,3.58,0,0,0-2.42-.8,3.92,3.92,0,0,0-1.34.22,3.4,3.4,0,0,0-1.1.62,3.32,3.32,0,0,0-.8,1,3.24,3.24,0,0,0-.43,1.17Z"/><path class="cls-1" d="M533.2,1002.87v1.91h-6.05v-1.91Z"/><path class="cls-1" d="M546.11,1010.1h-.06a5.56,5.56,0,0,1-1.92,1.66,5.23,5.23,0,0,1-2.47.59,5.77,5.77,0,0,1-4.54-1.85,6.59,6.59,0,0,1-1.65-4.56,6.19,6.19,0,0,1,1.68-4.36,5.67,5.67,0,0,1,4.39-1.85,5.34,5.34,0,0,1,4.51,2.33h.06V990h2.49v22h-2.49Zm-4.07.23a3.89,3.89,0,0,0,3.07-1.25,4.39,4.39,0,0,0,1.13-3.06,4.31,4.31,0,0,0-1.13-3,3.88,3.88,0,0,0-3.07-1.24,3.79,3.79,0,0,0-3,1.27,4.32,4.32,0,0,0-1.1,3,4.39,4.39,0,0,0,1.1,3A3.82,3.82,0,0,0,542,1010.33Z"/><path class="cls-1" d="M552.66,1001.56a7,7,0,0,1,4.92-1.83,7,7,0,0,1,4.89,1.83,6,6,0,0,1,0,9,7,7,0,0,1-4.89,1.82,7,7,0,0,1-4.92-1.82,6,6,0,0,1,0-9Zm.49,4.48a4,4,0,0,0,1.3,2.92,4.36,4.36,0,0,0,3.13,1.21,4.42,4.42,0,0,0,3.12-1.21A4,4,0,0,0,562,1006a3.88,3.88,0,0,0-1.29-2.91,4.42,4.42,0,0,0-3.12-1.22,4.36,4.36,0,0,0-3.13,1.22A3.9,3.9,0,0,0,553.15,1006Z"/><path class="cls-1" d="M571.17,1007.64l3.82-8.21,3.79,8.21,3.75-7.55h2.82l-6.57,12.26-3.79-7.93-3.82,7.93-6.57-12.26h2.81Z"/><path class="cls-1" d="M589.08,1001.68h.06a3.68,3.68,0,0,1,1.6-1.44,5.24,5.24,0,0,1,2.3-.51,5.78,5.78,0,0,1,2.16.36,3.43,3.43,0,0,1,1.41,1,4,4,0,0,1,.78,1.61,8.92,8.92,0,0,1,.23,2.17V1012h-2.49v-6.79a4.61,4.61,0,0,0-.55-2.56,2.56,2.56,0,0,0-2.29-.84,4.18,4.18,0,0,0-1.08.12,2.55,2.55,0,0,0-.77.32,2.47,2.47,0,0,0-.56.5,5.88,5.88,0,0,0-.41.61,3.36,3.36,0,0,0-.15.45,5.78,5.78,0,0,0-.12.57c0,.2-.07.39-.09.59s0,.35,0,.46V1012H586.6v-11.86h2.48Z"/><path class="cls-1" d="M603.65,1012h-2.49V990h2.49Z"/><path class="cls-1" d="M608,1001.56a7,7,0,0,1,4.92-1.83,7,7,0,0,1,4.89,1.83,6,6,0,0,1,0,9,7,7,0,0,1-4.89,1.82,7,7,0,0,1-4.92-1.82,6,6,0,0,1,0-9Zm.5,4.48a4,4,0,0,0,1.29,2.92,4.64,4.64,0,0,0,6.25,0,4,4,0,0,0,1.3-2.92,3.93,3.93,0,0,0-1.3-2.91,4.61,4.61,0,0,0-6.25,0A3.92,3.92,0,0,0,608.52,1006Z"/><path class="cls-1" d="M634.25,1012h-2.49v-1.85h0a5.22,5.22,0,0,1-4.4,2.25,5.83,5.83,0,0,1-4.54-1.85,6.59,6.59,0,0,1-1.65-4.56,6.19,6.19,0,0,1,1.68-4.36,5.73,5.73,0,0,1,4.43-1.85,5.34,5.34,0,0,1,4.48,2.33h0v-2h2.49Zm-6.55-1.62a3.88,3.88,0,0,0,3.06-1.25,4.4,4.4,0,0,0,1.14-3.06,4.32,4.32,0,0,0-1.14-3,3.87,3.87,0,0,0-3.06-1.24,3.79,3.79,0,0,0-3,1.27,4.33,4.33,0,0,0-1.11,3,4.4,4.4,0,0,0,1.11,3A3.82,3.82,0,0,0,627.7,1010.33Z"/><path class="cls-1" d="M647.12,1010.1h0a5.47,5.47,0,0,1-1.92,1.66,5.23,5.23,0,0,1-2.47.59,5.74,5.74,0,0,1-4.53-1.85,6.56,6.56,0,0,1-1.67-4.56,6.15,6.15,0,0,1,1.69-4.36,5.69,5.69,0,0,1,4.39-1.85,5.34,5.34,0,0,1,4.51,2.33h0V990h2.49v22h-2.49Zm-4.06.23a3.9,3.9,0,0,0,3.07-1.25,4.39,4.39,0,0,0,1.13-3.06,4.31,4.31,0,0,0-1.13-3,3.89,3.89,0,0,0-3.07-1.24,3.79,3.79,0,0,0-3,1.27,4.33,4.33,0,0,0-1.11,3,4.4,4.4,0,0,0,1.11,3A3.82,3.82,0,0,0,643.06,1010.33Z"/><path class="cls-1" d="M656.75,1010.88a1.36,1.36,0,0,1-.47,1,1.64,1.64,0,0,1-1.14.43,1.6,1.6,0,0,1-1.13-.43,1.36,1.36,0,0,1,0-2.06,1.56,1.56,0,0,1,1.13-.44,1.6,1.6,0,0,1,1.14.44A1.36,1.36,0,0,1,656.75,1010.88Z"/><path class="cls-1" d="M670.35,1003.46a5,5,0,0,0-3.71-1.6,4.27,4.27,0,0,0-3.07,1.24,4.05,4.05,0,0,0-1.24,2.92,3.92,3.92,0,0,0,1.24,3,4.6,4.6,0,0,0,3.23,1.2,4.85,4.85,0,0,0,3.55-1.58v2.92a8.09,8.09,0,0,1-3.57.78,7.13,7.13,0,0,1-4.92-1.8,5.64,5.64,0,0,1-2-4.43,5.87,5.87,0,0,1,2-4.56,7.24,7.24,0,0,1,5.06-1.83,7.12,7.12,0,0,1,3.43.79Z"/><path class="cls-1" d="M673.86,1001.56a7,7,0,0,1,4.91-1.83,6.93,6.93,0,0,1,4.89,1.83,6,6,0,0,1,0,9,6.93,6.93,0,0,1-4.89,1.82,7,7,0,0,1-4.91-1.82,6,6,0,0,1,0-9Zm.49,4.48a4,4,0,0,0,1.3,2.92,4.35,4.35,0,0,0,3.12,1.21,4.42,4.42,0,0,0,3.13-1.21,4,4,0,0,0,1.3-2.92,3.93,3.93,0,0,0-1.3-2.91,4.43,4.43,0,0,0-3.13-1.22,4.36,4.36,0,0,0-3.12,1.22A3.9,3.9,0,0,0,674.35,1006Z"/><path class="cls-1" d="M690.35,1001.58h.06a4.33,4.33,0,0,1,1.48-1.33,4,4,0,0,1,1.94-.52,4.19,4.19,0,0,1,3.74,2.11,4.36,4.36,0,0,1,1.67-1.54,4.82,4.82,0,0,1,2.31-.57c2.86,0,4.28,1.71,4.28,5.12v7.1h-2.49v-6.72c0-.3,0-.6,0-.9a5,5,0,0,0-.15-.86,2.53,2.53,0,0,0-.33-.77,2.3,2.3,0,0,0-.61-.64,2.44,2.44,0,0,0-1.27-.3,2.75,2.75,0,0,0-1.33.3,2.34,2.34,0,0,0-.81.7,3.65,3.65,0,0,0-.46,1,8.79,8.79,0,0,0-.21,1.14c0,.34,0,.73,0,1.17V1012h-2.48v-6.29c0-.4,0-.74,0-1a8.87,8.87,0,0,0-.16-1,2.68,2.68,0,0,0-.37-1,2,2,0,0,0-.69-.63,2.13,2.13,0,0,0-1.13-.28,2.33,2.33,0,0,0-2.46,1.52,6.22,6.22,0,0,0-.33,1.34,11,11,0,0,0-.09,1.5V1012h-2.48v-11.86h2.48Z"/><rect class="cls-1" x="260.19" y="1003.41" width="35.21" height="1.58"/><rect class="cls-1" x="728.61" y="1003.41" width="35.2" height="1.58"/><path class="cls-2" d="M668.08,105.45c-.13,4.28-2.68,15.31-8.38,24.92a.47.47,0,0,1-.05.1,39.74,39.74,0,0,1-10.25,11.87c-8.72,6.45-14.15,25-16.8,36.24-1.25,5.29-1.87,8.94-1.87,8.94-9.05-23.75-18.94-47.37-29.52-70.47,0,0,.25-15.81,16.81-28.46a12.72,12.72,0,0,1,11.7-2.11c6.95,2.11,18.39,6.32,27.46,4.22S668.26,99.13,668.08,105.45Z"/><path class="cls-3" d="M659.7,130.37a.47.47,0,0,1-.05.1,39.74,39.74,0,0,1-10.25,11.87c-8.72,6.45-14.14,25-16.8,36.24-1.87-3.12-2.55-7.13-.35-12.08,0,0,6.47-58.94,22.55-69.48S664,121.58,659.7,130.37Z"/><path class="cls-2" d="M673.84,647.21s-56.73,27.41-65.52,33.73a14.17,14.17,0,0,1-6.14,2.68,9.28,9.28,0,0,1-8.07-2.68C564,657.16,532.74,639.18,493.28,643c-4-5.06-6-7.59-9.91-12.65q4.45-40.05,8.72-80.11,14.24-43.38,27.8-86.93c28.37-12.54,57.61-24.22,87.42-32.82,28-8.1,53.24-11.45,55-.45C673.09,499.79,671.32,575.24,673.84,647.21Z"/><path class="cls-4" d="M629.76,471.93q-13.25,105.91-27.58,211.69a9.15,9.15,0,0,1-8.07-2.68C564,657.16,532.74,639.18,493.28,643c-4-5.06-6-7.59-9.91-12.65q4.45-40.05,8.72-80.11,14.24-43.38,27.8-86.93c28.37-12.54,57.61-24.22,87.42-32.82C616,447.06,620.71,455.35,629.76,471.93Z"/><path class="cls-3" d="M657.62,423.27a58.76,58.76,0,0,1-5.19,16.28c-12.33,25-33.55,41.09-52.67,60.1-31.19,31-64.44,68.56-78.83,111.72,0,0-16,46.52-20.1,56.92-11.48,29.08-34.25,57.94-66.58,65.35a1302.8,1302.8,0,0,1-247.38,31.62c-31.3.92-38,.52-48.51-8.1s-29.5-17.18-36.85-28.55a58.79,58.79,0,0,1-.91-9.16c0,7,0,10.59,0,17.69,0,0,16.71,21.56,35.69,30.42s25.49,11.37,44.29,10C264.62,771.37,351.32,763,434,746.29c46.95-9.51,71.47-64.7,82.07-105.36C528,595.23,562.1,547,595.63,514.41c22.08-21.45,62.68-53.2,66.58-74.86C662.65,437.1,659.61,429.29,657.62,423.27Z"/><path class="cls-3" d="M431.32,136c29-8.22,60.07-6.47,89.81-6,0,0,5.36-10.57,21-13,27.62-4.33,75.19-9.56,93.54,3.74,6.42,4.66-15.68,39.47-15.68,39.47l-18.67,4.22-37.38,4.21q-53.35-1-106.71-2.11C446.85,154.36,441.62,148.25,431.32,136Z"/><path class="cls-5" d="M658.53,414.66a62.25,62.25,0,0,1-6.1,24.89c-12.31,25.06-33.55,41.09-52.67,60.1-31.19,31-64.44,68.56-78.83,111.72,0,0-15.73,46.41-20.1,56.92-.15.38-.35.83-.53,1.29-11.59,29.54-34.76,55.64-66.05,64.06-77.81,20.94-165.78,29.22-247.38,31.62-31.3.92-38,.52-48.51-8.1s-29.5-17.18-36.85-28.55a62.62,62.62,0,0,1,0-21.51c.42-2.25,2.78-5.2,6.3-8.44,14.14-13,47.51-30.76,50.82-32.33,31.46-14.94,65.76-31.42,95.25-48.17,27.95-15.88,55.25-50.69,67.76-81.88,22.2-55.32,42.48-112.12,61.47-168.38,16.88-50,27-107.44,29.63-160.21a673.28,673.28,0,0,1,8.71-78s2.16-2.1,8.92-2.1c0,0-2.63,4.2,19.31,8.43,9.59,1.85,19.91,4.87,29.87,7.55s19.75,5,27.88,5.33a39.24,39.24,0,0,0,6.49-.23c16.45-2.08,16.52-2.11,18.77,4.21,29.55-2.31,60.61-3.35,89.43-10.54,0,0,1-12.64,5.52-14.75s4.77-8.44-2.12-10.54c0,0,13.91,0,13.32,12.64C636.91,171.87,633,214,629.06,256c-1.7,27.53,1.49,57.85,11.44,82.4C649.56,360.76,659.51,389.67,658.53,414.66Z"/><path class="cls-6" d="M479.55,143.57c-4.46,10.37-9.9,25.86-16.25,48.35-32.25,114.36-61.95,229.79-106.24,340-27.53,68.5-101.77,125-172.88,137.25-28.63,4.93-59.35,19.89-82.67,37.94.42-2.25,2.78-5.2,6.3-8.44,14.14-13,47.51-30.76,50.82-32.33,31.46-14.94,65.76-31.42,95.25-48.17,27.95-15.88,55.25-50.69,67.76-81.88,22.2-55.32,42.48-112.12,61.47-168.38,16.88-50,27-107.44,29.63-160.21a673.28,673.28,0,0,1,8.71-78s2.16-2.1,8.92-2.1c0,0-2.63,4.2,19.31,8.43C459.27,137.87,469.59,140.89,479.55,143.57Z"/><path class="cls-2" d="M652.43,439.55c-7.53,15.2-15.06,24.69-22.67,32.38l0,0c-6.56,6.72-13.47,12.17-20.93,18.95-2.9,2.64-5.9,5.52-9,8.75-31,31.94-64.44,68.56-78.83,111.72,0,0-16,46.52-20.1,56.92-11.48,29.08-34.28,57.93-66.58,65.35s-65.87,13.14-99.14,18a.14.14,0,0,1-.11,0c-49.16,6-99.18,12.14-148.13,13.64-31.26,1-38,.52-48.51-8.1s-29.5-17.18-36.85-28.55a62.62,62.62,0,0,1,0-21.51c.42-2.25,2.77-5.21,6.3-8.44,0,0,13.8,14.15,29.38,24.19v0c6.35,4.11,13.48,8.19,19.09,8.91,62.57,8,184.22-18.16,236.63-56.11,20.42-14.79,47.56-41.24,41.48-70.49-6.18-29.7,7.33-29.14,18.19-51.84,18.63-38.9,35.91-77.23,42.5-118.64,14.26-89.6,12.14-191,12.35-285.8a39.19,39.19,0,0,0,6.49-.23c3.08-.4,5.61-.73,7.66-.95,8.89-1,9.29,0,11.11,5.16,29.55-2.31,60.61-3.35,89.43-10.54,0,0,1-12.64,5.52-14.75a5.3,5.3,0,0,0,3.23-5v0c-.12-2.19-1.74-4.45-5.35-5.54a17.94,17.94,0,0,1,7.79,2c3.07,1.71,5.8,4.85,5.53,10.6C636.91,171.87,633,214,629.06,256c-1.7,27.53,1.69,57.37,11.44,82.4C651.73,367.23,667.68,408.77,652.43,439.55Z"/><path class="cls-7" d="M652.43,439.55c-7.53,15.2-15.06,24.69-22.67,32.38l0,0c-6.56,6.72-13.47,12.14-20.93,18.95,1-6,2.22-12.28,3.42-18.55,4.9-25.56,15.43-55.29,2-77-34.46-55.77-6.69-209.08,13.43-267.76.5-1.49,2.12-3.38,3.23-5v0c.81-1.2,1.62-2.36,2.44-3.5,3.07,1.71,5.8,4.85,5.53,10.6C636.91,171.87,633,214,629.06,256c-1.7,27.53,1.69,57.37,11.44,82.4C651.73,367.23,667.68,408.77,652.43,439.55Z"/><path class="cls-7" d="M629.72,472c-9.22,9.36-18.83,16.24-30,27.7-31,31.94-64.44,68.56-78.83,111.72,0,0-16,46.52-20.1,56.92-11.48,29.08-34.28,57.93-66.58,65.35s-65.87,13.14-99.14,18c35.87-10.1,83.05-18.2,113.1-42.29-8.33-2.53-19.08-.79-27.7,2-75.06,24.2-168.12,24.35-251.66,32.32-23.28,2.21-31.66-20.77-31.66-20.77,6.35,4.11,13.48,8.19,19.09,8.91,62.57,8,184.22-18.16,236.63-56.11,20.42-14.79,47.56-41.24,41.48-70.49-6.18-29.7,7.33-29.14,18.19-51.84,18.63-38.9,35.91-77.23,42.5-118.64,14.26-89.6,12.14-191,12.35-285.8a39.19,39.19,0,0,0,6.49-.23c3.08-.4,5.6-.72,7.66-.95-6.52,69.16-20.23,149.65-4.23,217.29,10.85,45.85.54,102.24-19.17,144.13-12.57,26.7-1.53,100.13,27.15,48C545,521.33,588.22,489.44,629.72,472Z"/><path class="cls-7" d="M622.12,142.34c-5.21,77.78-17.39,156.77-20.3,232.94-1.13,29.64-10.24,63.86-38,78C529.51,470.7,527,412.32,527,412.32c.88-86.5,4-172.95,5.66-259.44C562.24,150.57,593.3,149.53,622.12,142.34Z"/><path class="cls-8" d="M561.59,542.3q1.81-39.48,3.16-79"/><path class="cls-9" d="M420.84,133.38s1.59,1.21,4.57,3.09"/><path class="cls-10" d="M435.12,142c24.06,13.19,48.49,14,75.23,14,0,0,16.68-2.89,14.52,11.89-11.36,77.89-.73,170-4,251.39-.51,12.57,9,50.86,32.94,46.6,31.38-5.59,48.68-35.91,53-65.35,12.26-83.14,18.3-169.18,21.85-253.2"/><path class="cls-9" d="M628.82,142.08c.13-3.4.19-5.26.19-5.26"/><path class="cls-8" d="M449.2,142.34c-10.94,42.91-20.33,86.41-28.6,129.65-9.76,51.06-17.54,106-37.48,153.88-15.64,37.55-28,78.45-43.9,116.29C315.73,598,280,632.21,226,659.43c-29.47,14.88-64.44,38.87-89.78,44-1.61.33-16.88,5.77-19,22.21s-2.1,16.49-2.1,16.49"/><path class="cls-11" d="M194.4,718.85s100.53-16.74,130.94-48.52c28.94-30.23,63.25-11,57-4.69C343.07,705.17,194.4,718.85,194.4,718.85Z"/><path class="cls-12" d="M658.53,414.66a63.44,63.44,0,0,1-6.1,24.89c-12.31,25.06-33.55,41.09-52.67,60.1-31.19,31-64.44,68.56-78.83,111.72,0,0-15.73,46.41-20.1,56.92-.15.38-.33.82-.53,1.29,4-12.57,6.32-26.89,4.74-40.29-4.37-37,27.86-88.56,59.23-106.75C602.4,500.44,641,455.85,658.53,414.66Z"/><path class="cls-2" d="M839.64,163.56c0,4.57-2.19,16.35-7.41,26.63a.37.37,0,0,0-.05.11A39.91,39.91,0,0,1,822.59,203c-8.32,6.9-12.48,26.74-14.31,38.73-.86,5.65-1.19,9.55-1.19,9.55L774.56,176s-.25-16.9,15.52-30.41a11.29,11.29,0,0,1,11.26-2.25c6.76,2.25,18,6.75,27,4.5S839.64,156.8,839.64,163.56Z"/><path class="cls-3" d="M832.23,190.19a.37.37,0,0,0-.05.11A39.91,39.91,0,0,1,822.59,203c-8.32,6.9-12.48,26.74-14.31,38.73a14.32,14.32,0,0,1-1.19-12.91s3.26-63,19-74.25S836.08,180.79,832.23,190.19Z"/><path class="cls-2" d="M873.43,742.51s-60.82,29.28-70.26,36a15,15,0,0,1-6.6,2.86,10,10,0,0,1-8.74-2.86C736,729,677.44,738,677.44,738l-11.26-13.51,6.76-85.61L702.22,546s53.48-22.62,98.38-35.07c31.09-8.65,58.07-12.44,60.35-.48C866.49,539.67,873.43,742.51,873.43,742.51Z"/><path class="cls-4" d="M825.51,555.19,796.57,781.41a10,10,0,0,1-8.74-2.86C736,729,677.44,738,677.44,738l-11.26-13.51,6.76-85.61L702.22,546s53.48-22.62,98.38-35.07Z"/><path class="cls-3" d="M855.8,503.2a55.41,55.41,0,0,1-5.44,17.39c-18.61,36.07-35.5,41.7-58,64.23s-69.83,69.83-85.6,119.39c0,0-15.77,49.56-20.28,60.83s-18,56.31-69.83,69.83-229.78,40.55-263.57,42.8-40.55,2.25-51.81-6.76-31.54-18-39.42-30.41a64.44,64.44,0,0,1-1-10l0,19.34s17.89,23.36,38.17,32.37,27,11.26,47.3,9,220.77-31.54,270.33-42.8,74.35-63,85.61-112.59,72.08-123.95,85.6-135.21,74.14-72.13,73.11-80C860.45,516.81,858.1,509.63,855.8,503.2Z"/><path class="cls-3" d="M611.77,196.22s20.62-9.35,87.07-6.36c0,0,4.56-10.53,19.74-13.91s82.5-4.39,89.39,4-13.39,42.18-13.39,42.18l-18,4.51-36,4.5-103.63-2.25Z"/><path class="cls-5" d="M856.56,494a60.3,60.3,0,0,1-6.2,26.6c-18.61,36.07-35.5,41.7-58,64.23s-69.83,69.83-85.6,119.39c0,0-15.77,49.56-20.28,60.83-.15.4-.33.87-.54,1.37-5,13.16-19.37,55.44-69.29,68.46-51.81,13.52-229.78,40.55-263.57,42.8s-40.55,2.25-51.81-6.76-31.54-18-39.42-30.41a70,70,0,0,1,0-23.61c.45-2.48,3-5.74,6.75-9.35C283.71,793,319,772.47,322.64,770.67c4.51-2.26,83.35-47.31,99.12-56.32s54.06-51.81,67.58-90.11S538.9,480.07,552.42,444s36-137.41,38.29-171.2S602,189.47,602,189.47s2.25-2.26,9-2.26c0,0-2.55,4.51,19,9,9.41,2,19.42,5.21,29,8.07s19,5.36,26.85,5.7a33.23,33.23,0,0,0,6.22-.25c15.76-2.25,15.76-2.25,18,4.51,0,0,78.84-6.76,85.6-11.27,0,0,.38-13.51,4.71-15.77s4.3-9-2.46-11.26c0,0,13.52,0,13.52,13.52v135c0,27.23,11.26,70,20.27,88.05C838.74,426.43,857.19,461.93,856.56,494Z"/><path class="cls-6" d="M659,204.29c-4.4,11.08-9.83,27.62-16.49,51.68C611,369.68,558.09,528.75,526,619.31s-131.24,144.6-176.3,153.61-87.85,44-87.85,44c.45-2.48,3-5.74,6.75-9.35C283.71,793,319,772.47,322.64,770.67c4.51-2.26,83.35-47.31,99.12-56.32s54.06-51.81,67.58-90.11S538.9,480.07,552.42,444s36-137.41,38.29-171.2S602,189.47,602,189.47s2.25-2.26,9-2.26c0,0-2.55,4.51,19,9C639.39,198.21,649.4,201.43,659,204.29Z"/><path class="cls-2" d="M850.36,520.59c-8.4,16.31-16.47,26.38-24.85,34.6,0,0,0,0,0,0-7.3,7.18-14.87,13-23.14,20.25-3.22,2.81-6.53,5.88-10,9.35-22.53,22.53-69.83,69.83-85.6,119.39,0,0-15.77,49.56-20.28,60.83s-18,56.31-69.83,69.83c-20.75,5.41-61.7,13-105.54,20.27a.17.17,0,0,1-.11,0c-65.62,10.9-137.67,21.15-157.92,22.5-33.79,2.25-40.55,2.25-51.81-6.76s-31.54-18-39.42-30.41a70,70,0,0,1,0-23.61c.45-2.48,3-5.74,6.75-9.35,0,0,14.78,15.5,31.43,26.07v0c6.78,4.33,13.85,7.82,20.39,9.12,22.52,4.51,234.28-54.06,250.05-69.83s51.14-42.51,41.34-75.33,6.75-30.68,17.61-55.4,35.66-66.63,44.67-126.78C681.25,467.5,686.12,314,685.87,210a33.23,33.23,0,0,0,6.22-.25c2.95-.43,5.36-.77,7.32-1,8.53-1,8.87,0,10.7,5.52,0,0,78.84-6.76,85.6-11.27,0,0,.38-13.51,4.71-15.77a5.45,5.45,0,0,0,3-5.31v0c-.2-2.34-1.87-4.75-5.41-5.92a16.66,16.66,0,0,1,7.66,2.18c3.07,1.83,5.86,5.19,5.86,11.34v135c0,27.23,11.26,70,20.27,88.05S869,484.53,850.36,520.59Z"/><path class="cls-7" d="M850.36,520.59c-8.4,16.31-16.47,26.38-24.85,34.6,0,0,0,0,0,0-7.3,7.18-14.87,13-23.14,20.25,1.09-6.44,2.35-13.07,3.77-19.82,14.89-70.88,23.4-44,1-82.3s-6.76-286-6.67-286.14c1-1.82,1.94-3.6,3-5.31v0c.74-1.28,1.49-2.52,2.25-3.74,3.07,1.83,5.86,5.19,5.86,11.34v135c0,27.23,11.26,70,20.27,88.05S869,484.53,850.36,520.59Z"/><path class="cls-7" d="M825.47,555.22c-10.16,10-20.82,17.28-33.14,29.6-22.53,22.53-69.83,69.83-85.6,119.39,0,0-15.77,49.56-20.28,60.83s-18,56.31-69.83,69.83c-20.75,5.41-61.7,13-105.54,20.27C665.71,809,640.27,800,601.28,811s-242.6,40.75-267.47,44.13S300,833.63,300,833.63c6.78,4.33,13.85,7.82,20.39,9.12,22.52,4.51,234.28-54.06,250.05-69.83s51.14-42.51,41.34-75.33,6.75-30.68,17.61-55.4,35.66-66.63,44.67-126.78C681.25,467.5,686.12,314,685.87,210a33.23,33.23,0,0,0,6.22-.25c2.95-.43,5.36-.77,7.32-1-4.67,63.1-12.33,192.49-.57,232.21,15.77,53.23-4.5,122.48-20.27,154s-11.26,114.88,31.54,51.27C752.23,583.58,823.26,556.05,825.47,555.22Z"/><path class="cls-7" d="M795.71,203s-3.38,230.91-3.38,248.93,0,65.33-40.55,83.35-41.67-43.77-41.67-43.77V214.25S789,207.49,795.71,203Z"/><line class="cls-13" x1="750.21" y1="630.4" x2="752.91" y2="545.98"/><path class="cls-14" d="M601.28,193.4s1.59,1.3,4.55,3.31"/><path class="cls-15" d="M615.45,202.61c15.38,8.52,42,19.28,73.26,15,0,0,17-3.89,14.11,12.7s1.25,254.89.33,268.65,10.34,54.31,37.37,49.8,51.81-24.78,58.57-69.83C805,439.8,803,256,802.33,208.36"/><path class="cls-14" d="M802.26,202.71c0-3.64-.08-5.63-.08-5.63"/><path class="cls-13" d="M629.4,203s-17.29,68.71-33,138.54S571.57,458.67,551.29,506s-30.75,93.42-43.54,124.43S481.46,715.48,393.6,760.53c0,0-92.36,51.81-94.61,51.81s-18,6.76-20.28,24.78l-2.25,18"/><path class="cls-11" d="M360.94,827s108.13-22.53,137.41-58.58,66.63-14.59,60.35-6.17S482.58,809,360.94,827Z"/><path class="cls-12" d="M856.56,494a60.3,60.3,0,0,1-6.2,26.6c-18.61,36.07-35.5,41.7-58,64.23s-69.83,69.83-85.6,119.39c0,0-15.77,49.56-20.28,60.83-.15.4-.33.87-.54,1.37,4-13.43,6.33-28.54,3.92-43-6.76-40.55,38.3-104.23,63.08-114.08C773,601.33,841.94,535.78,856.56,494Z"/></svg>